      <svg viewBox="0 0 300 300" fill="#fff" xmlns="http://www.w3.org/2000/svg">
        <path
          d="M257.423 149.816C257.354 135.797 254.507 121.931 249.049 109.022C243.59 96.1138 235.628 84.4188 225.624 74.6162C215.703 64.8285 203.981 57.0616 191.107 51.7457C178.24 46.3837 164.483 43.4911 150.55 43.2183C136.549 42.9618 122.651 45.6731 109.769 51.1742C96.8936 56.6018 85.2472 64.5834 75.5315 74.6384C65.8395 84.6401 58.1877 96.4389 53.005 109.375C47.8587 122.252 45.2018 135.991 45.1755 149.861C44.9094 177.981 55.7672 205.062 75.375 225.184C90.0743 240.329 109.047 250.605 129.746 254.633C136.603 255.939 143.57 256.574 150.55 256.526C164.511 256.393 178.314 253.566 191.208 248.2C217.236 237.345 237.959 216.669 248.9 190.637C251.59 184.189 253.676 177.505 255.13 170.669C256.637 163.821 257.406 156.83 257.423 149.816ZM257.826 149.816C257.821 156.86 257.204 163.89 255.98 170.827C254.716 177.777 252.725 184.575 250.041 191.109C244.692 204.241 236.799 216.181 226.815 226.239C216.832 236.295 204.957 244.271 191.879 249.702C178.776 255.116 164.722 257.837 150.55 257.703C136.431 257.557 122.47 254.721 109.411 249.344C96.3429 243.954 84.4279 236.102 74.3129 226.215C64.1305 216.264 56.016 204.392 50.4373 191.283C44.8586 178.174 41.926 164.089 41.8087 149.839C41.7926 142.688 42.5009 135.555 43.9227 128.548C47.6453 111.14 55.5547 94.9045 66.9637 81.2541C78.3729 67.6043 92.9365 56.9515 109.389 50.2218C122.489 44.9587 136.438 42.1334 150.55 41.8848C164.729 41.6124 178.814 44.2553 191.935 49.6503C205.015 55.128 216.877 63.1569 226.831 73.2701C236.786 83.3828 244.634 95.3778 249.918 108.558C255.209 121.665 257.903 135.678 257.849 149.816H257.826Z"
          fill="#fff"
        />
        <path
          d="M278.876 149.817C278.679 141.417 277.447 133.073 275.207 124.975C273.196 116.906 270.682 108.972 267.68 101.219C264.644 93.4497 260.9 85.9776 256.495 78.8979C252.021 71.894 247.267 64.8347 241.182 58.9966C229.298 47.0513 215.176 37.5745 199.626 31.11C184.077 24.6455 167.407 21.3205 150.572 21.3256C133.737 21.3309 117.069 24.6662 101.524 31.1404C85.9778 37.6145 71.8621 47.1 59.9844 59.0526C48.1121 70.9933 38.6751 85.1363 32.2007 100.692C31.4513 102.653 30.6236 104.592 29.9637 106.575C29.3038 108.558 28.588 110.542 28.0063 112.559C26.774 116.574 25.7842 120.661 25.0423 124.795L24.662 127.922C24.539 128.964 24.2929 129.983 24.1698 131.026C23.8902 133.11 23.5771 135.183 23.331 137.256C23.0849 139.329 22.9059 141.435 22.7382 143.531C22.5704 145.626 22.5256 147.722 22.4697 149.817C22.4599 166.673 25.8298 183.359 32.3797 198.886C38.7649 214.481 48.1596 228.66 60.025 240.611C71.8907 252.561 85.9936 262.048 101.526 268.528C109.279 271.702 117.331 274.083 125.562 275.632C133.799 277.189 142.168 277.94 150.55 277.873C158.92 277.799 167.264 276.929 175.47 275.274C183.712 273.775 191.789 271.474 199.585 268.405C215.173 262.03 229.292 252.522 241.071 240.47C246.879 234.433 252.054 227.817 256.517 220.726C257.636 218.933 258.754 217.174 259.772 215.381C260.79 213.588 261.852 211.761 262.826 209.912L265.689 204.309C266.573 202.416 267.613 200.589 268.496 198.707C269.38 196.824 270.319 194.919 271.102 192.981C271.886 191.042 272.646 189.07 273.25 187.053C273.854 185.036 274.491 183.042 274.939 180.98C275.386 178.917 275.879 176.878 276.236 174.816C277.867 166.58 278.751 158.213 278.876 149.817ZM279.01 149.817C279.134 158.254 278.384 166.68 276.774 174.962C276.349 177.035 275.778 179.064 275.308 181.114C274.839 183.165 274.189 185.182 273.641 187.221L271.852 193.283C271.259 195.311 270.566 197.317 269.917 199.334C269.268 201.351 268.429 203.301 267.613 205.262C266.796 207.223 265.756 209.083 264.805 210.977C263.854 212.87 262.703 214.663 261.64 216.49C260.577 218.316 259.314 220.042 258.139 221.812C253.262 228.73 247.754 235.179 241.686 241.075C235.661 246.987 229.088 252.311 222.056 256.975C215.037 261.661 207.583 265.658 199.798 268.909C192.059 272.295 183.998 274.889 175.739 276.652C167.442 278.277 159.004 279.062 150.55 278.994C133.643 278.8 116.933 275.337 101.336 268.797C69.8179 255.731 44.7285 230.721 31.5296 199.211C25.1925 183.516 21.9305 166.747 21.9216 149.817C21.9216 147.71 21.9216 145.604 21.9216 143.497L22.2572 137.166C22.4362 135.059 22.727 132.964 22.9618 130.869C23.2549 128.772 23.677 126.695 24.2258 124.65C24.7403 122.611 25.2101 120.548 25.6911 118.498C26.172 116.447 26.8096 114.43 27.3688 112.402C27.9281 110.374 28.6998 108.402 29.3597 106.395C30.0196 104.39 30.8809 102.463 31.5968 100.491C38.0663 84.8427 47.5708 70.6361 59.5594 58.694C71.4586 46.6545 85.6214 37.0973 101.23 30.575C116.838 24.0525 133.582 20.6942 150.494 20.6942C167.406 20.6942 184.15 24.0525 199.758 30.575C215.366 37.0973 229.529 46.6545 241.429 58.694C247.222 64.7786 253.24 70.7959 258.061 77.7437C263.023 84.6609 267.244 92.0821 270.655 99.8857C274.089 107.699 276.466 115.937 277.724 124.38C278.758 132.818 279.188 141.319 279.01 149.817Z"
          fill="#fff"
        />
        <path
          d="M299.235 149.817C299.176 130.294 295.254 110.976 287.693 92.9828C280.132 74.9892 269.084 58.6764 255.188 44.9894C227.673 17.5471 189.375 1.79221 150.551 1.28797L143.281 1.40003C140.854 1.51209 138.439 1.70257 136.011 1.84825C133.584 1.99392 131.19 2.43093 128.774 2.72227C126.359 3.01361 123.987 3.54027 121.594 3.94366C112.046 5.79227 102.719 8.63912 93.7651 12.4374C84.8093 16.2037 76.2479 20.8506 68.2073 26.3098C44.0488 42.8234 25.3098 66.1312 14.3513 93.2964C7.10045 111.256 3.36392 130.444 3.34513 149.817C3.07312 179.13 11.5261 207.86 27.6251 232.339C43.7241 256.818 66.7388 275.936 93.7315 287.252C102.72 290.972 112.052 293.794 121.594 295.678C155.252 302.169 190.116 296.867 220.335 280.661C250.555 264.455 274.293 238.332 287.569 206.673C291.298 197.685 294.177 188.366 296.17 178.839C298.202 169.299 299.229 159.571 299.235 149.817ZM299.637 149.817C299.634 159.588 298.75 169.339 296.998 178.951C295.204 188.59 292.414 198.016 288.676 207.077C277.527 234.561 258.404 258.063 233.781 274.544C209.157 291.024 180.164 299.725 150.551 299.522C140.784 299.454 131.044 298.441 121.471 296.497C111.891 294.586 102.525 291.729 93.5079 287.969C75.3658 280.476 58.8408 269.541 44.8417 255.765C30.772 241.927 19.5751 225.436 11.8963 207.243C4.21767 189.049 0.209026 169.513 0.101467 149.761C0.0825039 139.882 1.06057 130.027 3.02077 120.347C8.91577 91.1957 23.4064 64.4882 44.618 43.6783C51.6268 36.8088 59.2833 30.6356 67.4803 25.2453C75.6615 19.8372 84.3529 15.2471 93.4293 11.541C102.47 7.86212 111.831 5.02996 121.392 3.08085C123.808 2.65505 126.202 2.16201 128.618 1.80343C131.034 1.44485 133.461 1.14231 135.888 0.895786C138.315 0.649266 140.765 0.447565 143.203 0.279482L150.529 0.0105442C160.339 -0.0853392 170.134 0.770266 179.779 2.5654C189.424 4.4149 198.859 7.2304 207.942 10.9695C235.227 22.4257 258.506 41.7338 274.832 66.4499C291.159 91.1663 299.799 120.179 299.66 149.817H299.637Z"
          fill="#fff"
        />
        <path
          d="M88.5179 211.975C96.7936 219.925 106.623 226.072 117.387 230.028C128.009 233.972 139.224 236.078 150.551 236.257C156.217 236.373 161.883 235.96 167.474 235.025C173.091 234.074 178.594 232.539 183.894 230.442C194.546 226.192 204.249 219.861 212.438 211.819C220.603 203.723 227.051 194.058 231.395 183.404C235.739 172.75 237.889 161.326 237.716 149.819C237.558 138.377 235.188 127.075 230.736 116.538C228.541 111.287 225.828 106.268 222.639 101.557L220.178 98.0828C219.316 96.9623 218.5 95.7859 217.672 94.6317L215.089 91.2136C214.171 90.093 213.276 88.9725 212.326 87.9193C208.379 83.7544 203.913 80.1164 199.038 77.095C194.191 74.0649 189.104 71.4415 183.826 69.2511C178.573 67.0359 173.114 65.3468 167.529 64.2086C161.936 63.0328 156.243 62.4023 150.528 62.3261C139.029 62.1652 127.615 64.3339 116.973 68.702C111.679 70.9085 106.614 73.6296 101.851 76.8257C87.5707 86.5747 76.4721 100.32 69.9399 116.348C61.0466 137.785 60.9903 161.878 69.7832 183.357C70.3649 184.668 70.9017 186.012 71.5057 187.301C72.11 188.59 72.7364 189.889 73.4407 191.144C74.1457 192.399 74.8279 193.655 75.6779 194.842C76.5279 196.03 77.2214 197.251 78.06 198.417C78.8993 199.582 79.6821 200.77 80.5321 201.924C81.3821 203.078 82.2207 204.233 83.06 205.398C83.8986 206.563 84.7936 207.639 85.6886 208.759C86.5829 209.88 87.5229 210.944 88.5179 211.975ZM88.3171 212.177C87.3214 211.124 86.3371 210.082 85.2857 209.084L82.2879 205.947C81.3036 204.882 80.4093 203.706 79.4921 202.585C78.575 201.465 77.825 200.221 76.9979 199.022C76.17 197.823 75.51 196.546 74.7607 195.301C74.0114 194.058 73.385 192.758 72.68 191.492C71.9757 190.226 71.3827 188.903 70.7339 187.615C70.0852 186.326 69.6154 184.97 68.9667 183.648C60.0377 161.982 60.061 137.651 69.0314 116.002C78.0021 94.3532 95.1857 77.1587 116.805 68.1978C127.504 63.7257 138.959 61.3447 150.551 61.1831C162.199 61.008 173.761 63.2117 184.531 67.6598C189.894 69.9028 194.98 72.7603 199.686 76.1763C204.369 79.5723 208.823 83.2747 213.019 87.2584C214.048 88.278 215.144 89.2417 216.207 90.2391C217.269 91.2365 218.243 92.3119 219.261 93.3544C220.279 94.3961 221.162 95.5954 222.068 96.716C222.974 97.8365 223.734 99.1138 224.574 100.302C234.308 114.97 239.378 132.251 239.114 149.863C238.94 161.49 236.548 172.977 232.067 183.704C229.812 189.034 227.064 194.139 223.857 198.954C220.631 203.757 216.977 208.258 212.941 212.401C204.811 220.7 195.146 227.334 184.486 231.932C173.769 236.632 162.245 239.204 150.551 239.507C138.794 239.679 127.146 237.233 116.447 232.347C105.892 227.449 96.3493 220.607 88.3171 212.177Z"
          fill="#fff"
        />
        <path
          d="M82.345 149.816C82.5322 154.283 83.3808 158.698 84.8615 162.916C86.1929 167.117 87.3893 171.297 88.9779 175.376C90.4915 179.506 92.3629 183.495 94.5708 187.299C95.6886 189.193 96.9308 191.03 98.1158 192.901C98.7536 193.82 99.4022 194.728 100.118 195.591C100.834 196.453 101.639 197.215 102.355 198.022C108.703 204.308 116.24 209.26 124.524 212.59C132.753 216.052 141.582 217.857 150.507 217.901C159.461 218.003 168.344 216.296 176.624 212.88C184.876 209.428 192.364 204.374 198.659 198.011C204.951 191.664 209.958 184.157 213.401 175.902C214.243 173.826 214.989 171.727 215.638 169.605C216.304 167.474 216.816 165.299 217.17 163.095L217.281 161.425C217.281 160.865 217.472 160.305 217.539 159.778L218.02 156.483L218.4 153.122C218.456 152.001 218.557 150.881 218.591 149.76C218.6 140.817 216.784 131.966 213.255 123.752C209.872 115.495 204.936 107.966 198.714 101.577C192.486 95.153 184.996 90.0902 176.719 86.7079C168.442 83.3255 159.556 81.6959 150.619 81.9222C146.191 81.9974 141.78 82.485 137.443 83.3792C133.136 84.2978 128.707 85.0597 124.602 86.8188C116.314 90.1661 108.827 95.2339 102.635 101.689C99.6079 104.933 96.9279 108.486 94.6379 112.289L92.96 115.146L91.3715 118.037C90.3758 119.999 89.3243 121.937 88.2172 123.876C87.7143 124.862 87.0986 125.825 86.685 126.845C86.2158 127.86 85.8008 128.9 85.4436 129.96C84.7672 132.089 84.2515 134.265 83.9 136.471C82.9986 140.866 82.4786 145.331 82.345 149.816ZM82.2108 149.816C82.0872 145.307 82.4622 140.797 83.3293 136.37C83.5643 135.249 83.8886 134.196 84.1458 133.098C84.4029 131.999 84.7722 130.946 85.0293 129.859C85.645 127.697 86.1479 125.489 86.7636 123.293C87.065 122.172 87.4679 121.131 87.8815 120.066C88.2958 119.001 88.8436 118.015 89.3693 116.996C90.4422 114.993 91.6529 113.068 92.9936 111.236C95.6686 107.613 98.6636 104.237 101.941 101.151C108.442 94.8981 116.022 89.879 124.311 86.337C128.461 84.6673 132.633 82.8301 137.096 82.0117C141.519 81.1639 146.016 80.7702 150.518 80.8353C168.681 81.2649 186.009 88.5673 199.016 101.274C205.464 107.585 210.573 115.136 214.038 123.472C217.364 131.856 219.075 140.794 219.083 149.816C219.083 150.936 219.083 152.057 219.083 153.178L218.971 156.54C218.879 158.8 218.504 161.041 217.852 163.207C217.516 164.328 217.304 165.381 217.036 166.478C216.767 167.577 216.431 168.642 216.13 169.728C215.47 171.88 214.709 173.986 213.893 176.071C210.461 184.409 205.403 191.979 199.016 198.336C192.624 204.672 185.059 209.7 176.747 213.138C168.438 216.586 159.545 218.401 150.551 218.484C141.546 218.528 132.619 216.8 124.278 213.396C116 209.842 108.484 204.721 102.143 198.314L99.8165 195.882C99.0672 195.042 98.2393 194.28 97.4336 193.484C96.6286 192.689 95.8343 191.87 95.0965 191.008C94.3579 190.145 93.6758 189.248 92.9936 188.341C90.2229 184.704 87.8593 180.774 85.9465 176.62C84.0329 172.441 82.805 167.98 82.3115 163.408C82.0608 158.882 82.0386 154.345 82.2443 149.816H82.2108Z"
          fill="#fff"
        />
        <path
          d="M150.551 101.757C144.296 102.015 138.167 103.608 132.576 106.429C127.108 109.157 122.072 112.68 117.633 116.884C113.078 121.034 109.41 126.066 106.851 131.676C104.313 137.393 102.944 143.561 102.824 149.817C102.763 156.098 103.994 162.324 106.44 168.107C108.886 173.891 112.494 179.108 117.04 183.433C121.536 187.706 126.811 191.073 132.576 193.35C134.041 193.844 135.473 194.392 136.939 194.852C138.404 195.311 139.914 195.637 141.412 195.972C142.943 196.164 144.462 196.433 145.965 196.779C147.486 197.015 149.018 197.362 150.573 197.563C152.128 197.765 153.694 197.507 155.259 197.418C156.825 197.328 158.324 196.847 159.856 196.555C161.389 196.264 162.831 195.637 164.331 195.199L168.681 193.563C170.102 192.969 171.478 192.264 172.887 191.613C174.296 190.963 175.549 190.045 176.891 189.261C178.234 188.476 179.419 187.468 180.683 186.571L184.206 183.512C188.745 179.183 192.346 173.965 194.787 168.183C195.302 166.703 195.906 165.247 196.354 163.701C196.801 162.154 197.159 160.675 197.472 159.14C197.785 157.605 197.931 156.047 198.109 154.49L198.289 149.795C198.097 137.167 193.077 125.094 184.262 116.066C179.85 111.621 174.615 108.081 168.849 105.645C167.373 105.118 165.93 104.525 164.442 104.053C162.955 103.583 161.389 103.359 159.868 103.079C158.316 102.901 156.777 102.628 155.259 102.261C153.704 101.979 152.13 101.81 150.551 101.757ZM150.551 101.465C152.137 101.572 153.729 101.572 155.316 101.465C156.909 101.518 158.496 101.705 160.058 102.026C161.601 102.418 163.1 102.956 164.644 103.348C166.187 103.74 167.63 104.469 169.118 104.939C175.031 107.359 180.409 110.923 184.944 115.428C189.48 119.933 193.083 125.29 195.548 131.194C197.969 137.115 199.175 143.464 199.094 149.862C198.856 162.727 193.826 175.038 184.989 184.375L181.511 187.669C180.247 188.644 179.005 189.664 177.719 190.616C176.433 191.569 175.012 192.331 173.625 193.126C172.239 193.922 170.762 194.572 169.296 195.222C167.831 195.871 166.288 196.343 164.744 196.779C163.201 197.216 161.613 197.452 160.046 197.721L155.304 198.236C153.716 198.314 152.128 198.359 150.539 198.572C148.951 198.785 147.351 198.808 145.73 198.875C144.119 198.79 142.516 198.6 140.931 198.303C139.354 197.956 137.799 197.497 136.245 197.093C134.69 196.69 133.225 195.972 131.771 195.412C125.872 192.845 120.548 189.118 116.111 184.453L112.98 180.823C112.063 179.512 111.112 178.234 110.229 176.912C109.345 175.59 108.584 174.189 107.824 172.789C107.063 171.387 106.448 169.92 105.844 168.452C105.24 166.984 104.725 165.471 104.289 163.97C103.853 162.468 103.473 160.9 103.171 159.353C102.869 157.806 102.667 156.216 102.466 154.647L102.164 149.884C102.069 143.477 103.208 137.112 105.519 131.137C107.79 125.051 111.207 119.459 115.586 114.665C120.029 109.929 125.546 106.335 131.67 104.188C137.75 102.155 144.145 101.233 150.551 101.465Z"
          fill="#fff"
        />
        <path
          d="M120.273 149.818C120.519 153.761 121.667 157.595 123.629 161.023C125.439 164.351 127.643 167.447 130.194 170.245C132.689 173.186 135.766 175.575 139.231 177.26C142.794 178.91 146.651 179.821 150.574 179.938L153.526 179.86C154.511 179.737 155.484 179.568 156.456 179.434C157.43 179.3 158.369 178.952 159.32 178.706C160.271 178.459 161.166 178.011 162.094 177.675C165.697 176.099 168.934 173.79 171.601 170.896C174.227 168.037 176.288 164.706 177.675 161.079C177.977 160.161 178.301 159.264 178.592 158.345C178.883 157.426 179.073 156.485 179.263 155.555C179.367 154.595 179.554 153.647 179.822 152.72C180.024 151.779 180.337 150.815 180.504 149.829C180.564 148.847 180.546 147.861 180.449 146.882C180.304 145.907 180.057 144.954 179.845 144.002C179.632 143.05 179.219 142.142 178.916 141.223C178.614 140.304 178.178 139.419 177.865 138.511C177.552 137.604 177.059 136.752 176.668 135.867C176.276 134.981 175.695 134.186 175.214 133.346L173.559 130.948L171.669 128.706C168.989 125.816 165.73 123.525 162.105 121.983C161.177 121.658 160.26 121.289 159.32 120.997C158.381 120.706 157.419 120.493 156.456 120.291C155.495 120.09 154.499 120.012 153.526 119.911L150.574 119.81C142.664 120.002 135.117 123.17 129.434 128.684C126.628 131.447 124.393 134.737 122.857 138.366C122.521 139.285 122.141 140.192 121.85 141.134C121.559 142.075 121.459 143.072 121.302 144.036C121.21 145.016 121.019 145.985 120.731 146.927C120.471 147.87 120.318 148.84 120.273 149.818ZM119.994 149.818C120.054 148.807 120.009 147.793 119.859 146.792C119.831 145.775 119.932 144.758 120.161 143.767C120.419 142.781 120.81 141.839 121.067 140.853C121.324 139.867 121.727 138.949 122.063 137.996C123.589 134.233 125.839 130.806 128.684 127.911C131.522 124.991 134.925 122.68 138.684 121.121C142.442 119.56 146.483 118.796 150.551 118.88C158.704 119.113 166.496 122.298 172.485 127.844L174.61 130.085C175.236 130.892 175.896 131.676 176.511 132.494C177.126 133.312 177.63 134.22 178.122 135.105C178.614 135.99 179.061 136.932 179.476 137.862C179.846 138.819 180.167 139.795 180.438 140.786C180.616 141.795 180.818 142.803 180.964 143.812C181.109 144.82 181.12 145.84 181.231 146.838C181.235 147.851 181.318 148.862 181.478 149.863C181.545 150.882 181.757 151.913 181.858 152.956C181.86 153.99 181.755 155.023 181.545 156.037C181.321 157.057 181.019 158.043 180.762 159.051C180.504 160.06 180.035 160.978 179.644 161.954C177.969 165.719 175.553 169.107 172.541 171.915C166.516 177.432 158.69 180.559 150.529 180.711C146.462 180.827 142.411 180.162 138.594 178.751C134.669 177.379 131.036 175.277 127.89 172.554C124.789 169.689 122.504 166.05 121.269 162.009C120.162 158.046 119.731 153.924 119.994 149.818Z"
          fill="#fff"
        />
        <path
          d="M136.29 149.817C136.526 151.661 137.257 153.407 138.404 154.87C139.433 156.304 140.462 157.559 141.502 158.893C142.504 160.34 143.814 161.545 145.339 162.422C146.953 163.276 148.729 163.776 150.551 163.891C152.393 163.96 154.226 163.604 155.909 162.848C157.591 162.092 159.076 160.957 160.249 159.532C161.391 158.169 162.274 156.608 162.854 154.926L163.246 153.682C163.336 153.256 163.447 152.831 163.536 152.405C163.688 151.491 164.006 150.614 164.476 149.817C164.549 149.363 164.549 148.902 164.476 148.449C164.387 147.996 164.264 147.551 164.107 147.116L163.559 145.872C163.359 145.473 163.183 145.061 163.034 144.639C162.374 142.972 161.456 141.417 160.316 140.034C159.132 138.617 157.634 137.497 155.942 136.762C154.238 136.034 152.389 135.708 150.54 135.81C146.88 136.005 143.405 137.48 140.719 139.978C139.384 141.24 138.324 142.766 137.61 144.46C137.453 144.897 137.274 145.323 137.14 145.76C137.06 146.212 137.008 146.668 136.984 147.127C137.051 148.035 136.234 148.864 136.29 149.817ZM136.01 149.817C136.044 149.32 135.968 148.823 135.786 148.36C135.695 147.871 135.722 147.368 135.865 146.892C136.256 145.973 136.536 145.054 136.871 144.147C137.601 142.333 138.664 140.672 140.004 139.25C141.351 137.802 142.991 136.656 144.813 135.888C146.632 135.15 148.59 134.817 150.551 134.913C154.452 135.132 158.177 136.615 161.166 139.138C162.689 140.431 163.891 142.062 164.678 143.9C164.866 144.367 165.013 144.851 165.114 145.345C165.181 145.839 165.226 146.343 165.248 146.836C165.271 147.329 165.248 147.822 165.248 148.315C165.234 148.801 165.286 149.288 165.404 149.761C165.516 150.253 165.751 150.757 165.874 151.284C165.949 151.793 165.923 152.31 165.796 152.808C165.673 153.301 165.528 153.795 165.394 154.287C165.259 154.781 165.013 155.24 164.834 155.711C163.961 157.53 162.719 159.148 161.188 160.462C158.177 162.974 154.421 164.416 150.506 164.563C148.542 164.679 146.574 164.428 144.701 163.824C142.714 163.262 140.845 162.344 139.187 161.111C137.565 159.738 136.457 157.854 136.044 155.767C135.754 153.795 135.743 151.791 136.01 149.817Z"
          fill="#fff"
        />
      </svg>