<svg viewBox="0 0 60 60" fill="none" xmlns="http://www.w3.org/2000/svg">
  <circle cx="30" cy="30" r="29.5" stroke="#fff" stroke-opacity="0.2"/>
  <path d="M35.34 23.46C35.1027 23.46 34.8707 23.5304 34.6733 23.6622C34.476 23.7941 34.3222 23.9815 34.2313 24.2008C34.1405 24.4201 34.1168 24.6613 34.1631 24.8941C34.2094 25.1269 34.3236 25.3407 34.4915 25.5085C34.6593 25.6764 34.8731 25.7906 35.1059 25.8369C35.3387 25.8832 35.5799 25.8595 35.7992 25.7687C36.0185 25.6778 36.2059 25.524 36.3378 25.3267C36.4696 25.1293 36.54 24.8973 36.54 24.66C36.54 24.3417 36.4136 24.0365 36.1885 23.8115C35.9635 23.5864 35.6583 23.46 35.34 23.46V23.46ZM39.94 25.88C39.9206 25.0503 39.7652 24.2294 39.48 23.45C39.2257 22.7831 38.83 22.1793 38.32 21.68C37.8248 21.1674 37.2196 20.7742 36.55 20.53C35.7727 20.2362 34.9508 20.0772 34.12 20.06C33.06 20 32.72 20 30 20C27.28 20 26.94 20 25.88 20.06C25.0492 20.0772 24.2273 20.2362 23.45 20.53C22.7817 20.7766 22.1769 21.1696 21.68 21.68C21.1674 22.1752 20.7742 22.7804 20.53 23.45C20.2362 24.2273 20.0772 25.0492 20.06 25.88C20 26.94 20 27.28 20 30C20 32.72 20 33.06 20.06 34.12C20.0772 34.9508 20.2362 35.7727 20.53 36.55C20.7742 37.2196 21.1674 37.8248 21.68 38.32C22.1769 38.8304 22.7817 39.2234 23.45 39.47C24.2273 39.7638 25.0492 39.9228 25.88 39.94C26.94 40 27.28 40 30 40C32.72 40 33.06 40 34.12 39.94C34.9508 39.9228 35.7727 39.7638 36.55 39.47C37.2196 39.2258 37.8248 38.8326 38.32 38.32C38.8322 37.8226 39.2283 37.2182 39.48 36.55C39.7652 35.7706 39.9206 34.9497 39.94 34.12C39.94 33.06 40 32.72 40 30C40 27.28 40 26.94 39.94 25.88V25.88ZM38.14 34C38.1327 34.6348 38.0178 35.2637 37.8 35.86C37.6403 36.2952 37.3839 36.6884 37.05 37.01C36.7256 37.3405 36.3332 37.5964 35.9 37.76C35.3037 37.9778 34.6748 38.0927 34.04 38.1C33.04 38.15 32.67 38.16 30.04 38.16C27.41 38.16 27.04 38.16 26.04 38.1C25.3809 38.1123 24.7246 38.0109 24.1 37.8C23.6858 37.6281 23.3114 37.3728 23 37.05C22.6681 36.7287 22.4148 36.3352 22.26 35.9C22.0159 35.2952 21.8804 34.6519 21.86 34C21.86 33 21.8 32.63 21.8 30C21.8 27.37 21.8 27 21.86 26C21.8645 25.3511 21.983 24.7079 22.21 24.1C22.386 23.6779 22.6563 23.3017 23 23C23.3038 22.6562 23.6793 22.3831 24.1 22.2C24.7096 21.98 25.352 21.8651 26 21.86C27 21.86 27.37 21.8 30 21.8C32.63 21.8 33 21.8 34 21.86C34.6348 21.8673 35.2637 21.9822 35.86 22.2C36.3144 22.3687 36.7223 22.6428 37.05 23C37.3777 23.3072 37.6338 23.6827 37.8 24.1C38.0223 24.7089 38.1373 25.3518 38.14 26C38.19 27 38.2 27.37 38.2 30C38.2 32.63 38.19 33 38.14 34ZM30 24.87C28.9858 24.872 27.995 25.1745 27.1527 25.7394C26.3103 26.3043 25.6544 27.1062 25.2676 28.0438C24.8809 28.9813 24.7807 30.0125 24.9798 31.0069C25.1789 32.0014 25.6682 32.9145 26.3861 33.631C27.1039 34.3474 28.018 34.835 29.0129 35.0321C30.0077 35.2293 31.0387 35.1271 31.9755 34.7385C32.9123 34.35 33.7129 33.6924 34.2761 32.849C34.8394 32.0056 35.14 31.0142 35.14 30C35.1413 29.3251 35.0092 28.6566 34.7512 28.033C34.4933 27.4093 34.1146 26.8428 33.6369 26.3661C33.1592 25.8893 32.5919 25.5117 31.9678 25.2549C31.3436 24.9982 30.6749 24.8674 30 24.87V24.87ZM30 33.33C29.3414 33.33 28.6976 33.1347 28.15 32.7688C27.6023 32.4029 27.1755 31.8828 26.9235 31.2743C26.6714 30.6659 26.6055 29.9963 26.734 29.3503C26.8625 28.7044 27.1796 28.111 27.6453 27.6453C28.111 27.1796 28.7044 26.8625 29.3503 26.734C29.9963 26.6055 30.6659 26.6714 31.2743 26.9235C31.8828 27.1755 32.4029 27.6023 32.7688 28.15C33.1347 28.6976 33.33 29.3414 33.33 30C33.33 30.4373 33.2439 30.8703 33.0765 31.2743C32.9092 31.6784 32.6639 32.0454 32.3547 32.3547C32.0454 32.6639 31.6784 32.9092 31.2743 33.0765C30.8703 33.2439 30.4373 33.33 30 33.33V33.33Z" fill="#fff"/>
</svg>
