<svg viewBox="0 0 60 60" fill="none" xmlns="http://www.w3.org/2000/svg">
  <circle cx="30" cy="30" r="29.5" stroke="#fff" stroke-opacity="0.2"/>
  <path d="M21 22.9747C21 22.4023 21.2027 21.9301 21.6081 21.5581C22.0135 21.186 22.5405 21 23.1892 21C23.8263 21 24.3417 21.1832 24.7355 21.5495C25.1409 21.9273 25.3436 22.4195 25.3436 23.0263C25.3436 23.5758 25.1467 24.0337 24.7529 24.4C24.3475 24.7778 23.8147 24.9667 23.1544 24.9667H23.1371C22.5 24.9667 21.9846 24.7778 21.5907 24.4C21.1969 24.0222 21 23.5471 21 22.9747ZM21.2259 38V26.5293H25.083V38H21.2259ZM27.2201 38H31.0772V31.5949C31.0772 31.1942 31.1236 30.8852 31.2162 30.6677C31.3784 30.2784 31.6245 29.9493 31.9546 29.6803C32.2847 29.4113 32.6988 29.2768 33.1969 29.2768C34.4942 29.2768 35.1429 30.1411 35.1429 31.8697V38H39V31.4232C39 29.7289 38.5946 28.4439 37.7838 27.5682C36.973 26.6924 35.9016 26.2545 34.5695 26.2545C33.0753 26.2545 31.9112 26.8899 31.0772 28.1606V28.1949H31.0598L31.0772 28.1606V26.5293H27.2201C27.2432 26.8956 27.2548 28.0347 27.2548 29.9464C27.2548 31.8582 27.2432 34.5427 27.2201 38Z" fill="#fff"/>
</svg>
