    <svg viewBox="0 0 57 57" fill="#fff" xmlns="http://www.w3.org/2000/svg">
<path d="M28.4234 55.8739L28.4239 56.1239L28.4262 56.1239L28.4234 55.8739ZM31.1021 55.7164L31.0749 55.4679L31.0745 55.468L31.1021 55.7164ZM33.7472 55.2893L33.7997 55.5337L33.7998 55.5337L33.7472 55.2893ZM38.8314 53.656L38.9309 53.8854L38.931 53.8853L38.8314 53.656ZM47.6145 47.721L47.4392 47.5427L47.4388 47.5431L47.6145 47.721ZM51.0419 43.642L51.2477 43.784L51.2478 43.7838L51.0419 43.642ZM53.6066 38.96L53.837 39.0572L53.8371 39.057L53.6066 38.96ZM55.7341 28.5238L55.9841 28.5248L55.9841 28.5243L55.7341 28.5238ZM55.2215 23.1918L54.9763 23.2404L54.9765 23.2414L55.2215 23.1918ZM51.1207 13.3554L51.3277 13.2153L51.3276 13.2152L51.1207 13.3554ZM33.7288 1.83878L33.6799 2.08397L33.6804 2.08406L33.7288 1.83878ZM32.4121 1.61264L32.4495 1.36543L32.4459 1.36493L32.4121 1.61264ZM28.4234 1.224L28.43 0.974075L28.4272 0.974032L28.4234 1.224ZM25.7465 1.34127L25.7718 1.58998L25.7722 1.58994L25.7465 1.34127ZM23.0997 1.75503L23.1513 1.99964L23.1517 1.99956L23.0997 1.75503ZM17.997 3.34641L17.9021 3.11515L17.9013 3.11546L17.997 3.34641ZM9.13524 9.22784L8.95958 9.04995L8.95941 9.05013L9.13524 9.22784ZM5.71784 13.347L5.5107 13.2071L5.51068 13.2071L5.71784 13.347ZM1.62869 23.1902L1.38336 23.1421L1.38333 23.1422L1.62869 23.1902ZM13.2562 51.2304L13.3958 51.023L13.3957 51.0229L13.2562 51.2304ZM17.9719 53.7632L17.8759 53.9941L17.8763 53.9942L17.9719 53.7632ZM20.4947 54.6661L20.4226 54.9055L20.4235 54.9058L20.4947 54.6661ZM23.0997 55.291L23.1463 55.0453L23.1452 55.0451L23.0997 55.291ZM25.7465 55.6997L25.7792 55.4518L25.777 55.4516L25.7465 55.6997ZM28.4234 55.9141V56.1641L28.4258 55.6641L28.4234 55.9141ZM23.0695 55.4501L23.1204 55.2053L23.1199 55.2052L23.0695 55.4501ZM17.9283 53.8671L18.024 53.6361L18.0238 53.636L17.9283 53.8671ZM3.06099 39.032L2.82994 39.1275L2.83014 39.128L3.06099 39.032ZM1.50808 33.8793L1.26266 33.9269L1.26272 33.9272L1.50808 33.8793ZM3.09951 18.0324L2.8685 17.9368L2.86845 17.9369L3.09951 18.0324ZM9.0163 9.11059L8.83848 8.93486L8.83843 8.93491L9.0163 9.11059ZM13.1591 5.66984L13.0193 5.46254L13.019 5.46276L13.1591 5.66984ZM15.4675 4.27445L15.5859 4.49461L15.5865 4.49431L15.4675 4.27445ZM20.4462 2.22407L20.3764 1.984L20.3758 1.98416L20.4462 2.22407ZM25.7347 1.23238L25.7581 1.48129L25.759 1.4812L25.7347 1.23238ZM28.4218 1.08999L28.4166 0.840047L28.4166 0.840048L28.4218 1.08999ZM31.1188 1.14863L31.0998 1.3979L31.1011 1.398L31.1188 1.14863ZM32.459 1.29269L32.4235 1.54015L32.4236 1.54017L32.459 1.29269ZM33.7908 1.52218L33.8395 1.27698L33.8391 1.27689L33.7908 1.52218ZM38.9504 3.09682L39.0473 2.86638L39.0468 2.86619L38.9504 3.09682ZM51.2262 13.285L51.0176 13.4228L51.0179 13.4232L51.2262 13.285ZM55.2986 23.1801L55.0533 23.2286L55.0534 23.2287L55.2986 23.1801ZM55.6923 25.8402L55.9411 25.816L55.941 25.8155L55.6923 25.8402ZM55.8313 28.5272L56.0813 28.5262L56.0813 28.5258L55.8313 28.5272ZM55.3354 33.8826L55.581 33.9296L55.5811 33.9292L55.3354 33.8826ZM53.8043 39.0437L54.0358 39.1382L54.0358 39.1381L53.8043 39.0437ZM47.9244 48.0359L48.1024 48.2114L48.1026 48.2112L47.9244 48.0359ZM43.7481 51.4767L43.8861 51.6851L43.8863 51.685L43.7481 51.4767ZM38.9587 53.9793L39.0508 54.2118L39.051 54.2117L38.9587 53.9793ZM33.774 55.4568L33.8178 55.7029L33.8184 55.7028L33.774 55.4568ZM28.4201 55.9124L28.422 55.6624L28.1701 55.6606V55.9124H28.4201ZM28.4201 55.9141H28.1701V56.1641H28.4201V55.9141ZM49.8793 28.5238L49.6714 28.3851L49.6289 28.4487L49.6293 28.5252L49.8793 28.5238ZM49.5878 33.2444L49.8357 33.277L49.8358 33.2765L49.5878 33.2444ZM48.6213 37.8812L48.381 37.812L48.381 37.8122L48.6213 37.8812ZM46.931 42.3136L46.7058 42.205L46.7056 42.2054L46.931 42.3136ZM37.4896 52.7179L37.6133 52.9352L37.6135 52.9351L37.4896 52.7179ZM35.3587 53.7632L35.4546 53.9941L35.4549 53.994L35.3587 53.7632ZM33.114 54.5271L33.1788 54.7685L33.1791 54.7685L33.114 54.5271ZM28.4251 55.1402L28.4235 55.3902L28.4246 55.3902L28.4251 55.1402ZM23.7463 54.4936L23.6793 54.7344L23.6801 54.7347L23.7463 54.4936ZM19.3891 52.6694L19.2644 52.886L19.2646 52.8861L19.3891 52.6694ZM15.578 49.8702L15.7474 49.6863L15.7472 49.6861L15.578 49.8702ZM12.4236 46.3407L12.6255 46.1931L12.6253 46.193L12.4236 46.3407ZM9.96614 42.2902L10.1903 42.1795L10.1902 42.1793L9.96614 42.2902ZM7.17861 33.2544L7.42597 33.2182L7.42586 33.2175L7.17861 33.2544ZM6.90221 28.5222L7.15218 28.5259L7.15219 28.5248L6.90221 28.5222ZM7.23557 23.7982L6.98795 23.7638L6.98767 23.7659L7.23557 23.7982ZM7.64432 21.4648L7.39978 21.4128L7.39976 21.4129L7.64432 21.4648ZM8.23901 19.1698L8.47797 19.2433L8.47819 19.2426L8.23901 19.1698ZM9.97954 14.7608L9.75525 14.6504L9.7552 14.6505L9.97954 14.7608ZM12.4337 10.7103L12.6354 10.8581L12.6355 10.8579L12.4337 10.7103ZM15.5847 7.17914L15.7542 7.36293L15.7544 7.36281L15.5847 7.17914ZM19.3925 4.37997L19.2677 4.16334L19.2676 4.16339L19.3925 4.37997ZM21.5099 3.32464L21.4128 3.09427L21.4121 3.09455L21.5099 3.32464ZM23.7463 2.54904L23.8125 2.79011L23.8136 2.78981L23.7463 2.54904ZM33.1123 2.52224L33.1784 2.28113L33.1782 2.28107L33.1123 2.52224ZM37.4779 4.34815L37.6033 4.13191L37.6029 4.13166L37.4779 4.34815ZM41.2822 7.16407L41.4525 6.98104L41.4524 6.98092L41.2822 7.16407ZM44.4148 10.712L44.2122 10.8585L44.2124 10.8587L44.4148 10.712ZM48.5542 19.1832L48.3147 19.2549L48.3148 19.2551L48.5542 19.1832ZM49.1506 21.4731L49.3947 21.419L49.3946 21.4185L49.1506 21.4731ZM49.5878 23.7999L49.8357 23.7666L49.8351 23.7628L49.5878 23.7999ZM49.6666 24.3862L49.9146 24.3544L49.9144 24.3529L49.6666 24.3862ZM49.7855 25.5639L50.0349 25.5466L50.0348 25.5447L49.7855 25.5639ZM49.8073 25.8587L49.5576 25.8714L49.5576 25.8714L49.8073 25.8587ZM49.8224 26.1535L49.5727 26.1663L49.5727 26.1667L49.8224 26.1535ZM49.8827 28.5188L50.0906 28.6576L50.1333 28.5936L50.1327 28.5167L49.8827 28.5188ZM49.8442 28.5238L49.6205 28.6356L50.0897 29.5744L50.0941 28.5249L49.8442 28.5238ZM49.7319 26.1652L49.9809 26.1424L49.9808 26.1418L49.7319 26.1652ZM49.6096 24.9909L49.3617 25.023L49.362 25.0251L49.6096 24.9909ZM49.5409 24.4046L49.7889 24.3729L49.7887 24.3712L49.5409 24.4046ZM49.4622 23.8217L49.71 23.7882L49.7098 23.7871L49.4622 23.8217ZM49.0501 21.4983L49.2943 21.4445L49.2942 21.4444L49.0501 21.4983ZM48.4521 19.2167L48.6913 19.1443L48.6913 19.1442L48.4521 19.2167ZM44.3043 10.7908L44.1019 10.9375L44.1022 10.9379L44.3043 10.7908ZM41.1834 7.26792L41.3535 7.08474L41.3534 7.08461L41.1834 7.26792ZM37.4025 4.47713L37.5275 4.26065L37.5273 4.26053L37.4025 4.47713ZM35.2968 3.42682L35.3949 3.19689L35.3943 3.19662L35.2968 3.42682ZM33.0755 2.6529L33.0081 2.89367L33.0087 2.89382L33.0755 2.6529ZM23.7647 2.6261L23.6987 2.38497L23.6987 2.38497L23.7647 2.6261ZM21.5384 3.39666L21.4413 3.16627L21.4411 3.16639L21.5384 3.39666ZM19.4276 4.44698L19.3026 4.23048L19.302 4.23084L19.4276 4.44698ZM15.6484 7.25285L15.4778 7.07006L15.4774 7.07044L15.6484 7.25285ZM12.5459 10.7941L12.3427 10.6486L12.3426 10.6486L12.5459 10.7941ZM10.1487 14.8446L10.3739 14.9533L10.3741 14.9528L10.1487 14.8446ZM8.44841 19.2335L8.68782 19.3055L8.68799 19.3049L8.44841 19.2335ZM7.85037 21.51L8.09416 21.5654L8.09425 21.565L7.85037 21.51ZM7.40979 23.8251L7.65687 23.8631L7.65691 23.8629L7.40979 23.8251ZM7.0714 28.5222L6.8214 28.5243L6.82144 28.5264L7.0714 28.5222ZM7.20709 30.8741L7.45613 30.8521L7.45608 30.8516L7.20709 30.8741ZM7.46842 33.2126L7.22091 33.2478L7.22096 33.2481L7.46842 33.2126ZM8.47354 37.8058L8.23391 37.8771L8.23393 37.8771L8.47354 37.8058ZM12.5577 46.2435L12.761 46.098L12.7608 46.0977L12.5577 46.2435ZM15.6551 49.7848L15.4839 49.9669L15.4843 49.9673L15.6551 49.7848ZM19.4293 52.594L19.3036 52.81L19.3041 52.8103L19.4293 52.594ZM21.5367 53.6476L21.4387 53.8776L21.4396 53.878L21.5367 53.6476ZM26.0715 54.8889L26.0379 55.1367L26.0385 55.1367L26.0715 54.8889ZM33.0721 54.3847L33.0043 54.1441L33.0041 54.1441L33.0721 54.3847ZM35.2884 53.6024L35.3865 53.8323L35.3872 53.8321L35.2884 53.6024ZM37.3874 52.5437L37.5135 52.7596L37.5139 52.7594L37.3874 52.5437ZM41.1415 49.7295L41.3131 49.9113L41.3133 49.9111L41.1415 49.7295ZM44.2239 46.1949L44.021 46.0488L44.0205 46.0495L44.2239 46.1949ZM48.3851 37.8075L48.1467 37.7321L48.1467 37.7322L48.3851 37.8075ZM49.8425 28.5205L50.0661 28.4087L49.598 27.4721L49.5925 28.5191L49.8425 28.5205ZM43.9525 28.5238V28.2738H43.7019L43.7025 28.5244L43.9525 28.5238ZM43.2137 36.7186L42.9683 36.671L42.9683 36.6712L43.2137 36.7186ZM40.6892 44.5583L40.4635 44.4509L40.4634 44.4511L40.6892 44.5583ZM38.612 48.1264L38.4073 47.9827L38.407 47.9832L38.612 48.1264ZM35.8881 51.2287L36.0547 51.4151L36.0565 51.4135L35.8881 51.2287ZM32.4406 53.4885L32.3412 53.2591L32.3403 53.2595L32.4406 53.4885ZM30.4772 54.1234L30.5288 54.368L30.5301 54.3677L30.4772 54.1234ZM28.4234 54.3344L28.421 54.5844L28.4228 54.5844L28.4234 54.3344ZM24.4164 53.46L24.5182 53.2317L24.5181 53.2316L24.4164 53.46ZM22.6139 52.4633L22.7535 52.256L22.7528 52.2555L22.6139 52.4633ZM20.9872 51.1969L20.8187 51.3816L20.8198 51.3826L20.9872 51.1969ZM18.2751 48.0996L18.4804 47.9569L18.4797 47.9559L18.2751 48.0996ZM16.1945 44.5432L16.4201 44.4355L16.4198 44.4349L16.1945 44.5432ZM13.6013 36.7287L13.8462 36.6784L13.8461 36.6781L13.6013 36.7287ZM12.8408 30.5893L13.0906 30.5808L13.0906 30.5807L12.8408 30.5893ZM12.8223 28.5255L13.0723 28.5285L13.0723 28.5279L12.8223 28.5255ZM13.025 24.4063L13.274 24.4295L13.274 24.4288L13.025 24.4063ZM13.6197 20.324L13.3748 20.2741L13.3747 20.2747L13.6197 20.324ZM14.6684 16.3372L14.4308 16.2596L14.4306 16.2601L14.6684 16.3372ZM16.2029 12.5111L16.4283 12.6193L16.4283 12.6191L16.2029 12.5111ZM18.2818 8.95312L18.4866 9.09647L18.487 9.09592L18.2818 8.95312ZM20.9923 5.85746L20.8249 5.67176L20.8236 5.67294L20.9923 5.85746ZM24.418 3.58764L24.5189 3.81639L24.52 3.81589L24.418 3.58764ZM26.3747 2.93936L26.4288 3.18342L26.4292 3.18335L26.3747 2.93936ZM30.4772 2.92763L30.5306 2.68338L30.5302 2.68331L30.4772 2.92763ZM32.4406 3.56921L32.3393 3.79779L32.3402 3.79817L32.4406 3.56921ZM35.8781 5.83735L36.0474 5.65342L36.0453 5.65154L35.8781 5.83735ZM38.5835 8.94642L38.3779 9.08873L38.378 9.08887L38.5835 8.94642ZM40.644 12.5145L40.418 12.6214L40.4181 12.6216L40.644 12.5145ZM43.1853 20.3374L42.9402 20.3867L42.9402 20.3868L43.1853 20.3374ZM43.7866 24.413L43.5378 24.4368L43.5378 24.4368L43.7866 24.413ZM43.9223 26.4684L44.1722 26.4605L44.1722 26.4599L43.9223 26.4684ZM43.9558 28.5238V28.7738H44.2077L44.2058 28.522L43.9558 28.5238ZM43.9223 28.5238L43.7455 28.7006L44.1723 29.1276L44.1723 28.5238L43.9223 28.5238ZM43.6945 24.418L43.9435 24.3954L43.9434 24.3948L43.6945 24.418ZM43.0931 20.3525L43.3381 20.3027L43.3381 20.3026L43.0931 20.3525ZM40.5384 12.5614L40.3125 12.6684L40.3128 12.669L40.5384 12.5614ZM38.4813 9.01175L38.276 9.15436L38.2763 9.15477L38.4813 9.01175ZM35.7893 5.92614L35.9582 5.74188L35.9568 5.74054L35.7893 5.92614ZM32.3903 3.66972L32.2884 3.89802L32.2893 3.8984L32.3903 3.66972ZM30.4504 3.02814L30.3958 3.27209L30.3959 3.27211L30.4504 3.02814ZM26.3864 3.01641L26.3333 2.77212L26.3331 2.77215L26.3864 3.01641ZM24.4398 3.64962L24.5405 3.87846L24.5407 3.87835L24.4398 3.64962ZM21.0308 5.90269L20.8641 5.71635L20.8612 5.71902L21.0308 5.90269ZM18.3455 9.00003L18.5511 9.14214L18.5514 9.14179L18.3455 9.00003ZM14.8158 16.3857L15.0541 16.4614L15.0543 16.4609L14.8158 16.3857ZM13.799 20.3575L14.0443 20.4059L14.0443 20.4059L13.799 20.3575ZM12.9966 28.5222L12.7466 28.524L12.7466 28.5264L12.9966 28.5222ZM13.2294 32.6196L12.9804 32.6419L12.9804 32.6422L13.2294 32.6196ZM13.8157 36.6818L14.061 36.6335L14.0609 36.6327L13.8157 36.6818ZM16.3202 44.4796L16.5468 44.374L16.5466 44.3737L16.3202 44.4796ZM18.3555 48.0409L18.1495 48.1825L18.1496 48.1827L18.3555 48.0409ZM21.0375 51.1383L20.8679 51.3219L20.8692 51.3231L21.0375 51.1383ZM22.6507 52.403L22.7907 52.1958L22.7902 52.1956L22.6507 52.403ZM24.4449 53.3947L24.5465 53.1663L24.5458 53.166L24.4449 53.3947ZM26.3898 54.0312L26.3365 54.2755L26.3369 54.2756L26.3898 54.0312ZM30.4538 54.0128L30.5088 54.2567L30.509 54.2566L30.4538 54.0128ZM32.3869 53.3612L32.2852 53.1328L32.2838 53.1334L32.3869 53.3612ZM35.7742 51.0981L35.9426 51.2828L35.9441 51.2815L35.7742 51.0981ZM38.4461 48.0074L38.2403 47.8656L38.24 47.866L38.4461 48.0074ZM40.4865 44.4578L40.2607 44.3504L40.2603 44.3514L40.4865 44.4578ZM43.0579 36.6835L42.8134 36.6315L42.8133 36.6317L43.0579 36.6835ZM43.6945 32.6229L43.4459 32.5963L43.4458 32.5979L43.6945 32.6229ZM43.919 28.5205L44.0958 28.3438L43.6734 27.9211L43.669 28.5186L43.919 28.5205ZM38.024 28.5238L38.2008 28.3471L37.7723 27.9186L37.774 28.5245L38.024 28.5238ZM37.9402 32.0869L37.6905 32.0745L37.6905 32.0749L37.9402 32.0869ZM37.6588 35.6382L37.4103 35.6106L37.4103 35.6108L37.6588 35.6382ZM36.3957 42.6537L36.1539 42.59L36.1536 42.5914L36.3957 42.6537ZM35.3202 46.0559L35.0862 45.9679L35.0859 45.9688L35.3202 46.0559ZM33.8176 49.2939L34.0345 49.4182L34.0354 49.4166L33.8176 49.2939ZM32.8359 50.7898L33.0337 50.9428L33.0364 50.9392L32.8359 50.7898ZM32.268 51.4817L32.083 51.3135L32.0803 51.3165L32.268 51.4817ZM32.1943 51.5654L32.3767 51.7366L32.382 51.7306L32.1943 51.5654ZM32.1172 51.6475L32.2968 51.8215L32.2995 51.8186L32.1172 51.6475ZM31.9631 51.81L32.1386 51.9882L32.1427 51.984L31.9631 51.81ZM31.2997 52.4114L31.459 52.6041L31.4603 52.603L31.2997 52.4114ZM30.9396 52.6777L30.8015 52.4692L30.7961 52.473L30.9396 52.6777ZM30.164 53.1317L30.0561 52.9061L30.0541 52.9071L30.164 53.1317ZM26.6913 53.1166L26.8028 52.8928L26.7991 52.8911L26.6913 53.1166ZM25.9207 52.666L26.0646 52.4615L26.0607 52.4589L25.9207 52.666ZM25.5622 52.398L25.406 52.5932L25.4074 52.5943L25.5622 52.398ZM25.2255 52.1065L25.3965 51.9241L25.3955 51.9232L25.2255 52.1065ZM23.0595 49.2839L22.8417 49.4067L22.8427 49.4085L23.0595 49.2839ZM21.5535 46.0525L21.7876 45.9649L21.7872 45.9638L21.5535 46.0525ZM20.4629 42.657L20.7047 42.5933L20.7044 42.5923L20.4629 42.657ZM19.6789 39.1727L19.9248 39.1277L19.9247 39.1268L19.6789 39.1727ZM19.3824 37.4138L19.6296 37.3766L19.6295 37.3758L19.3824 37.4138ZM19.1496 35.6465L19.398 35.619L19.3978 35.6168L19.1496 35.6465ZM18.7525 28.5238L19.0025 28.5259L19.0025 28.5242L18.7525 28.5238ZM19.1563 21.4045L18.908 21.3751L18.9078 21.3765L19.1563 21.4045ZM20.4696 14.3973L20.7112 14.4618L20.7113 14.4615L20.4696 14.3973ZM21.5602 11.0018L21.7939 11.0905L21.7943 11.0894L21.5602 11.0018ZM23.0645 7.77047L22.8473 7.64674L22.8468 7.64754L23.0645 7.77047ZM24.0361 6.27624L23.8353 6.12736L23.8352 6.12748L24.0361 6.27624ZM25.2255 4.94618L25.3955 5.12952L25.398 5.12715L25.2255 4.94618ZM25.919 4.38668L26.059 4.59387L26.0631 4.59096L25.919 4.38668ZM26.6896 3.93272L26.7975 4.15828L26.8009 4.1566L26.6896 3.93272ZM28.4251 3.52398L28.4251 3.27398L28.4244 3.27398L28.4251 3.52398ZM30.1623 3.92434L30.0524 4.14893L30.055 4.15014L30.1623 3.92434ZM30.9379 4.37495L30.7954 4.58037L30.7979 4.5821L30.9379 4.37495ZM31.6365 4.93278L31.464 5.11383L31.4665 5.1161L31.6365 4.93278ZM32.8309 6.26284L33.0317 6.11396L33.0314 6.11351L32.8309 6.26284ZM33.8075 7.75874L34.0255 7.63637L34.0247 7.63501L33.8075 7.75874ZM35.3051 10.9968L35.0707 11.0836L35.071 11.0845L35.3051 10.9968ZM36.3789 14.3973L36.1369 14.46L36.1372 14.4611L36.3789 14.3973ZM37.1428 17.88L36.8967 17.924L36.8968 17.9245L37.1428 17.88ZM37.4276 19.6405L37.1802 19.6764L37.1802 19.6765L37.4276 19.6405ZM37.828 23.1835L38.0771 23.1624L38.0771 23.1623L37.828 23.1835ZM37.9452 24.9625L37.6955 24.9744L37.6955 24.9745L37.9452 24.9625ZM38.0106 26.7432L38.2605 26.7382L38.2605 26.7382L38.0106 26.7432ZM38.0257 28.5255L37.8489 28.7023L38.2791 29.1325L38.2756 28.5241L38.0257 28.5255ZM38.0005 28.5238L37.7505 28.5238L37.7505 28.5828L37.7769 28.6356L38.0005 28.5238ZM37.8833 24.9641L38.1329 24.9507L38.1329 24.95L37.8833 24.9641ZM37.5801 21.4162L37.3317 21.445L37.3317 21.4451L37.5801 21.4162ZM36.2885 14.4191L36.0466 14.4823L36.0468 14.483L36.2885 14.4191ZM35.213 11.0303L34.9787 11.1175L34.979 11.1182L35.213 11.0303ZM33.7187 7.80732L33.9366 7.68477L33.9359 7.68352L33.7187 7.80732ZM32.7521 6.3198L32.9535 6.17161L32.9532 6.17116L32.7521 6.3198ZM31.5728 4.99978L31.4003 5.18077L31.4025 5.18283L31.5728 4.99978ZM30.886 4.44196L30.7408 4.64551L30.7434 4.64731L30.886 4.44196ZM30.1288 3.9947L30.0175 4.2186L30.0199 4.21972L30.1288 3.9947ZM28.4234 3.59099L28.4241 3.34099L28.4234 3.34099L28.4234 3.59099ZM26.7164 3.98465L26.8231 4.21078L26.8262 4.20924L26.7164 3.98465ZM25.9525 4.43023L26.0906 4.63878L26.097 4.63424L25.9525 4.43023ZM25.2607 4.98638L25.4306 5.16975L25.4332 5.16729L25.2607 4.98638ZM24.0746 6.30807L23.874 6.15897L23.8737 6.15931L24.0746 6.30807ZM23.1047 7.79727L22.8873 7.67377L22.8866 7.67514L23.1047 7.79727ZM21.6171 11.027L21.8515 11.1138L21.8517 11.1134L21.6171 11.027ZM20.5567 14.4225L20.7987 14.4853L20.799 14.4843L20.5567 14.4225ZM19.302 21.4229L19.0535 21.3953L19.0535 21.3954L19.302 21.4229ZM19.1278 23.1935L19.3769 23.2147L19.3769 23.214L19.1278 23.1935ZM19.0055 24.9692L19.2551 24.9826L19.2551 24.9826L19.0055 24.9692ZM18.9134 28.5272L18.6633 28.5286L18.6634 28.5309L18.9134 28.5272ZM19.3121 35.6298L19.0636 35.6577L19.0636 35.6577L19.3121 35.6298ZM20.5634 42.6269L20.8056 42.5647L20.8054 42.564L20.5634 42.6269ZM21.6221 46.0224L21.8567 45.936L21.8567 45.9358L21.6221 46.0224ZM23.1064 49.2521L22.888 49.3738L22.889 49.3756L23.1064 49.2521ZM24.0746 50.7446L23.8733 50.8929L23.8765 50.8971L24.0746 50.7446ZM24.6358 51.4331L24.8218 51.2661L24.8215 51.2657L24.6358 51.4331ZM24.7095 51.5152L24.5234 51.6823L24.529 51.6882L24.7095 51.5152ZM24.7866 51.5956L24.969 51.4246L24.9671 51.4226L24.7866 51.5956ZM24.939 51.7564L24.7623 51.9332L24.7637 51.9346L24.939 51.7564ZM25.259 52.0646L25.0924 52.251L25.094 52.2524L25.259 52.0646ZM25.594 52.3561L25.4304 52.5451L25.4318 52.5463L25.594 52.3561ZM25.9492 52.6208L26.0937 52.4167L26.0885 52.4132L25.9492 52.6208ZM26.7131 53.068L26.8229 52.8434L26.8209 52.8425L26.7131 53.068ZM30.1238 53.053L30.0142 52.8282L30.0125 52.8291L30.1238 53.053ZM30.8826 52.604L30.7413 52.3977L30.7381 52.4L30.8826 52.604ZM31.5661 52.0462L31.3951 51.8638L31.3936 51.8652L31.5661 52.0462ZM32.7404 50.7245L32.9418 50.8727L32.942 50.8724L32.7404 50.7245ZM33.7037 49.2353L33.9213 49.3583L33.9217 49.3576L33.7037 49.2353ZM35.1912 46.014L34.9571 45.9264L34.9567 45.9273L35.1912 46.014ZM37.3355 37.3987L37.5827 37.436L37.5828 37.4353L37.3355 37.3987ZM37.8883 32.0885L37.6388 32.0727L37.6387 32.0737L37.8883 32.0885ZM38.0022 28.5272L38.2522 28.5286L38.2525 28.4688L38.2258 28.4154L38.0022 28.5272ZM28.4262 56.1239C29.3279 56.1138 30.2308 56.0648 31.1297 55.9649L31.0745 55.468C30.1942 55.5658 29.308 55.614 28.4206 55.6239L28.4262 56.1239ZM31.1293 55.965C32.0256 55.8669 32.9168 55.7231 33.7997 55.5337L33.6948 55.0448C32.8287 55.2307 31.9543 55.3717 31.0749 55.4679L31.1293 55.965ZM33.7998 55.5337C35.5599 55.155 37.2776 54.6021 38.9309 53.8854L38.732 53.4266C37.1086 54.1304 35.4223 54.6731 33.6946 55.0449L33.7998 55.5337ZM38.931 53.8853C42.2276 52.4542 45.2319 50.4249 47.7901 47.8989L47.4388 47.5431C44.9246 50.0257 41.9719 52.0201 38.7319 53.4267L38.931 53.8853ZM47.7897 47.8993C49.0709 46.6401 50.2286 45.261 51.2477 43.784L50.8361 43.5C49.8349 44.9511 48.6977 46.3059 47.4392 47.5427L47.7897 47.8993ZM51.2478 43.7838C52.2693 42.3007 53.1369 40.7161 53.837 39.0572L53.3763 38.8628C52.6894 40.4905 51.8382 42.0451 50.836 43.5002L51.2478 43.7838ZM53.8371 39.057C55.2403 35.7232 55.9706 32.1426 55.9841 28.5248L55.4841 28.5229C55.4709 32.0747 54.7538 35.59 53.3762 38.863L53.8371 39.057ZM55.9841 28.5243C55.9858 27.622 55.9453 26.7211 55.8608 25.8219L55.3629 25.8687C55.4459 26.7518 55.4858 27.6366 55.4841 28.5234L55.9841 28.5243ZM55.8608 25.8219C55.7762 24.9222 55.6459 24.029 55.4666 23.1423L54.9765 23.2414C55.1523 24.1102 55.28 24.986 55.3629 25.8687L55.8608 25.8219ZM55.4668 23.1433C54.7634 19.5911 53.3567 16.2147 51.3277 13.2153L50.9136 13.4955C52.9051 16.4395 54.2859 19.7536 54.9763 23.2404L55.4668 23.1433ZM51.3276 13.2152C47.2383 7.17863 40.9295 3.00331 33.7771 1.5935L33.6804 2.08406C40.7036 3.4684 46.8984 7.56829 50.9137 13.4956L51.3276 13.2152ZM33.7776 1.5936C33.3351 1.50544 32.8937 1.43276 32.4495 1.36546L32.3746 1.85982C32.8149 1.92653 33.248 1.99791 33.6799 2.08397L33.7776 1.5936ZM32.4459 1.36493C32.2434 1.33732 32.0001 1.29538 31.7821 1.26897L31.722 1.76534C31.9463 1.79253 32.1385 1.82765 32.3783 1.86035L32.4459 1.36493ZM31.7821 1.26897C31.5606 1.24212 31.3503 1.21146 31.1223 1.1821L31.0584 1.678C31.2726 1.70559 31.5012 1.73858 31.722 1.76534L31.7821 1.26897ZM31.1223 1.1821C30.2293 1.0671 29.3296 0.997765 28.43 0.974091L28.4169 1.47392C29.2996 1.49715 30.1824 1.56518 31.0584 1.678L31.1223 1.1821ZM28.4272 0.974032C27.5246 0.960486 26.6202 0.999431 25.7207 1.0926L25.7722 1.58994C26.6518 1.49884 27.5365 1.46072 28.4197 1.47398L28.4272 0.974032ZM25.7212 1.09255C24.8229 1.1839 23.9311 1.32264 23.0477 1.51049L23.1517 1.99956C24.0171 1.81553 24.891 1.67955 25.7718 1.58998L25.7212 1.09255ZM23.048 1.51042C22.1674 1.69635 21.2967 1.92457 20.4361 2.19677L20.5869 2.6735C21.4316 2.40631 22.2864 2.18224 23.1513 1.99964L23.048 1.51042ZM20.4361 2.19677C19.5769 2.46853 18.7328 2.77409 17.9021 3.11515L18.092 3.57768C18.9096 3.24198 19.7407 2.94114 20.5869 2.6735L20.4361 2.19677ZM17.9013 3.11546C14.5647 4.49808 11.5289 6.51287 8.95958 9.04995L9.3109 9.40573C11.8342 6.91403 14.8157 4.93528 18.0927 3.57737L17.9013 3.11546ZM8.95941 9.05013C7.67631 10.3197 6.52166 11.7109 5.5107 13.2071L5.92499 13.487C6.91756 12.0181 8.05122 10.6521 9.31108 9.40556L8.95941 9.05013ZM5.51068 13.2071C3.48336 16.2082 2.07998 19.5864 1.38336 23.1421L1.87403 23.2382C2.55777 19.7483 3.93521 16.4326 5.92501 13.487L5.51068 13.2071ZM1.38333 23.1422C0.33863 28.4907 0.894792 34.0268 2.9825 39.0608L3.44436 38.8692C1.39433 33.9261 0.848217 28.49 1.87406 23.2381L1.38333 23.1422ZM2.9825 39.0608C5.07021 44.0948 8.59482 48.3986 13.1168 51.4379L13.3957 51.0229C8.95534 48.0384 5.49438 43.8124 3.44436 38.8692L2.9825 39.0608ZM13.1167 51.4378C14.6147 52.4455 16.209 53.301 17.8759 53.9941L18.0679 53.5324C16.4313 52.8519 14.8662 52.0121 13.3958 51.023L13.1167 51.4378ZM17.8763 53.9942C18.7093 54.3389 19.5581 54.645 20.4226 54.9055L20.5669 54.4268C19.7194 54.1713 18.8862 53.871 18.0675 53.5322L17.8763 53.9942ZM20.4235 54.9058C21.2883 55.163 22.168 55.3727 23.0542 55.5368L23.1452 55.0451C22.2757 54.8842 21.4133 54.6785 20.566 54.4265L20.4235 54.9058ZM23.0531 55.5366C23.9336 55.7036 24.8252 55.8384 25.716 55.9478L25.777 55.4516C24.8954 55.3432 24.0146 55.21 23.1463 55.0453L23.0531 55.5366ZM25.7137 55.9475C26.6125 56.0662 27.5164 56.1256 28.4239 56.1239L28.423 55.6239C27.538 55.6256 26.6562 55.5677 25.7792 55.4518L25.7137 55.9475ZM28.4258 55.6641C27.5309 55.6558 26.641 55.6374 25.7529 55.5726L25.7166 56.0713C26.6209 56.1372 27.5235 56.1557 28.4211 56.1641L28.4258 55.6641ZM25.7529 55.5726C24.8676 55.5081 23.9873 55.3856 23.1204 55.2053L23.0186 55.6949C23.9073 55.8797 24.8095 56.0052 25.7166 56.0713L25.7529 55.5726ZM23.1199 55.2052C22.2501 55.0263 21.3885 54.794 20.5358 54.5342L20.39 55.0125C21.2527 55.2753 22.1299 55.5121 23.0191 55.695L23.1199 55.2052ZM20.5358 54.5342C19.6854 54.2751 18.8454 53.9763 18.024 53.6361L17.8327 54.0981C18.6697 54.4447 19.525 54.7489 20.39 55.0125L20.5358 54.5342ZM18.0238 53.636C14.7238 52.2733 11.7243 50.2731 9.1962 47.7517L8.84311 48.1057C11.4176 50.6734 14.4723 52.7103 17.8329 54.0982L18.0238 53.636ZM9.1962 47.7517C6.66819 45.2304 4.66298 42.2343 3.29183 38.936L2.83014 39.128C4.22642 42.4867 6.26847 45.5379 8.84311 48.1057L9.1962 47.7517ZM3.29203 38.9365C2.61149 37.29 2.09532 35.5805 1.75344 33.8313L1.26272 33.9272C1.61102 35.7092 2.13682 37.4505 2.82994 39.1275L3.29203 38.9365ZM1.7535 33.8316C0.729245 28.5561 1.27871 23.0947 3.33057 18.1279L2.86845 17.9369C0.779233 22.9942 0.219723 28.5552 1.26266 33.9269L1.7535 33.8316ZM3.33053 18.128C4.6952 14.8293 6.68573 11.8262 9.19418 9.28626L8.83843 8.93491C6.28443 11.5209 4.25785 14.5785 2.8685 17.9368L3.33053 18.128ZM9.19412 9.28632C10.4474 8.01813 11.8218 6.87614 13.2991 5.87692L13.019 5.46276C11.5145 6.48041 10.1147 7.64342 8.83848 8.93486L9.19412 9.28632ZM13.2988 5.87713C14.0375 5.37912 14.7994 4.91775 15.5859 4.49461L15.349 4.05428C14.5475 4.48547 13.7715 4.95547 13.0193 5.46254L13.2988 5.87713ZM15.5865 4.49431C16.371 4.0697 17.1757 3.68813 17.9987 3.34797L17.8077 2.88588C16.969 3.23252 16.1487 3.62152 15.3485 4.05458L15.5865 4.49431ZM17.9987 3.34797C18.821 3.00813 19.6619 2.71454 20.5165 2.46397L20.3758 1.98416C19.505 2.23949 18.6472 2.5389 17.8077 2.88588L17.9987 3.34797ZM20.5159 2.46413C21.3721 2.21525 22.2385 2.0111 23.1151 1.84839L23.0239 1.35679C22.1315 1.52241 21.249 1.73034 20.3764 1.984L20.5159 2.46413ZM23.1151 1.84839C23.992 1.68565 24.8741 1.56437 25.7581 1.48129L25.7114 0.98348C24.813 1.06791 23.9161 1.1912 23.0239 1.35679L23.1151 1.84839ZM25.759 1.4812C26.6429 1.39497 27.5337 1.35831 28.4269 1.33994L28.4166 0.840048C27.5173 0.858537 26.6123 0.89558 25.7105 0.983564L25.759 1.4812ZM28.4269 1.33994C29.3201 1.32161 30.211 1.33004 31.0998 1.3979L31.1379 0.899351C30.2275 0.829845 29.3192 0.821524 28.4166 0.840047L28.4269 1.33994ZM31.1011 1.398C31.5439 1.42939 31.9852 1.47731 32.4235 1.54015L32.4945 1.04522C32.0449 0.98075 31.5917 0.931519 31.1365 0.899252L31.1011 1.398ZM32.4236 1.54017C32.8638 1.60305 33.3032 1.68095 33.7424 1.76747L33.8391 1.27689C33.3938 1.18919 32.9454 1.10963 32.4943 1.0452L32.4236 1.54017ZM33.742 1.76738C35.4947 2.11591 37.2075 2.63871 38.8539 3.32745L39.0468 2.86619C37.3697 2.16456 35.6249 1.63201 33.8395 1.27698L33.742 1.76738ZM38.8534 3.32725C43.8167 5.41542 48.0496 8.92777 51.0176 13.4228L51.4348 13.1473C48.4123 8.56974 44.1017 4.99288 39.0473 2.86638L38.8534 3.32725ZM51.0179 13.4232C52.9899 16.3962 54.3611 19.7277 55.0533 23.2286L55.5438 23.1316C54.839 19.5667 53.4427 16.1742 51.4345 13.1468L51.0179 13.4232ZM55.0534 23.2287C55.226 24.1001 55.3555 24.9799 55.4435 25.865L55.941 25.8155C55.8515 24.9149 55.7196 24.0191 55.5438 23.1315L55.0534 23.2287ZM55.4434 25.8645C55.5298 26.7516 55.5763 27.6385 55.5813 28.5286L56.0813 28.5258C56.0762 27.6201 56.0289 26.718 55.9411 25.816L55.4434 25.8645ZM55.5813 28.5281C55.5879 30.3094 55.4219 32.0859 55.0898 33.836L55.5811 33.9292C55.919 32.1482 56.0881 30.3398 56.0813 28.5262L55.5813 28.5281ZM55.0899 33.8356C54.7547 35.5865 54.2451 37.2994 53.5728 38.9494L54.0358 39.1381C54.7204 37.4579 55.2395 35.7133 55.581 33.9296L55.0899 33.8356ZM53.5729 38.9493C52.2259 42.2492 50.2584 45.307 47.7462 47.8606L48.1026 48.2112C50.6629 45.6087 52.6656 42.4952 54.0358 39.1382L53.5729 38.9493ZM47.7463 47.8604C46.4887 49.1363 45.1032 50.2778 43.6099 51.2683L43.8863 51.685C45.4084 50.6754 46.8205 49.5119 48.1024 48.2114L47.7463 47.8604ZM43.6101 51.2682C42.1184 52.2554 40.5289 53.0867 38.8665 53.747L39.051 54.2117C40.7457 53.5386 42.3658 52.6913 43.8861 51.6851L43.6101 51.2682ZM38.8667 53.7469C37.207 54.4041 35.4858 54.8937 33.7296 55.2108L33.8184 55.7028C35.607 55.3799 37.3601 54.8812 39.0508 54.2118L38.8667 53.7469ZM33.7302 55.2107C32.8521 55.367 31.9703 55.4882 31.0844 55.5628L31.1264 56.061C32.0297 55.9849 32.9269 55.8615 33.8178 55.7029L33.7302 55.2107ZM31.0844 55.5628C30.1979 55.6375 29.311 55.6691 28.422 55.6624L28.4182 56.1624C29.3216 56.1692 30.2238 56.1371 31.1264 56.061L31.0844 55.5628ZM28.1701 55.9124V55.9141H28.6701V55.9124H28.1701ZM28.4201 56.1641H28.4234V55.6641H28.4201V56.1641ZM49.6293 28.5252C49.6377 30.092 49.5412 31.6571 49.3399 33.2123L49.8358 33.2765C50.0399 31.6991 50.1378 30.1116 50.1293 28.5225L49.6293 28.5252ZM49.34 33.2118C49.1356 34.7673 48.8148 36.3046 48.381 37.812L48.8615 37.9503C49.3022 36.419 49.628 34.8573 49.8357 33.277L49.34 33.2118ZM48.381 37.8122C47.9476 39.3214 47.3881 40.7906 46.7058 42.205L47.1562 42.4222C47.8509 40.9822 48.4204 39.4864 48.8616 37.9502L48.381 37.8122ZM46.7056 42.2054C46.0254 43.6222 45.2174 44.9726 44.2901 46.2417L44.6938 46.5367C45.6392 45.2429 46.4629 43.8662 47.1564 42.4218L46.7056 42.2054ZM44.2901 46.2417C43.3635 47.5098 42.3125 48.6817 41.1538 49.7409L41.4911 50.11C42.6743 49.0284 43.7475 47.8317 44.6938 46.5367L44.2901 46.2417ZM41.1538 49.7409C39.9964 50.7989 38.7266 51.7243 37.3657 52.5008L37.6135 52.9351C39.0066 52.1402 40.3065 51.1929 41.4911 50.11L41.1538 49.7409ZM37.3659 52.5007C36.6863 52.8876 35.9852 53.2315 35.2626 53.5324L35.4549 53.994C36.1964 53.6852 36.9159 53.3322 37.6133 52.9352L37.3659 52.5007ZM35.2629 53.5323C34.5427 53.8313 33.8025 54.0824 33.0489 54.2857L33.1791 54.7685C33.9532 54.5597 34.714 54.3016 35.4546 53.9941L35.2629 53.5323ZM33.0492 54.2856C31.541 54.6903 29.9866 54.8935 28.4256 54.8902L28.4246 55.3902C30.0297 55.3936 31.628 55.1847 33.1788 54.7685L33.0492 54.2856ZM28.4267 54.8902C26.8672 54.8803 25.3159 54.6655 23.8125 54.2525L23.6801 54.7347C25.2255 55.1592 26.8202 55.38 28.4235 55.3902L28.4267 54.8902ZM23.8133 54.2527C22.3107 53.8345 20.8659 53.2295 19.5137 52.4526L19.2646 52.8861C20.653 53.6838 22.1364 54.305 23.6793 54.7344L23.8133 54.2527ZM19.5139 52.4527C18.1597 51.673 16.8964 50.7442 15.7474 49.6863L15.4087 50.0541C16.5848 51.137 17.8779 52.0877 19.2644 52.886L19.5139 52.4527ZM15.7472 49.6861C14.595 48.6268 13.5489 47.4564 12.6255 46.1931L12.2218 46.4882C13.1646 47.7779 14.2325 48.9727 15.4088 50.0542L15.7472 49.6861ZM12.6253 46.193C11.6991 44.9281 10.8841 43.5853 10.1903 42.1795L9.74195 42.4008C10.4486 43.8327 11.2787 45.2003 12.2219 46.4884L12.6253 46.193ZM10.1902 42.1793C9.49436 40.7727 8.91474 39.3112 8.45634 37.8099L7.97813 37.9559C8.44444 39.4831 9.0341 40.9699 9.74206 42.401L10.1902 42.1793ZM8.45634 37.8099C7.99768 36.3076 7.65366 34.7721 7.42597 33.2182L6.93126 33.2907C7.16257 34.8693 7.51208 36.4294 7.97813 37.9559L8.45634 37.8099ZM7.42586 33.2175C7.30964 32.4405 7.2268 31.6613 7.18706 30.8798L6.68771 30.9052C6.72838 31.705 6.81306 32.5005 6.93136 33.2914L7.42586 33.2175ZM7.18706 30.8798C7.14721 30.096 7.14051 29.3111 7.15218 28.5259L6.65223 28.5184C6.64045 29.3112 6.64715 30.1076 6.68771 30.9052L7.18706 30.8798ZM7.15219 28.5248C7.16884 26.9552 7.28036 25.3871 7.48347 23.8306L6.98767 23.7659C6.78203 25.3419 6.66908 26.9298 6.65222 28.5195L7.15219 28.5248ZM7.48318 23.8327C7.59128 23.0561 7.72596 22.2847 7.88888 21.5167L7.39976 21.4129C7.23434 22.1927 7.09764 22.9758 6.98796 23.7638L7.48318 23.8327ZM7.88885 21.5168C8.05152 20.7516 8.24735 19.9932 8.47797 19.2433L8.00006 19.0963C7.76497 19.8608 7.56545 20.6335 7.39978 21.4128L7.88885 21.5168ZM8.47819 19.2426C8.93497 17.7411 9.51132 16.2795 10.2039 14.8712L9.7552 14.6505C9.05065 16.0832 8.46441 17.5699 7.99983 19.0971L8.47819 19.2426ZM10.2038 14.8713C10.896 13.4655 11.7093 12.1227 12.6354 10.8581L12.232 10.5626C11.2886 11.8509 10.4602 13.2185 9.75525 14.6504L10.2038 14.8713ZM12.6355 10.8579C13.559 9.59453 14.6036 8.42402 15.7542 7.36293L15.4153 6.99536C14.2407 8.07845 13.1745 9.27324 12.2319 10.5628L12.6355 10.8579ZM15.7544 7.36281C16.9015 6.30345 18.1646 5.37637 19.5173 4.59656L19.2676 4.16339C17.883 4.96156 16.5898 5.91065 15.4151 6.99548L15.7544 7.36281ZM19.5172 4.59661C20.1921 4.20793 20.8917 3.85898 21.6077 3.55472L21.4121 3.09455C20.6774 3.40674 19.9598 3.7647 19.2677 4.16334L19.5172 4.59661ZM21.607 3.55499C22.3241 3.25263 23.061 2.99658 23.8125 2.79011L23.6801 2.30797C22.9072 2.5203 22.1497 2.78354 21.4128 3.09428L21.607 3.55499ZM23.8136 2.78981C26.8322 1.946 30.0227 1.93773 33.0464 2.76341L33.1782 2.28107C30.0673 1.43161 26.7848 1.44008 23.679 2.30827L23.8136 2.78981ZM33.0462 2.76334C34.5531 3.17641 35.9991 3.78286 37.3528 4.56464L37.6029 4.13166C36.2126 3.32875 34.727 2.70564 33.1784 2.28113L33.0462 2.76334ZM37.3524 4.56439C38.705 5.34908 39.9665 6.28276 41.1121 7.34721L41.4524 6.98092C40.2795 5.89114 38.988 4.93526 37.6033 4.13191L37.3524 4.56439ZM41.1119 7.34709C42.2574 8.41298 43.2953 9.59007 44.2122 10.8585L44.6174 10.5656C43.6816 9.271 42.6221 8.06938 41.4525 6.98104L41.1119 7.34709ZM44.2124 10.8587C46.0491 13.3938 47.4175 16.2577 48.3147 19.2549L48.7937 19.1115C47.8817 16.0649 46.4895 13.1495 44.6173 10.5653L44.2124 10.8587ZM48.3148 19.2551C48.5408 20.0077 48.7353 20.7624 48.9067 21.5278L49.3946 21.4185C49.2209 20.6428 49.0234 19.8764 48.7937 19.1113L48.3148 19.2551ZM48.9065 21.5273C49.0764 22.2933 49.2244 23.0631 49.3406 23.8371L49.8351 23.7628C49.7168 22.9755 49.5666 22.1941 49.3947 21.419L48.9065 21.5273ZM49.3401 23.8332L49.4188 24.4195L49.9144 24.3529L49.8356 23.7666L49.3401 23.8332ZM49.4186 24.418C49.4434 24.6112 49.463 24.803 49.4851 25.0018L49.9821 24.9466C49.9606 24.7534 49.94 24.5532 49.9146 24.3544L49.4186 24.418ZM49.4851 25.0018C49.5063 25.1928 49.5211 25.3862 49.5363 25.583L50.0348 25.5447C50.0198 25.3496 50.0044 25.1475 49.9821 24.9466L49.4851 25.0018ZM49.5361 25.5811C49.5437 25.6916 49.5526 25.773 49.5576 25.8714L50.057 25.846C50.0519 25.7467 50.0407 25.6304 50.0349 25.5466L49.5361 25.5811ZM49.5576 25.8714L49.5727 26.1663L50.072 26.1407L50.057 25.8459L49.5576 25.8714ZM49.5727 26.1667C49.6143 26.9515 49.626 27.7326 49.6327 28.5209L50.1327 28.5167C50.126 27.7271 50.1142 26.9368 50.072 26.1403L49.5727 26.1667ZM49.6747 28.3801L49.6714 28.3851L50.0873 28.6626L50.0906 28.6576L49.6747 28.3801ZM50.0941 28.5249C50.0975 27.7278 50.0534 26.9322 49.9809 26.1424L49.483 26.1881C49.5545 26.9662 49.5975 27.7453 49.5942 28.5228L50.0941 28.5249ZM49.9808 26.1418C49.9627 25.9487 49.9455 25.7477 49.9215 25.5475L49.4251 25.607C49.448 25.7988 49.4643 25.9898 49.483 26.1886L49.9808 26.1418ZM49.9215 25.5475C49.901 25.3764 49.8834 25.146 49.8573 24.9568L49.362 25.0251C49.3895 25.2245 49.3986 25.3861 49.4251 25.607L49.9215 25.5475ZM49.8576 24.9589C49.8453 24.8643 49.8347 24.7689 49.8237 24.6708C49.8129 24.5734 49.8018 24.4733 49.7889 24.3729L49.293 24.4364C49.3052 24.532 49.3159 24.6279 49.3268 24.7261C49.3377 24.8236 49.3488 24.9233 49.3617 25.023L49.8576 24.9589ZM49.7887 24.3712L49.71 23.7882L49.2145 23.8552L49.2932 24.4381L49.7887 24.3712ZM49.7098 23.7871C49.6002 23.0029 49.4651 22.2208 49.2943 21.4445L48.806 21.552C48.9735 22.3135 49.1065 23.0826 49.2146 23.8563L49.7098 23.7871ZM49.2942 21.4444C49.1236 20.6706 48.9209 19.9022 48.6913 19.1443L48.2128 19.2892C48.4389 20.0356 48.6382 20.7915 48.806 21.5521L49.2942 21.4444ZM48.6913 19.1442C47.7709 16.1093 46.3752 13.2109 44.5064 10.6436L44.1022 10.9379C45.9355 13.4564 47.3073 16.3036 48.2128 19.2893L48.6913 19.1442ZM44.5067 10.644C43.5741 9.35767 42.5179 8.16618 41.3535 7.08474L41.0133 7.45111C42.1539 8.51051 43.1884 9.67761 44.1019 10.9375L44.5067 10.644ZM41.3534 7.08461C40.1872 6.00321 38.904 5.05566 37.5275 4.26065L37.2774 4.69362C38.6215 5.46989 39.8745 6.39516 41.0134 7.45124L41.3534 7.08461ZM37.5273 4.26053C36.8384 3.86346 36.1258 3.50893 35.3949 3.1969L35.1986 3.65675C35.9117 3.96116 36.6063 4.30684 37.2776 4.69374L37.5273 4.26053ZM35.3943 3.19662C34.6604 2.88578 33.9081 2.62424 33.1422 2.41198L33.0087 2.89382C33.7539 3.10035 34.4857 3.35476 35.1992 3.65702L35.3943 3.19662ZM33.1428 2.41213C30.0554 1.54899 26.7913 1.53879 23.6987 2.38497L23.8307 2.86724C26.8358 2.04498 30.0078 2.05486 33.0081 2.89367L33.1428 2.41213ZM23.6987 2.38497C22.9291 2.59562 22.175 2.8572 21.4413 3.16628L21.6354 3.62705C22.3491 3.32638 23.0826 3.07202 23.8307 2.86723L23.6987 2.38497ZM21.4411 3.16639C20.7062 3.47695 19.9934 3.83166 19.3026 4.23048L19.5526 4.66349C20.2255 4.27499 20.9198 3.92948 21.6357 3.62694L21.4411 3.16639ZM19.302 4.23084C17.9256 5.03091 16.6424 5.98353 15.4779 7.07006L15.8189 7.43564C16.9561 6.37464 18.2092 5.44439 19.5533 4.66312L19.302 4.23084ZM15.4774 7.07044C14.3179 8.15713 13.2685 9.35549 12.3427 10.6486L12.7492 10.9396C13.656 9.6731 14.6838 8.49946 15.8194 7.43526L15.4774 7.07044ZM12.3426 10.6486C11.4196 11.9385 10.6098 13.3062 9.92335 14.7364L10.3741 14.9528C11.048 13.5487 11.843 12.206 12.7492 10.9396L12.3426 10.6486ZM9.9236 14.7359C9.23428 16.1635 8.66157 17.6434 8.20883 19.1621L8.68799 19.3049C9.13316 17.8117 9.69623 16.3567 10.3739 14.9533L9.9236 14.7359ZM8.209 19.1615C7.98116 19.9192 7.78032 20.6838 7.60649 21.455L8.09425 21.565C8.2655 20.8052 8.46336 20.052 8.68782 19.3055L8.209 19.1615ZM7.60657 21.4546C7.43109 22.2274 7.28254 23.0038 7.16267 23.7872L7.65691 23.8629C7.77492 23.0917 7.9212 22.327 8.09416 21.5654L7.60657 21.4546ZM7.16271 23.787C6.92108 25.3549 6.8079 26.9397 6.82141 28.5243L7.32139 28.52C7.3081 26.9621 7.41939 25.4042 7.65687 23.8631L7.16271 23.787ZM6.82144 28.5264C6.83498 29.32 6.8874 30.1121 6.9581 30.8965L7.45608 30.8516C7.38607 30.0748 7.33463 29.2956 7.32137 28.5179L6.82144 28.5264ZM6.95805 30.896C7.02697 31.6793 7.10952 32.4646 7.22091 33.2478L7.71593 33.1773C7.6062 32.406 7.52458 31.6301 7.45613 30.8521L6.95805 30.896ZM7.22096 33.2481C7.44547 34.8128 7.7831 36.3609 8.23391 37.8771L8.71317 37.7346C8.26942 36.2421 7.93698 34.718 7.71589 33.177L7.22096 33.2481ZM8.23393 37.8771C9.13566 40.9064 10.5042 43.8117 12.3546 46.3893L12.7608 46.0977C10.9458 43.5695 9.60053 40.7156 8.71315 37.7345L8.23393 37.8771ZM12.3544 46.389C13.2785 47.6803 14.3261 48.8786 15.4839 49.9669L15.8263 49.6026C14.6924 48.5367 13.6662 47.3629 12.761 46.098L12.3544 46.389ZM15.4843 49.9673C16.6471 51.0555 17.9287 52.0099 19.3036 52.81L19.5551 52.3779C18.2128 51.5967 16.9615 50.6649 15.8259 49.6022L15.4843 49.9673ZM19.3041 52.8103C19.993 53.2091 20.7057 53.5654 21.4387 53.8776L21.6347 53.4176C20.9203 53.1134 20.2259 52.7662 19.5545 52.3776L19.3041 52.8103ZM21.4396 53.878C22.9104 54.4979 24.4562 54.9226 26.0379 55.1367L26.105 54.6412C24.5675 54.4331 23.0644 54.0202 21.6338 53.4173L21.4396 53.878ZM26.0385 55.1367C28.416 55.4528 30.8325 55.2778 33.1401 54.6253L33.0041 54.1441C30.7619 54.7781 28.4141 54.9482 26.1044 54.6411L26.0385 55.1367ZM33.1399 54.6253C33.9059 54.4096 34.6548 54.1447 35.3865 53.8323L35.1902 53.3725C34.478 53.6766 33.7493 53.9343 33.0043 54.1441L33.1399 54.6253ZM35.3872 53.8321C36.1167 53.5182 36.8278 53.1601 37.5135 52.7596L37.2613 52.3278C36.5935 52.718 35.9007 53.0668 35.1896 53.3728L35.3872 53.8321ZM37.5139 52.7594C38.8836 51.9559 40.1585 51.0014 41.3131 49.9113L40.9699 49.5477C39.8429 50.6117 38.5983 51.5435 37.2609 52.3281L37.5139 52.7594ZM41.3133 49.9111C42.464 48.823 43.5066 47.6282 44.4273 46.3403L44.0205 46.0495C43.1186 47.3112 42.0973 48.4817 40.9698 49.5478L41.3133 49.9111ZM44.4267 46.3411C46.2746 43.7765 47.6713 40.8977 48.6235 37.8828L48.1467 37.7322C47.2092 40.7009 45.8352 43.531 44.021 46.0488L44.4267 46.3411ZM48.6234 37.8828C49.5808 34.8536 50.0756 31.6978 50.0925 28.5218L49.5925 28.5191C49.5759 31.645 49.0889 34.7509 48.1467 37.7321L48.6234 37.8828ZM49.6188 28.6322L49.6205 28.6356L50.0678 28.4121L50.0661 28.4087L49.6188 28.6322ZM43.7025 28.5244C43.7042 29.208 43.6925 29.8897 43.6658 30.5728L44.1655 30.5923C44.1924 29.9019 44.2042 29.2133 44.2025 28.5232L43.7025 28.5244ZM43.6658 30.5728C43.6392 31.2545 43.591 31.9338 43.5325 32.6167L44.0307 32.6593C44.0895 31.9719 44.1384 31.2843 44.1655 30.5923L43.6658 30.5728ZM43.5325 32.6167C43.4743 33.2973 43.3978 33.9744 43.3013 34.6496L43.7963 34.7204C43.8941 34.0354 43.9717 33.3489 44.0307 32.6593L43.5325 32.6167ZM43.3013 34.6496C43.2044 35.3276 43.0979 36.0032 42.9683 36.671L43.4592 36.7663C43.5909 36.0872 43.6988 35.4027 43.7963 34.7204L43.3013 34.6496ZM42.9683 36.6712C42.4507 39.3522 41.6375 41.9833 40.4635 44.4509L40.915 44.6657C42.1096 42.1548 42.9348 39.4824 43.4592 36.766L42.9683 36.6712ZM40.4634 44.4511C39.878 45.6848 39.1915 46.8653 38.4073 47.9827L38.8166 48.27C39.6171 47.1293 40.3178 45.9244 40.9151 44.6655L40.4634 44.4511ZM38.407 47.9832C37.6269 49.1005 36.7262 50.1268 35.7197 51.0439L36.0565 51.4135C37.0904 50.4713 38.0157 49.417 38.8169 48.2695L38.407 47.9832ZM35.7215 51.0423C34.7102 51.9464 33.5798 52.7224 32.3412 53.2591L32.5399 53.7179C33.8375 53.1557 35.0123 52.347 36.0547 51.4151L35.7215 51.0423ZM32.3403 53.2595C31.724 53.5292 31.0816 53.7368 30.4243 53.879L30.5301 54.3677C31.2197 54.2185 31.894 54.0006 32.5408 53.7175L32.3403 53.2595ZM30.4256 53.8788C29.7678 54.0175 29.0968 54.0861 28.424 54.0844L28.4228 54.5844C29.1304 54.5862 29.8364 54.514 30.5288 54.368L30.4256 53.8788ZM28.4259 54.0845C27.0782 54.0714 25.7484 53.7806 24.5182 53.2317L24.3145 53.6883C25.6072 54.2651 27.0046 54.5707 28.421 54.5844L28.4259 54.0845ZM24.5181 53.2316C23.9028 52.9576 23.3108 52.6313 22.7535 52.256L22.4742 52.6707C23.0561 53.0626 23.6736 53.4029 24.3147 53.6884L24.5181 53.2316ZM22.7528 52.2555C22.1916 51.8802 21.6566 51.4638 21.1547 51.0112L20.8198 51.3826C21.3397 51.8513 21.8937 52.2825 22.4749 52.6711L22.7528 52.2555ZM21.1558 51.0122C20.1527 50.0968 19.2554 49.0723 18.4804 47.9569L18.0698 48.2422C18.8661 49.3883 19.7881 50.441 20.8187 51.3816L21.1558 51.0122ZM18.4797 47.9559C17.6969 46.8414 17.0071 45.6641 16.4201 44.4355L15.9689 44.651C16.568 45.905 17.2719 47.1063 18.0705 48.2433L18.4797 47.9559ZM16.4198 44.4349C15.237 41.9746 14.3954 39.3545 13.8462 36.6784L13.3564 36.7789C13.9128 39.4902 14.7665 42.15 15.9692 44.6516L16.4198 44.4349ZM13.8461 36.6781C13.7082 36.01 13.5917 35.3359 13.4883 34.659L12.994 34.7345C13.0984 35.4177 13.2164 36.1006 13.3565 36.7792L13.8461 36.6781ZM13.4883 34.659C13.3851 33.9834 13.3002 33.3044 13.2337 32.6237L12.736 32.6724C12.8035 33.362 12.8895 34.0499 12.994 34.7345L13.4883 34.659ZM13.2337 32.6237C13.1669 31.9416 13.1138 31.2621 13.0906 30.5808L12.5909 30.5978C12.6146 31.2934 12.6687 31.9842 12.736 32.6724L13.2337 32.6237ZM13.0906 30.5807C13.0673 29.8988 13.064 29.2143 13.0723 28.5285L12.5724 28.5225C12.564 29.2137 12.5673 29.9062 12.5909 30.5978L13.0906 30.5807ZM13.0723 28.5279C13.079 27.844 13.0974 27.1587 13.1307 26.4756L12.6313 26.4512C12.5976 27.1417 12.5791 27.8334 12.5724 28.5231L13.0723 28.5279ZM13.1307 26.4756C13.164 25.792 13.2107 25.1106 13.274 24.4295L12.7761 24.3832C12.7121 25.0723 12.6649 25.7612 12.6313 26.4512L13.1307 26.4756ZM13.274 24.4288C13.3972 23.0677 13.5952 21.7131 13.8648 20.3733L13.3747 20.2747C13.1015 21.6319 12.9009 23.0044 12.7761 24.3838L13.274 24.4288ZM13.8647 20.3739C14.1376 19.0346 14.4853 17.7136 14.9062 16.4142L14.4306 16.2601C14.0039 17.5773 13.6514 18.9164 13.3748 20.2741L13.8647 20.3739ZM14.9061 16.4148C15.3298 15.1169 15.8384 13.849 16.4283 12.6193L15.9775 12.403C15.378 13.6525 14.8613 14.9408 14.4308 16.2596L14.9061 16.4148ZM16.4283 12.6191C17.0171 11.3902 17.7054 10.2127 18.4866 9.09647L18.077 8.80978C17.2802 9.94831 16.578 11.1495 15.9774 12.4031L16.4283 12.6191ZM18.487 9.09592C19.2621 7.98212 20.1594 6.95752 21.161 6.04197L20.8236 5.67294C19.7948 6.61345 18.8729 7.66603 18.0766 8.81033L18.487 9.09592ZM21.1597 6.04315C22.1644 5.13745 23.2865 4.35972 24.5189 3.81639L24.3172 3.35888C23.0267 3.92785 21.8606 4.73815 20.8249 5.67177L21.1597 6.04315ZM24.52 3.81589C25.1348 3.54121 25.7738 3.32879 26.4288 3.18342L26.3205 2.6953C25.632 2.8481 24.961 3.07122 24.3161 3.35938L24.52 3.81589ZM26.4292 3.18335C27.7439 2.88975 29.1077 2.88646 30.4242 3.17195L30.5302 2.68331C29.143 2.3825 27.7059 2.38592 26.3202 2.69537L26.4292 3.18335ZM30.4239 3.17188C31.0826 3.31571 31.7232 3.52489 32.3393 3.79779L32.5418 3.34063C31.8948 3.05403 31.2221 2.83438 30.5306 2.68339L30.4239 3.17188ZM32.3402 3.79817C33.576 4.33994 34.7031 5.11606 35.7108 6.02317L36.0453 5.65154C35.006 4.71599 33.8347 3.90742 32.5409 3.34024L32.3402 3.79817ZM35.7087 6.02128C36.7086 6.94183 37.6044 7.97148 38.3779 9.08873L38.789 8.80412C37.9946 7.65657 37.0745 6.59899 36.0474 5.65343L35.7087 6.02128ZM38.378 9.08887C39.1541 10.2082 39.8358 11.3906 40.418 12.6214L40.87 12.4076C40.2762 11.1524 39.5808 9.94611 38.7889 8.80397L38.378 9.08887ZM40.4181 12.6216C41.5873 15.0862 42.4024 17.7113 42.9402 20.3867L43.4304 20.2881C42.8859 17.5796 42.0593 14.9146 40.8699 12.4073L40.4181 12.6216ZM42.9402 20.3868C43.0748 21.0549 43.188 21.729 43.2881 22.4043L43.7827 22.331C43.6817 21.6495 43.5671 20.9667 43.4303 20.288L42.9402 20.3868ZM43.2881 22.4043C43.388 23.0791 43.4729 23.7565 43.5378 24.4368L44.0355 24.3893C43.9697 23.6993 43.8837 23.0132 43.7827 22.331L43.2881 22.4043ZM43.5378 24.4368C43.6027 25.1158 43.6492 25.7958 43.6725 26.477L44.1722 26.4599C44.1485 25.7674 44.1013 25.0771 44.0355 24.3892L43.5378 24.4368ZM43.6725 26.4763C43.6941 27.1598 43.7008 27.839 43.7059 28.5257L44.2058 28.522C44.2008 27.8351 44.1941 27.1506 44.1722 26.4605L43.6725 26.4763ZM43.9558 28.2738H43.9525V28.7738H43.9558V28.2738ZM44.1723 28.5238C44.1723 27.1401 44.0676 25.7623 43.9435 24.3954L43.4455 24.4407C43.5694 25.8043 43.6723 27.1637 43.6723 28.5238L44.1723 28.5238ZM43.9434 24.3948C43.8153 23.0206 43.6129 21.6549 43.3381 20.3027L42.8481 20.4023C43.1194 21.737 43.3191 23.085 43.4456 24.4413L43.9434 24.3948ZM43.3381 20.3026C42.7885 17.6038 41.9535 14.949 40.7641 12.4538L40.3128 12.669C41.4821 15.1221 42.3055 17.7373 42.8481 20.4024L43.3381 20.3026ZM40.7644 12.4544C40.1722 11.2041 39.4784 10.0043 38.6864 8.86873L38.2763 9.15477C39.0522 10.2672 39.732 11.4428 40.3125 12.6684L40.7644 12.4544ZM38.6866 8.86915C37.8956 7.73014 36.9822 6.6809 35.9582 5.74188L35.6203 6.11039C36.6166 7.02409 37.5057 8.04532 38.276 9.15436L38.6866 8.86915ZM35.9568 5.74054C34.9279 4.81203 33.7718 4.00671 32.4913 3.44104L32.2893 3.8984C33.5115 4.43832 34.6237 5.21099 35.6218 6.11173L35.9568 5.74054ZM32.4922 3.44142C31.8536 3.15647 31.1878 2.93684 30.505 2.78417L30.3959 3.27211C31.0465 3.41761 31.6807 3.62682 32.2884 3.89802L32.4922 3.44142ZM30.5051 2.78419C29.131 2.47636 27.7088 2.47295 26.3333 2.77212L26.4395 3.2607C27.7443 2.97693 29.0929 2.98022 30.3958 3.27209L30.5051 2.78419ZM26.3331 2.77215C25.6487 2.92139 24.981 3.13761 24.3389 3.42089L24.5407 3.87835C25.1517 3.60883 25.7873 3.40291 26.4397 3.26067L26.3331 2.77215ZM24.3392 3.42077C23.0568 3.98479 21.8975 4.79176 20.8641 5.71638L21.1975 6.089C22.2011 5.19106 23.3167 4.41669 24.5405 3.87846L24.3392 3.42077ZM20.8612 5.71902C19.8409 6.66123 18.9274 7.71385 18.1395 8.85826L18.5514 9.14179C19.3181 8.02811 20.2072 7.00356 21.2004 6.08636L20.8612 5.71902ZM18.1398 8.85791C17.3527 9.99699 16.664 11.2019 16.0786 12.4556L16.5316 12.6672C17.1054 11.4383 17.7803 10.2578 18.5511 9.14214L18.1398 8.85791ZM16.0786 12.4556C15.4943 13.7067 14.9928 14.9934 14.5774 16.3105L15.0543 16.4609C15.463 15.1648 15.9566 13.8986 16.5316 12.6672L16.0786 12.4556ZM14.5775 16.3101C14.1609 17.6225 13.8202 18.9583 13.5537 20.3091L14.0443 20.4059C14.3072 19.0731 14.6432 17.7555 15.0541 16.4614L14.5775 16.3101ZM13.5537 20.3091C13.0215 23.0054 12.7263 25.7645 12.7466 28.524L13.2466 28.5203C13.2266 25.7987 13.5177 23.0734 14.0443 20.4059L13.5537 20.3091ZM12.7466 28.5264C12.7702 29.9043 12.8578 31.2759 12.9804 32.6419L13.4784 32.5972C13.3565 31.2395 13.2699 29.8805 13.2465 28.5179L12.7466 28.5264ZM12.9804 32.6422C13.0429 33.3289 13.1255 34.0116 13.2232 34.6952L13.7181 34.6245C13.6215 33.9479 13.5399 33.2738 13.4784 32.5969L12.9804 32.6422ZM13.2232 34.6952C13.3209 35.3796 13.4356 36.0559 13.5706 36.7308L14.0609 36.6327C13.9278 35.9675 13.8147 35.3003 13.7181 34.6245L13.2232 34.6952ZM13.5705 36.7301C13.8369 38.0826 14.1776 39.4183 14.5925 40.7322L15.0693 40.5816C14.66 39.2856 14.3239 37.9679 14.061 36.6335L13.5705 36.7301ZM14.5925 40.7322C15.0079 42.0475 15.5094 43.3359 16.0937 44.5855L16.5466 44.3737C15.9717 43.1441 15.4781 41.8762 15.0693 40.5816L14.5925 40.7322ZM16.0935 44.5851C16.6774 45.8391 17.3661 47.0422 18.1495 48.1825L18.5616 47.8994C17.7937 46.7816 17.1188 45.6026 16.5468 44.374L16.0935 44.5851ZM18.1496 48.1827C18.9373 49.3268 19.8473 50.3795 20.8679 51.3219L21.2071 50.9546C20.2141 50.0376 19.3283 49.0131 18.5614 47.8992L18.1496 48.1827ZM20.8692 51.3231C21.3843 51.7922 21.9334 52.2218 22.5112 52.6105L22.7902 52.1956C22.2323 51.8203 21.7025 51.4057 21.2058 50.9534L20.8692 51.3231ZM22.5108 52.6102C23.0909 53.0021 23.7037 53.341 24.3439 53.6234L24.5458 53.166C23.9329 52.8956 23.3463 52.5712 22.7907 52.1958L22.5108 52.6102ZM24.3432 53.6231C24.9838 53.9082 25.6517 54.1262 26.3365 54.2755L26.443 53.787C25.791 53.6448 25.1556 53.4374 24.5465 53.1663L24.3432 53.6231ZM26.3369 54.2756C27.7127 54.5731 29.1365 54.5662 30.5088 54.2567L30.3988 53.7689C29.0974 54.0625 27.7471 54.069 26.4426 53.7869L26.3369 54.2756ZM30.509 54.2566C31.1911 54.102 31.8537 53.8771 32.4901 53.5889L32.2838 53.1334C31.6772 53.4081 31.0466 53.6221 30.3985 53.769L30.509 54.2566ZM32.4887 53.5895C33.7655 53.0206 34.9199 52.2153 35.9426 51.2828L35.6058 50.9133C34.6149 51.8168 33.5045 52.5895 32.2852 53.1328L32.4887 53.5895ZM35.9441 51.2815C36.9593 50.341 37.8694 49.29 38.6523 48.1489L38.24 47.866C37.4783 48.9762 36.5926 49.9991 35.6043 50.9147L35.9441 51.2815ZM38.652 48.1493C39.4353 47.0124 40.1256 45.8129 40.7128 44.5642L40.2603 44.3514C39.6849 45.5752 39.0082 46.751 38.2403 47.8656L38.652 48.1493ZM40.7123 44.5652C41.8964 42.0754 42.733 39.4295 43.3025 36.7352L42.8133 36.6317C42.2505 39.2945 41.4252 41.9019 40.2607 44.3504L40.7123 44.5652ZM43.3025 36.7354C43.446 36.0602 43.5673 35.3841 43.6751 34.7023L43.1812 34.6242C43.0745 35.2992 42.9547 35.9666 42.8134 36.6315L43.3025 36.7354ZM43.6751 34.7023C43.7829 34.0199 43.874 33.3367 43.9433 32.6479L43.4458 32.5979C43.3776 33.276 43.2878 33.9497 43.1812 34.6242L43.6751 34.7023ZM43.9431 32.6495C44.0898 31.2783 44.1589 29.9013 44.169 28.5223L43.669 28.5186C43.659 29.8835 43.5907 31.2437 43.4459 32.5963L43.9431 32.6495ZM43.7422 28.6972L43.7455 28.7006L44.0992 28.3471L44.0958 28.3438L43.7422 28.6972ZM37.774 28.5245C37.7773 29.7077 37.7489 30.8911 37.6905 32.0745L38.1899 32.0992C38.2488 30.9073 38.2773 29.7153 38.274 28.5231L37.774 28.5245ZM37.6905 32.0749C37.6622 32.6651 37.6238 33.2555 37.5771 33.8462L38.0755 33.8856C38.1226 33.2902 38.1613 32.6947 38.1899 32.0989L37.6905 32.0749ZM37.5771 33.8462C37.5304 34.4367 37.4753 35.0238 37.4103 35.6106L37.9073 35.6657C37.9729 35.0733 38.0284 34.481 38.0755 33.8856L37.5771 33.8462ZM37.4103 35.6108C37.1517 37.9634 36.7566 40.3028 36.1539 42.59L36.6374 42.7174C37.2477 40.4013 37.6466 38.0369 37.9073 35.6655L37.4103 35.6108ZM36.1536 42.5914C35.8594 43.735 35.5019 44.8621 35.0862 45.9679L35.5542 46.1439C35.9761 45.0217 36.339 43.8774 36.6378 42.716L36.1536 42.5914ZM35.0859 45.9688C34.675 47.0738 34.178 48.144 33.5997 49.1713L34.0354 49.4166C34.6264 48.3667 35.1345 47.2726 35.5545 46.143L35.0859 45.9688ZM33.6006 49.1697C33.3092 49.6784 32.9864 50.1692 32.6354 50.6405L33.0364 50.9392C33.399 50.4523 33.7329 49.9447 34.0345 49.4182L33.6006 49.1697ZM32.6381 50.6369C32.4557 50.8729 32.2767 51.1005 32.083 51.3135L32.453 51.6498C32.6614 51.4207 32.8509 51.1791 33.0337 50.9427L32.6381 50.6369ZM32.0803 51.3165L32.0066 51.4003L32.382 51.7306L32.4557 51.6468L32.0803 51.3165ZM32.012 51.3943L31.935 51.4764L32.2995 51.8186L32.3766 51.7365L32.012 51.3943ZM31.9377 51.4736C31.9101 51.502 31.8832 51.5307 31.8579 51.5577C31.8321 51.5851 31.8079 51.6109 31.7836 51.6361L32.1427 51.984C32.1703 51.9555 32.1972 51.9268 32.2225 51.8998C32.2483 51.8724 32.2724 51.8466 32.2968 51.8215L31.9377 51.4736ZM31.7878 51.6318C31.6767 51.7412 31.58 51.8394 31.4746 51.9323L31.805 52.3075C31.9241 52.2027 32.0352 52.0899 32.1385 51.9882L31.7878 51.6318ZM31.4746 51.9323C31.3643 52.0294 31.252 52.1252 31.1392 52.2198L31.4603 52.603C31.5753 52.5066 31.6909 52.4081 31.805 52.3075L31.4746 51.9323ZM31.1405 52.2186C31.0321 52.3082 30.9186 52.3918 30.8016 52.4693L31.0776 52.8862C31.2085 52.7995 31.3362 52.7055 31.459 52.6041L31.1405 52.2186ZM30.7961 52.473C30.5608 52.6379 30.313 52.7833 30.0561 52.9062L30.2718 53.3572C30.5543 53.2221 30.8259 53.0627 31.083 52.8825L30.7961 52.473ZM30.0541 52.9071C29.5477 53.1548 28.9911 53.2818 28.4265 53.2787L28.4237 53.7787C29.0653 53.7823 29.698 53.6379 30.2738 53.3563L30.0541 52.9071ZM28.4265 53.2787C27.8614 53.2756 27.3061 53.1437 26.8028 52.8929L26.5798 53.3404C27.1519 53.6256 27.7827 53.7751 28.4237 53.7787L28.4265 53.2787ZM26.7991 52.8911C26.5419 52.768 26.2959 52.6243 26.0645 52.4615L25.7769 52.8705C26.0313 53.0494 26.3013 53.2072 26.5834 53.3422L26.7991 52.8911ZM26.0607 52.4589C25.9453 52.3809 25.8364 52.2958 25.717 52.2017L25.4074 52.5943C25.5259 52.6877 25.6482 52.7836 25.7807 52.8732L26.0607 52.4589ZM25.7184 52.2028C25.6061 52.1129 25.4988 52.0201 25.3965 51.9241L25.0545 52.2889C25.1666 52.394 25.2838 52.4954 25.406 52.5932L25.7184 52.2028ZM25.3955 51.9232C24.5455 51.1352 23.8599 50.1746 23.2762 49.1593L22.8427 49.4085C23.4417 50.4503 24.1565 51.4563 25.0555 52.2898L25.3955 51.9232ZM23.2772 49.1611C22.6989 48.1353 22.2001 47.0666 21.7876 45.9649L21.3193 46.1402C21.741 47.2664 22.2508 48.3586 22.8417 49.4067L23.2772 49.1611ZM21.7872 45.9638C21.368 44.8594 21.0056 43.7354 20.7047 42.5933L20.2212 42.7207C20.5267 43.8803 20.8946 45.021 21.3197 46.1412L21.7872 45.9638ZM20.7044 42.5923C20.3979 41.448 20.1381 40.2921 19.9248 39.1277L19.433 39.2178C19.6486 40.3952 19.9114 41.5643 20.2214 42.7217L20.7044 42.5923ZM19.9247 39.1268C19.8163 38.5468 19.718 37.9634 19.6296 37.3766L19.1352 37.451C19.2244 38.0436 19.3237 38.6328 19.4332 39.2186L19.9247 39.1268ZM19.6295 37.3758C19.5396 36.7916 19.463 36.2054 19.398 35.619L18.9011 35.6741C18.9668 36.267 19.0443 36.8601 19.1353 37.4518L19.6295 37.3758ZM19.3978 35.6168C19.1159 33.2636 18.9825 30.8955 19.0025 28.5259L18.5025 28.5217C18.4824 30.9129 18.617 33.3022 18.9013 35.6763L19.3978 35.6168ZM19.0025 28.5242C19.0059 26.1546 19.1394 23.7868 19.4047 21.4325L18.9078 21.3765C18.6404 23.7494 18.5059 26.1356 18.5025 28.5235L19.0025 28.5242ZM19.4045 21.4339C19.6831 19.0817 20.1016 16.7467 20.7112 14.4618L20.2281 14.3329C19.6114 16.6446 19.1889 19.0034 18.908 21.3751L19.4045 21.4339ZM20.7113 14.4615C21.014 13.3205 21.3749 12.1946 21.7939 11.0905L21.3264 10.9131C20.9012 12.0336 20.535 13.1759 20.228 14.3332L20.7113 14.4615ZM21.7943 11.0894C22.2069 9.98584 22.704 8.9172 23.2822 7.89341L22.8468 7.64754C22.2557 8.69422 21.7476 9.78653 21.326 10.9143L21.7943 11.0894ZM23.2817 7.89421C23.5719 7.38482 23.8898 6.89402 24.237 6.425L23.8352 6.12748C23.4755 6.61329 23.1468 7.12088 22.8473 7.64674L23.2817 7.89421ZM24.2369 6.42512C24.5832 5.95807 24.9699 5.52407 25.3955 5.1295L25.0555 4.76285C24.6066 5.17905 24.1993 5.63623 23.8353 6.12736L24.2369 6.42512ZM25.398 5.12715C25.4977 5.03207 25.6045 4.94542 25.7228 4.8463L25.4016 4.46311C25.292 4.55495 25.1677 4.65591 25.053 4.76521L25.398 5.12715ZM25.7228 4.8463C25.8295 4.75686 25.9415 4.67322 26.059 4.59383L25.7791 4.17953C25.6486 4.26765 25.5227 4.36158 25.4016 4.46311L25.7228 4.8463ZM26.0631 4.59096C26.2971 4.42589 26.5414 4.28073 26.7975 4.15825L26.5817 3.70718C26.2984 3.84267 26.0301 4.00239 25.7749 4.1824L26.0631 4.59096ZM26.8009 4.1566C27.3056 3.90579 27.8608 3.77555 28.4258 3.77398L28.4244 3.27398C27.7833 3.27576 27.1524 3.4236 26.5784 3.70883L26.8009 4.1566ZM28.4251 3.77398C28.9889 3.77398 29.546 3.9012 30.0524 4.14892L30.2721 3.69977C29.6964 3.41814 29.0641 3.27398 28.4251 3.27398L28.4251 3.77398ZM30.055 4.15014C30.3135 4.27303 30.5598 4.41688 30.7954 4.58035L31.0804 4.16955C30.8235 3.99129 30.5538 3.83362 30.2696 3.69855L30.055 4.15014ZM30.7979 4.5821C30.9142 4.66066 31.0254 4.7463 31.145 4.83894L31.4512 4.44366C31.3329 4.35204 31.2095 4.25676 31.0779 4.1678L30.7979 4.5821ZM31.145 4.83894C31.2567 4.92549 31.3642 5.01871 31.464 5.11381L31.8089 4.75174C31.6977 4.64582 31.5773 4.54138 31.4512 4.44366L31.145 4.83894ZM31.4665 5.1161C31.8925 5.51114 32.2827 5.94535 32.6304 6.41217L33.0314 6.11351C32.6654 5.62215 32.2548 5.16518 31.8064 4.74945L31.4665 5.1161ZM32.63 6.41172C32.9794 6.88299 33.3005 7.3738 33.5903 7.88248L34.0247 7.63501C33.7248 7.10845 33.3926 6.60088 33.0317 6.11396L32.63 6.41172ZM33.5895 7.88111C34.1661 8.90836 34.6615 9.97862 35.0707 11.0836L35.5396 10.91C35.1212 9.78033 34.6149 8.68631 34.0255 7.63638L33.5895 7.88111ZM35.071 11.0845C35.4851 12.1902 35.8409 13.3177 36.1369 14.46L36.6209 14.3346C36.3206 13.1754 35.9595 12.0313 35.5393 10.9091L35.071 11.0845ZM36.1372 14.4611C36.4385 15.603 36.6884 16.7606 36.8967 17.924L37.3889 17.8359C37.1785 16.6609 36.9258 15.49 36.6207 14.3336L36.1372 14.4611ZM36.8968 17.9245C37.0017 18.504 37.0951 19.0891 37.1802 19.6764L37.675 19.6047C37.5893 19.0127 37.495 18.4218 37.3888 17.8354L36.8968 17.9245ZM37.1802 19.6765C37.2652 20.2616 37.3403 20.8485 37.4053 21.4369L37.9022 21.382C37.8366 20.7879 37.7609 20.1954 37.675 19.6046L37.1802 19.6765ZM37.4053 21.4369C37.4704 22.0264 37.5288 22.6156 37.5789 23.2046L38.0771 23.1623C38.0266 22.5686 37.9678 21.9752 37.9022 21.382L37.4053 21.4369ZM37.5789 23.2046C37.6289 23.7944 37.6672 24.3826 37.6955 24.9744L38.195 24.9505C38.1663 24.353 38.1276 23.7586 38.0771 23.1624L37.5789 23.2046ZM37.6955 24.9745C37.724 25.5667 37.749 26.1586 37.7606 26.7481L38.2605 26.7382C38.2487 26.1417 38.2235 25.5442 38.195 24.9505L37.6955 24.9745ZM37.7606 26.7481C37.7723 27.3404 37.7723 27.9304 37.7757 28.5269L38.2756 28.5241C38.2723 27.9313 38.2723 27.3352 38.2605 26.7382L37.7606 26.7481ZM38.2024 28.3487L38.2008 28.3471L37.8472 28.7006L37.8489 28.7023L38.2024 28.3487ZM38.2505 28.5238C38.2505 27.3292 38.1966 26.136 38.1329 24.9507L37.6336 24.9776C37.6972 26.161 37.7505 27.3432 37.7505 28.5238L38.2505 28.5238ZM38.1329 24.95C38.0992 24.3547 38.0572 23.761 38.0067 23.1673L37.5085 23.2097C37.5586 23.7987 37.6003 24.3876 37.6337 24.9783L38.1329 24.95ZM38.0067 23.1673C37.9563 22.5737 37.8974 21.9797 37.8284 21.3873L37.3317 21.4451C37.4001 22.0319 37.4585 22.6207 37.5085 23.2097L38.0067 23.1673ZM37.8284 21.3874C37.5542 19.0209 37.1402 16.6637 36.5302 14.3552L36.0468 14.483C36.6496 16.7644 37.0598 19.0976 37.3317 21.445L37.8284 21.3874ZM36.5304 14.3559C36.2283 13.2001 35.8672 12.0612 35.447 10.9424L34.979 11.1182C35.393 12.2207 35.7489 13.3431 36.0466 14.4823L36.5304 14.3559ZM35.4473 10.9431C35.029 9.81868 34.5243 8.72973 33.9366 7.68477L33.5008 7.92988C34.0757 8.95205 34.5694 10.0173 34.9787 11.1175L35.4473 10.9431ZM33.9359 7.68352C33.638 7.16083 33.3094 6.65517 32.9535 6.17161L32.5508 6.46798C32.8952 6.9359 33.2132 7.42528 33.5015 7.93113L33.9359 7.68352ZM32.9532 6.17116C32.5922 5.68299 32.1865 5.22924 31.7431 4.81673L31.4025 5.18283C31.8235 5.57439 32.2085 6.00512 32.5511 6.46844L32.9532 6.17116ZM31.7453 4.81881C31.6324 4.71122 31.5068 4.60912 31.4031 4.51929L31.0758 4.89733C31.1965 5.00181 31.2988 5.08397 31.4003 5.18075L31.7453 4.81881ZM31.4031 4.51929C31.2797 4.41252 31.1493 4.32042 31.0286 4.23662L30.7434 4.64731C30.8639 4.73101 30.9747 4.80978 31.0758 4.89733L31.4031 4.51929ZM31.0311 4.23843C30.7794 4.05889 30.5126 3.90273 30.2377 3.76967L30.0199 4.21972C30.271 4.34129 30.5134 4.4833 30.7408 4.64549L31.0311 4.23843ZM30.24 3.7708C29.6766 3.49088 29.0558 3.34277 28.4241 3.34099L28.4227 3.84098C28.9771 3.84255 29.5223 3.97252 30.0176 4.21859L30.24 3.7708ZM28.4234 3.34099C27.7944 3.34099 27.1722 3.48353 26.6066 3.76005L26.8262 4.20924C27.3227 3.96647 27.8698 3.84099 28.4234 3.84099L28.4234 3.34099ZM26.6098 3.75854C26.3304 3.89031 26.0614 4.04676 25.808 4.22623L26.097 4.63424C26.3261 4.47198 26.5697 4.33025 26.8231 4.21075L26.6098 3.75854ZM25.8145 4.22179C25.6804 4.3106 25.5558 4.40998 25.4433 4.49803L25.7515 4.89178C25.8701 4.79892 25.9768 4.71403 26.0905 4.63868L25.8145 4.22179ZM25.4433 4.49803C25.3211 4.59363 25.2028 4.69614 25.0881 4.80548L25.4332 5.16729C25.5364 5.06891 25.6424 4.9771 25.7515 4.89178L25.4433 4.49803ZM25.0907 4.80303C24.644 5.21713 24.2366 5.67082 23.874 6.15897L24.2753 6.45717C24.6196 5.99383 25.0063 5.56305 25.4306 5.16973L25.0907 4.80303ZM23.8737 6.15931C23.5143 6.64469 23.1855 7.14896 22.8873 7.67377L23.3221 7.92078C23.6102 7.4137 23.928 6.92628 24.2756 6.45683L23.8737 6.15931ZM22.8866 7.67514C22.3005 8.72186 21.7975 9.81427 21.3825 10.9405L21.8517 11.1134C22.2576 10.0117 22.7496 8.94317 23.3228 7.91941L22.8866 7.67514ZM21.3827 10.9401C20.9676 12.0604 20.6099 13.2028 20.3145 14.3607L20.799 14.4843C21.0899 13.3438 21.4424 12.2181 21.8515 11.1138L21.3827 10.9401ZM20.3147 14.3597C19.7148 16.6718 19.3159 19.0291 19.0535 21.3953L19.5505 21.4504C19.8108 19.1029 20.2059 16.7698 20.7987 14.4853L20.3147 14.3597ZM19.0535 21.3954C18.988 21.9863 18.9275 22.5785 18.8786 23.1731L19.3769 23.214C19.4253 22.6259 19.4853 22.0388 19.5505 21.4504L19.0535 21.3954ZM18.8787 23.1724C18.8282 23.7665 18.7878 24.3604 18.7559 24.9558L19.2551 24.9826C19.2868 24.3919 19.3269 23.8032 19.3769 23.2147L18.8787 23.1724ZM18.7559 24.9558C18.692 26.144 18.6566 27.3351 18.6634 28.5286L19.1634 28.5258C19.1567 27.3439 19.1917 26.163 19.2551 24.9826L18.7559 24.9558ZM18.6634 28.5309C18.6986 30.907 18.7977 33.2879 19.0636 35.6577L19.5605 35.6019C19.2971 33.2545 19.1984 30.8914 19.1633 28.5235L18.6634 28.5309ZM19.0636 35.6577C19.3293 38.0232 19.7214 40.3806 20.3215 42.6897L20.8054 42.564C20.2127 40.2833 19.8242 37.9502 19.5605 35.6019L19.0636 35.6577ZM20.3213 42.689C20.6182 43.8464 20.9742 44.9886 21.3876 46.1089L21.8567 45.9358C21.4492 44.8316 21.0983 43.7057 20.8056 42.5647L20.3213 42.689ZM21.3876 46.1088C21.8025 47.235 22.3038 48.3256 22.888 49.3738L23.3247 49.1303C22.7531 48.1047 22.2627 47.0377 21.8567 45.936L21.3876 46.1088ZM22.889 49.3756C23.1869 49.8999 23.5156 50.4074 23.8734 50.8929L24.2759 50.5963C23.9301 50.127 23.6121 49.6361 23.3237 49.1286L22.889 49.3756ZM23.8765 50.8971C24.0556 51.1298 24.2436 51.3713 24.4501 51.6005L24.8215 51.2657C24.6294 51.0526 24.4521 50.8251 24.2727 50.5921L23.8765 50.8971ZM24.4498 51.6001L24.5235 51.6822L24.8955 51.3481L24.8218 51.2661L24.4498 51.6001ZM24.529 51.6882L24.6061 51.7686L24.9671 51.4226L24.89 51.3422L24.529 51.6882ZM24.6042 51.7666C24.6509 51.8164 24.7065 51.8775 24.7623 51.9332L25.1158 51.5796C25.0677 51.5315 25.0228 51.482 24.969 51.4246L24.6042 51.7666ZM24.7637 51.9346C24.8653 52.0346 24.9759 52.1469 25.0924 52.251L25.4256 51.8782C25.3209 51.7847 25.2238 51.6859 25.1144 51.5782L24.7637 51.9346ZM25.094 52.2524C25.2053 52.3503 25.3183 52.4481 25.4304 52.5451L25.7577 52.1671C25.6453 52.0698 25.5338 51.9733 25.424 51.8768L25.094 52.2524ZM25.4318 52.5463C25.5559 52.6521 25.6835 52.7435 25.8098 52.8283L26.0885 52.4132C25.9703 52.3339 25.86 52.2544 25.7563 52.1659L25.4318 52.5463ZM25.8047 52.8248C26.0581 53.0043 26.3267 53.1605 26.6053 53.2936L26.8209 52.8425C26.5667 52.721 26.3227 52.579 26.0937 52.4168L25.8047 52.8248ZM26.6033 53.2926C27.1688 53.5691 27.7915 53.7119 28.4215 53.7083L28.4187 53.2084C27.866 53.2115 27.3194 53.0862 26.8229 52.8434L26.6033 53.2926ZM28.4215 53.7083C29.0511 53.7048 29.6716 53.5568 30.235 53.2769L30.0125 52.8291C29.5172 53.0752 28.9718 53.2052 28.4187 53.2084L28.4215 53.7083ZM30.2333 53.2777C30.5098 53.1429 30.7745 52.9869 31.0271 52.808L30.7381 52.4C30.5083 52.5628 30.267 52.705 30.0142 52.8282L30.2333 53.2777ZM31.0239 52.8103C31.155 52.7205 31.2756 52.6246 31.39 52.5321L31.0755 52.1433C30.9621 52.2351 30.8548 52.3201 30.7414 52.3978L31.0239 52.8103ZM31.39 52.5321C31.5082 52.4364 31.6257 52.3348 31.7386 52.2272L31.3936 51.8652C31.2921 51.962 31.1851 52.0547 31.0755 52.1433L31.39 52.5321ZM31.7371 52.2286C32.1786 51.8146 32.5825 51.3609 32.9418 50.8727L32.5391 50.5763C32.1981 51.0396 31.8146 51.4704 31.3951 51.8638L31.7371 52.2286ZM32.942 50.8724C33.2978 50.3872 33.6248 49.8831 33.9213 49.3583L33.486 49.1123C33.1995 49.6194 32.8833 50.107 32.5388 50.5767L32.942 50.8724ZM33.9217 49.3576C34.5077 48.3126 35.0107 47.2236 35.4257 46.1007L34.9567 45.9273C34.5509 47.0256 34.0588 48.0909 33.4856 49.113L33.9217 49.3576ZM35.4254 46.1016C35.8438 44.983 36.2048 43.8443 36.5085 42.6905L36.0249 42.5632C35.7255 43.701 35.3695 44.8237 34.9571 45.9264L35.4254 46.1016ZM36.5085 42.6905C36.66 42.1147 36.8015 41.5354 36.9312 40.9524L36.4431 40.8438C36.3149 41.4201 36.1749 41.9932 36.0249 42.5632L36.5085 42.6905ZM36.9312 40.9524C37.061 40.3692 37.1772 39.785 37.2864 39.2002L36.7949 39.1084C36.6863 39.6895 36.5713 40.2678 36.4431 40.8438L36.9312 40.9524ZM37.2864 39.2002C37.3959 38.6141 37.4935 38.0282 37.5827 37.436L37.0883 37.3615C36.9999 37.9486 36.9032 38.5286 36.7949 39.1084L37.2864 39.2002ZM37.5828 37.4353C37.6701 36.8446 37.7526 36.2571 37.8217 35.6637L37.325 35.6059C37.2568 36.1918 37.1751 36.7736 37.0882 37.3622L37.5828 37.4353ZM37.8217 35.6637C37.8906 35.0723 37.9528 34.4802 38.005 33.8861L37.5069 33.8423C37.4552 34.4308 37.3935 35.0181 37.325 35.6059L37.8217 35.6637ZM38.005 33.8861C38.0571 33.2929 38.1025 32.6992 38.1379 32.1033L37.6387 32.0737C37.6037 32.6639 37.5587 33.2528 37.5069 33.8423L38.005 33.8861ZM38.1378 32.1044C38.2136 30.9124 38.2455 29.7197 38.2522 28.5286L37.7522 28.5258C37.7455 29.71 37.7138 30.8927 37.6388 32.0727L38.1378 32.1044ZM38.2258 28.4154L38.2241 28.412L37.7769 28.6356L37.7786 28.639L38.2258 28.4154Z" fill="#fff"/>
</svg>