      <svg
          viewBox="0 0 470 320"
          fill="none"
          xmlns="http://www.w3.org/2000/svg"
        >
          <g>
            <path
              d="M83.048 44.448C83.048 60.768 93.8961 73.152 109.544 73.152C117.512 73.152 125.768 71.808 131.624 69.408L132.008 67.776L138.728 50.4C131.144 63.168 120.008 71.232 110.024 71.232C97.352 71.232 90.056 61.44 90.056 47.04C90.056 24.96 104.744 2.40004 125 2.40004C135.848 2.40004 142.088 9.02404 144.104 21.792L145.064 6.72004L145.448 5.18403C140.456 2.20803 133.736 0.384033 125.768 0.384033C103.4 0.384033 83.048 21.888 83.048 44.448Z"
              fill="#fff"
            />
            <path
              d="M143.014 43.008C148.582 31.104 152.902 26.88 155.398 26.88C156.646 26.88 157.318 27.744 156.358 31.2L149.062 57.984C146.47 67.68 150.598 73.152 157.894 73.152C168.262 73.152 174.214 62.208 181.798 41.568H182.374L176.806 64.704C175.462 69.984 177.286 73.152 181.606 73.152C187.078 73.152 191.974 67.2 197.734 49.152C191.206 64.8 186.694 69.024 184.198 69.024C182.758 69.024 182.374 67.584 182.95 64.992L192.838 23.712H186.598C175.654 57.504 169.702 69.024 160.87 69.024C155.686 69.024 153.478 65.088 155.398 57.792L162.694 30.624C164.134 25.44 161.926 22.752 158.374 22.752C152.614 22.752 147.334 30.24 143.014 43.008Z"
              fill="#fff"
            />
            <path
              d="M198.201 69.888C201.849 71.808 207.897 73.152 212.889 73.152C222.969 73.152 230.073 67.2 230.073 59.232C230.073 45.696 209.625 44.928 209.625 33.696C209.625 28.416 214.521 24.192 220.473 24.192C228.441 24.192 231.993 31.68 233.145 40.224L234.201 27.552L234.489 26.016C231.801 24.096 226.425 22.752 221.913 22.752C212.217 22.752 204.921 28.608 204.921 36.384C204.921 49.728 225.369 50.4 225.369 61.632C225.369 67.584 220.857 71.616 214.617 71.616C205.881 71.616 200.505 64.704 199.353 52.992L198.489 68.256L198.201 69.888Z"
              fill="#fff"
            />
            <path
              d="M248.83 73.152C256.03 73.152 262.75 66.24 267.454 55.968C262.654 64.416 256.99 69.216 251.902 69.216C247.678 69.216 245.854 66.048 247.102 60.96L255.166 27.552H271.294L272.254 23.712H256.126L259.006 11.52L251.806 14.784L250.366 20.832L240.19 26.976L249.31 28.224L240.574 61.248C238.846 68.16 242.206 73.152 248.83 73.152Z"
              fill="#fff"
            />
            <path
              d="M287.86 73.152C303.988 73.152 315.796 56.544 315.796 41.472C315.796 30.72 309.172 22.752 299.188 22.752C283.156 22.752 270.676 37.92 270.676 54.432C270.676 65.76 278.068 73.152 287.86 73.152ZM277.3 55.296C277.3 41.664 285.46 24.192 298.9 24.192C306.004 24.192 309.172 31.392 309.172 40.128C309.172 53.856 301.204 71.616 288.34 71.616C280.756 71.616 277.3 64.224 277.3 55.296Z"
              fill="#fff"
            />
            <path
              d="M382.906 73.152C388.378 73.152 393.274 67.2 399.034 49.152C392.506 64.8 387.994 69.024 385.498 69.024C384.25 69.024 383.386 67.968 384.25 64.992L392.026 37.44C394.618 28.512 390.874 22.752 384.826 22.752C374.362 22.752 367.162 37.056 361.786 51.168H361.114L364.57 36.96C366.586 28.608 363.226 22.752 357.178 22.752C347.386 22.752 340.378 37.056 335.194 51.168H334.522L339.418 30.432C340.666 25.152 338.554 22.752 335.482 22.752C329.914 22.752 323.77 30.528 319.642 43.008C324.538 33.024 329.434 26.88 332.026 26.88C333.37 26.88 333.85 27.744 333.082 31.008L323.29 72H329.626C333.562 58.656 343.162 26.208 354.01 26.208C357.946 26.208 359.962 30.336 358.426 37.056L349.978 72H356.218C360.058 59.232 369.562 26.208 381.658 26.208C385.498 26.208 387.898 30.048 385.978 37.056L378.298 64.032C376.666 69.696 378.202 73.152 382.906 73.152Z"
              fill="#fff"
            />
          </g>
          <g>
            <path
              d="M71.9601 94.136H73.112V149.72L65.7201 155H92.6001L85.112 149.72V89.24L92.6001 83.96H73.688L50.072 139.16H48.728L22.328 83.96H2.55205L10.424 89.72V149.528L0.248047 155H23L12.824 149.528V94.136H13.784L44.216 157.976L71.9601 94.136Z"
              fill="#fff"
            />
            <path
              d="M117.214 155L106.27 149.72L114.238 129.752H143.23L151.678 150.008L141.502 155H172.894L165.214 149.912L136.99 82.904L122.59 85.4L127.294 92.312L103.582 149.72L94.3663 155H117.214ZM127.966 95.864H129.022L142.366 127.736H115.102L127.966 95.864Z"
              fill="#fff"
            />
            <path
              d="M203.912 155C227.336 155 244.808 139.16 244.808 118.904C244.808 99.32 227.336 83.96 203.912 83.96H174.824L182.216 89.72V149.24L174.824 155H203.912ZM194.216 85.976H203.336C219.944 85.976 231.656 99.512 231.656 118.904C231.656 138.872 219.944 152.984 203.24 152.984H194.216V85.976Z"
              fill="#fff"
            />
            <path
              d="M308.192 155V153.176L310.784 131.672L296.672 152.984H269.216V118.904H284.192L291.872 131.384V104.6L284.192 116.984H269.216V85.976H293.504L307.52 104.696L304.832 85.784V83.96H249.824L257.216 89.72V149.24L249.824 155H308.192Z"
              fill="#fff"
            />
          </g>
          <g>
            <path
              d="M195.608 236L195.992 234.272L204.344 210.368L183.32 233.888H158.552L173.912 169.952L182.456 164.96H156.92L161.624 169.952L147.032 230.816L139.16 236H195.608Z"
              fill="#fff"
            />
            <path
              d="M227.776 236L222.976 231.008L237.664 169.952L245.44 164.96H220.576L225.376 169.952L210.688 231.008L202.816 236H227.776Z"
              fill="#fff"
            />
            <path
              d="M308.208 169.856L317.904 164.96H296.304L305.424 169.76L267.312 219.392H266.448V169.952L275.952 164.96H246.192L254.352 169.952V239.072L308.208 169.856Z"
              fill="#fff"
            />
            <path
              d="M359.794 236L360.082 234.272L367.954 212.672L348.178 234.08H321.49L329.65 199.904H344.722L349.042 212.384L355.474 185.6L345.106 197.984H330.13L337.522 166.976H362.482L371.314 185.792L372.946 166.784L373.33 164.96H319.858L324.466 169.952L309.97 230.816L302.098 236H359.794Z"
              fill="#fff"
            />
          </g>
          <g>
            <path
              d="M212.728 314.448C217.144 317.232 224.536 319.056 231.64 319.152C244.696 319.344 253.72 311.376 253.72 300.144C253.72 283.152 229.624 277.008 229.624 262.416C229.624 254.16 235.768 248.208 244.12 248.208C252.664 248.208 258.328 254.832 260.344 268.56L261.4 252.624L261.784 250.992C257.272 248.208 251.032 246.384 245.272 246.384C233.464 246.384 224.152 254.16 224.152 265.488C224.152 281.904 247.96 287.952 247.96 302.64C247.96 311.472 242.008 317.424 233.368 317.328C222.712 317.328 215.896 309.648 214.648 296.112L213.016 312.912L212.728 314.448Z"
              fill="#fff"
            />
            <path
              d="M267.658 318C271.306 304.656 283.21 272.208 294.922 272.208C299.626 272.208 301.834 276.816 300.01 283.056L292.33 310.032C290.794 315.696 292.426 319.152 297.034 319.152C302.41 319.152 307.306 313.2 313.066 295.152C306.634 310.8 302.026 315.024 299.626 315.024C298.282 315.024 297.514 313.968 298.282 310.992L306.058 283.728C308.458 275.28 305.002 268.752 297.994 268.752C287.242 268.752 278.122 285.936 272.074 301.296H271.69L286.186 241.008L270.634 247.632L278.122 248.4L261.514 318H267.658Z"
              fill="#fff"
            />
            <path
              d="M332.937 319.152C349.065 319.152 360.873 302.544 360.873 287.472C360.873 276.72 354.249 268.752 344.265 268.752C328.233 268.752 315.753 283.92 315.753 300.432C315.753 311.76 323.145 319.152 332.937 319.152ZM322.377 301.296C322.377 287.664 330.537 270.192 343.977 270.192C351.081 270.192 354.249 277.392 354.249 286.128C354.249 299.856 346.281 317.616 333.417 317.616C325.833 317.616 322.377 310.224 322.377 301.296Z"
              fill="#fff"
            />
            <path
              d="M365.619 311.472C365.619 316.368 368.403 319.152 373.107 319.152C384.339 319.152 393.171 299.568 399.891 282.672H400.563L394.323 308.784C392.787 315.12 395.571 319.152 401.523 319.152C417.363 319.152 433.203 289.776 433.203 274.608C433.203 270.96 431.571 268.752 428.691 268.752C426.579 268.752 425.043 270.192 425.043 272.112C425.043 274.704 428.883 275.76 428.883 281.616C428.883 293.52 417.075 314.928 404.787 314.928C400.659 314.928 399.411 312.048 400.467 307.44L409.395 269.712H403.731C397.683 285.552 386.355 314.928 376.659 314.928C373.875 314.928 372.627 312.912 372.627 309.648C372.627 302.064 377.331 285.744 382.803 267.984H381.171L380.403 269.712H368.403L367.443 274.032H378.579C370.227 294.288 365.619 305.52 365.619 311.472Z"
              fill="#fff"
            />
            <path
              d="M433.5 315.888C437.148 317.808 443.196 319.152 448.188 319.152C458.268 319.152 465.372 313.2 465.372 305.232C465.372 291.696 444.924 290.928 444.924 279.696C444.924 274.416 449.82 270.192 455.772 270.192C463.74 270.192 467.292 277.68 468.444 286.224L469.5 273.552L469.788 272.016C467.1 270.096 461.724 268.752 457.212 268.752C447.516 268.752 440.22 274.608 440.22 282.384C440.22 295.728 460.668 296.4 460.668 307.632C460.668 313.584 456.156 317.616 449.916 317.616C441.18 317.616 435.804 310.704 434.652 298.992L433.788 314.256L433.5 315.888Z"
              fill="#fff"
            />
          </g>
        </svg>