    <svg viewBox="0 0 1440 256" fill="none" xmlns="http://www.w3.org/2000/svg">
<path d="M478.206 1039.17C631.689 1074.44 833.628 1177.65 1147.51 1442.98L1142.35 1449.09C690.496 1067.14 472.6 1023.03 298.062 1032.08C264.285 1033.83 232.13 1037.57 200.058 1041.3L200.057 1041.3C190.501 1042.41 180.952 1043.52 171.37 1044.58C129.699 1049.18 87.5494 1052.73 42.06 1050.76C-49.0526 1046.81 -153.132 1020.69 -293.949 937.131L-294.112 937.034L-294.266 936.923C-326.954 913.072 -358.396 890.245 -388.503 868.388L-388.548 868.355C-490.24 794.527 -576.685 731.769 -644.379 678.033C-688.26 643.2 -724.373 612.073 -751.716 584.098C-779.006 556.178 -797.831 531.129 -806.787 508.423L-800.925 506.111C-801.544 504.816 -802.134 503.531 -802.697 502.255L-796.795 499.655C-797.42 498.458 -798.02 497.27 -798.596 496.09L-792.686 493.206C-793.311 492.101 -793.916 491.002 -794.501 489.911L-788.599 486.751C-789.218 485.736 -789.821 484.727 -790.406 483.723L-784.538 480.303C-784.83 479.859 -785.118 479.415 -785.402 478.973C-785.614 478.644 -785.824 478.316 -786.033 477.988C-786.126 477.841 -786.219 477.695 -786.311 477.548L-780.472 473.862C-781.064 473.018 -781.645 472.178 -782.214 471.341L-776.417 467.398C-776.993 466.628 -777.56 465.861 -778.117 465.098L-772.405 460.934C-772.953 460.245 -773.493 459.559 -774.026 458.875L-768.391 454.485C-768.913 453.867 -769.428 453.251 -769.937 452.636L-764.478 448.112C-729.887 489.85 -666.557 539.963 -573.197 600.547C-479.914 661.08 -356.933 731.89 -203.297 815.066C-68.7498 887.905 32.9561 912.707 122.848 919.147C167.841 922.37 209.943 920.998 251.863 918.7C262.02 918.143 272.175 917.531 282.359 916.918L282.361 916.918C314.149 915.002 346.227 913.069 379.604 912.737C556.517 910.977 770.131 954.198 1188.41 1278.7L1184.07 1284.31C766.571 960.41 554.477 918.088 379.674 919.827C346.492 920.157 314.66 922.075 282.911 923.988L282.91 923.988L282.897 923.989C272.687 924.604 262.486 925.219 252.251 925.78C210.24 928.083 167.784 929.474 122.341 926.219C31.3621 919.701 -71.315 894.579 -206.672 821.301C-360.368 738.093 -483.54 667.179 -577.056 606.494C-668.417 547.208 -731.744 497.516 -767.537 455.493C-734.694 497.174 -672.797 547.732 -580.984 608.979C-488.495 670.678 -365.959 743.025 -212.882 827.867C-78.2625 902.481 23.3038 927.697 113.06 933.973C157.988 937.114 200.031 935.515 241.927 932.938C252.294 932.3 262.66 931.602 273.061 930.901L273.068 930.9L273.074 930.9L273.08 930.899L273.086 930.899L273.093 930.899L273.099 930.898L273.105 930.898L273.111 930.897L273.133 930.896C304.683 928.77 336.551 926.622 369.728 926.077C546.95 923.167 761.769 965.988 1183.87 1296.96L1179.43 1302.62C758.126 972.274 544.877 930.396 369.846 933.271C336.869 933.812 305.258 935.942 273.753 938.065L273.745 938.066L273.737 938.066L273.729 938.067L273.721 938.067L273.713 938.068L273.705 938.068L273.697 938.069L273.689 938.07L273.68 938.07C263.247 938.773 252.825 939.475 242.369 940.119C200.374 942.702 157.96 944.324 112.559 941.149C21.6576 934.794 -80.9198 909.233 -216.37 834.16C-369.509 749.283 -492.244 676.825 -584.977 614.964C-673.12 556.164 -734.439 506.758 -768.948 465.184C-737.35 506.398 -677.452 556.656 -588.824 617.42C-497.131 680.285 -375.03 754.17 -222.497 840.68C-87.807 917.066 13.6196 942.695 103.243 948.806C148.106 951.866 190.091 950.04 231.965 947.184C242.57 946.46 253.176 945.67 263.823 944.877C295.155 942.542 326.834 940.181 359.832 939.426C537.371 935.365 753.406 977.788 1179.33 1315.21L1174.8 1320.93C749.684 984.14 535.267 942.706 359.999 946.714C327.206 947.464 295.793 949.805 264.511 952.136C253.829 952.932 243.163 953.727 232.461 954.457C190.482 957.321 148.107 959.173 102.747 956.08C11.9222 949.886 -90.5548 923.888 -226.093 847.022C-378.692 760.474 -501 686.471 -592.947 623.432C-678.116 565.04 -737.531 515.86 -770.779 474.646C-740.37 515.466 -682.352 565.485 -596.642 625.86C-505.747 689.888 -384.088 765.308 -232.085 853.484C-97.3372 931.653 3.94346 957.701 93.429 963.652C138.226 966.631 180.152 964.579 222.005 961.444C232.811 960.634 243.622 959.751 254.478 958.864C285.605 956.322 317.108 953.749 349.94 952.787C438.716 950.183 537.514 959.323 667.915 1012.21C798.222 1065.07 959.975 1161.56 1174.8 1333.46L1170.18 1339.24C955.671 1167.59 794.545 1071.55 665.136 1019.07C535.82 966.616 438.063 957.599 350.156 960.178C317.535 961.134 286.311 963.684 255.239 966.222L255.236 966.222C244.342 967.112 233.468 968 222.558 968.817C180.593 971.961 138.258 974.044 92.9384 971.03C2.19155 964.995 -100.18 938.552 -235.796 859.88C-387.867 771.664 -509.742 696.118 -600.9 631.905C-682.714 574.275 -740.093 525.566 -772.282 484.828C-742.84 525.186 -686.834 574.726 -604.464 634.336C-514.376 699.53 -393.171 776.48 -241.707 866.321C-106.914 946.266 -5.78594 972.725 83.5588 978.509C128.288 981.405 170.155 979.125 211.986 975.708C222.97 974.811 233.961 973.834 245.005 972.853L245.012 972.852C275.956 970.102 307.303 967.317 339.992 966.147C428.927 962.964 528.118 971.709 659.351 1025.16C790.487 1078.58 953.503 1176.58 1170.24 1351.72L1165.52 1357.55C949.111 1182.67 786.735 1085.14 656.523 1032.11C526.408 979.109 428.294 970.489 340.26 973.64C307.786 974.803 276.727 977.563 245.842 980.307L245.836 980.308L245.83 980.308L245.824 980.309L245.818 980.309L245.812 980.31L245.806 980.31C234.733 981.294 223.683 982.276 212.597 983.181C170.646 986.608 128.351 988.923 83.0742 985.992C-7.59301 980.122 -109.853 953.24 -245.532 872.771L-243.711 869.7L-245.532 872.771C-397.067 782.888 -518.499 705.802 -608.86 640.41C-687.442 583.542 -742.846 535.297 -774.037 494.968C-745.523 534.866 -691.472 583.911 -612.312 642.746C-523.025 709.109 -402.254 787.601 -251.305 879.109C-116.468 960.842 -15.4949 987.722 73.7071 993.348C118.368 996.165 160.174 993.66 201.984 989.965C213.139 988.979 224.306 987.907 235.53 986.83C266.302 983.876 297.503 980.881 330.058 979.507C419.152 975.748 518.734 984.1 650.8 1038.12C782.763 1092.09 947.043 1191.61 1165.68 1369.97L1160.88 1375.85C942.566 1197.76 778.941 1098.73 647.925 1045.15C517.011 991.6 418.541 983.375 330.379 987.095C298.044 988.459 267.142 991.425 236.434 994.373L236.426 994.374C225.162 995.455 213.925 996.534 202.652 997.53C160.717 1001.24 118.462 1003.78 73.229 1000.93C-17.357 995.214 -119.503 967.883 -255.242 885.603L-253.273 882.356L-255.242 885.603C-406.264 794.051 -527.271 715.415 -616.842 648.841C-692.487 592.619 -746.042 544.766 -776.235 504.793C-748.641 544.327 -696.412 592.976 -620.145 651.185C-531.669 718.713 -411.348 798.741 -260.906 891.912C-126.035 975.442 -25.223 1002.74 63.8337 1008.21C108.425 1010.95 150.171 1008.22 191.96 1004.24C203.272 1003.17 214.601 1002 225.993 1000.82L225.997 1000.82C256.608 997.666 287.675 994.46 320.109 992.883C409.365 988.543 509.346 996.496 642.25 1051.07C775.047 1105.6 940.596 1206.63 1161.15 1388.21L1156.26 1394.16C936.03 1212.84 771.15 1112.32 639.326 1058.19C507.608 1004.1 408.775 996.28 320.483 1000.57C288.274 1002.14 257.518 1005.31 226.975 1008.46C215.538 1009.64 204.131 1010.82 192.689 1011.91C150.767 1015.9 108.552 1018.67 63.362 1015.9C-27.1432 1010.34 -129.171 982.555 -264.959 898.457C-415.477 805.239 -536.044 725.058 -624.815 657.305C-697.544 601.796 -749.273 554.383 -778.548 514.759C-751.81 553.926 -701.381 602.126 -627.99 659.633C-540.323 728.326 -420.447 809.891 -270.508 904.725C-135.619 990.043 -34.9745 1017.76 53.934 1023.07C98.4538 1025.73 140.14 1022.77 181.909 1018.52C193.362 1017.35 204.835 1016.08 216.378 1014.81L216.383 1014.81L216.385 1014.81C246.854 1011.45 277.805 1008.03 310.137 1006.25C399.56 1001.33 499.945 1008.89 633.691 1064.02C767.324 1119.11 934.143 1221.65 1156.6 1406.47L1151.62 1412.47C929.488 1227.93 763.353 1125.91 630.717 1071.24C498.193 1016.6 398.992 1009.18 310.565 1014.04C278.463 1015.81 247.833 1019.19 217.436 1022.54C205.846 1023.82 194.29 1025.1 182.699 1026.28C140.79 1030.55 98.6151 1033.55 53.4692 1030.86C-36.9538 1025.46 -138.856 997.228 -274.678 911.319C-424.696 816.435 -544.829 734.708 -632.802 665.775C-702.751 610.964 -752.722 563.981 -781.109 524.676C-771.186 539.542 -757.897 555.761 -741.245 573.347C-714.509 601.582 -679.286 633.151 -635.857 668.08C-548.998 737.938 -429.558 821.039 -280.106 917.542C-145.204 1004.65 -44.7314 1032.79 44.0263 1037.94C88.4738 1040.51 130.099 1037.33 171.847 1032.8C183.425 1031.54 195.028 1030.18 206.707 1028.8L206.715 1028.8L206.723 1028.8C237.062 1025.24 267.91 1021.61 300.153 1019.63C389.744 1014.13 490.534 1021.29 625.122 1076.98C759.593 1132.63 927.684 1236.68 1152.05 1424.72L1146.98 1430.78C922.944 1243.01 755.551 1139.5 622.102 1084.28C569.315 1062.44 521.82 1048.14 478.206 1039.17ZM-440.147 820.973C-421.985 834.19 -403.246 847.795 -383.952 861.802L-383.905 861.836C-353.825 883.675 -322.395 906.492 -289.702 930.346C-209.699 977.805 -141.821 1006.49 -81.6026 1023.08C-140.96 1004.83 -207.17 974.04 -284.39 924.177C-340.567 887.904 -392.533 853.504 -440.147 820.973ZM1192.96 1260.45C778.5 942.405 566.083 898.787 389.476 899.399C355.879 899.515 323.573 901.232 291.525 902.935L291.521 902.935C281.597 903.462 271.699 903.988 261.794 904.465C219.852 906.484 177.691 907.629 132.636 904.323C42.6132 897.719 -59.2248 873.33 -193.687 802.259C-347.891 720.757 -471.309 651.485 -565.381 592.117C-659.521 532.708 -724.017 483.372 -760.598 441.784L-765.843 446.398C-728.562 488.783 -663.339 538.559 -569.11 598.025C-474.813 657.535 -351.212 726.904 -196.952 808.436C-61.6998 879.924 41.07 904.61 132.124 911.291C177.607 914.627 220.103 913.466 262.13 911.443C272.104 910.963 282.044 910.435 291.99 909.906L292.009 909.905C324.021 908.204 356.092 906.5 389.5 906.385C564.076 905.78 775.023 948.543 1188.71 1266L1192.96 1260.45ZM399.309 886.057C575.612 886.592 786.841 930.605 1197.51 1242.2L1193.34 1247.69C783.442 936.675 573.635 893.476 399.288 892.947C365.638 892.845 333.312 894.333 301.019 895.82L301.018 895.82L301.017 895.82L301.016 895.82L301.015 895.82L301.013 895.82L301.012 895.82L301.011 895.82L301.01 895.82L301.009 895.82L301.008 895.82L301.007 895.82L301.006 895.82C291.337 896.265 281.672 896.71 271.975 897.112C229.932 898.855 187.398 899.786 141.877 896.368C50.7503 889.525 -52.1064 865.271 -187.245 795.571C-342.074 715.715 -466.106 647.889 -561.185 589.556C-656.205 531.258 -722.536 482.304 -761.775 440.152L-756.731 435.457C-718.162 476.891 -652.502 525.446 -557.581 583.683C-462.719 641.884 -338.862 709.619 -184.086 789.448C-49.7172 858.751 52.2455 882.728 142.393 889.497C187.509 892.885 229.725 891.968 271.689 890.228C281.315 889.829 290.934 889.386 300.573 888.942L300.582 888.942L300.587 888.941C332.914 887.453 365.47 885.954 399.309 886.057ZM1202.02 1223.95C795.211 918.815 585.167 874.413 409.159 872.735C374.981 872.409 342.162 873.685 309.488 874.956C174.332 880.212 41.6533 885.371 -174.48 776.648C-329.843 698.494 -454.142 632.296 -549.79 575.256C-645.487 518.185 -712.293 470.403 -752.83 429.117L-757.673 433.871C-716.499 475.806 -649.069 523.95 -553.265 581.084C-457.411 638.248 -332.943 704.531 -177.529 782.71C40.2585 892.266 174.669 887.022 310.05 881.741L310.056 881.741L310.058 881.741L310.059 881.741L310.061 881.741L310.063 881.741L310.065 881.741L310.067 881.74L310.069 881.74L310.07 881.74L310.072 881.74L310.074 881.74L310.076 881.74L310.078 881.74C342.636 880.47 375.25 879.198 409.094 879.521C583.223 881.18 791.894 924.81 1197.95 1229.37L1202.02 1223.95ZM418.974 859.412C594.701 862.232 803.594 907.023 1206.6 1205.7L1202.62 1211.06C800.357 912.941 592.79 868.884 418.867 866.093C384.716 865.546 351.789 866.597 318.889 867.647L318.885 867.648C183.82 871.961 49.1968 876.259 -167.814 769.842C-323.825 693.343 -448.728 628.603 -545.358 572.617C-641.943 516.655 -710.469 469.333 -753.585 427.639L-748.939 422.835C-706.428 463.945 -638.481 510.938 -542.008 566.835C-445.577 622.706 -320.835 687.367 -164.872 763.842C50.5561 869.484 183.52 865.254 318.372 860.963C351.381 859.913 384.502 858.859 418.974 859.412ZM1211.15 1187.44C811.957 895.23 604.233 850.057 428.794 846.1C394.005 845.316 360.559 846.144 327.192 846.971C192.668 850.303 59.4315 853.604 -155.272 751.04C-311.838 676.246 -437.021 613.122 -534.231 558.413C-631.479 503.684 -700.562 457.469 -745.049 416.523L-749.509 421.369C-704.448 462.844 -634.826 509.357 -537.461 564.153C-440.059 618.969 -314.722 682.167 -158.11 756.983C58.1055 860.269 192.931 856.915 327.657 853.562L327.658 853.562C360.919 852.735 394.174 851.907 428.646 852.685C602.352 856.602 808.797 901.079 1207.26 1192.76L1211.15 1187.44ZM438.591 832.796C613.749 837.887 820.322 883.438 1215.69 1169.19L1211.89 1174.45C817.241 889.209 611.901 844.318 438.403 839.275C403.579 838.263 369.968 838.863 336.316 839.464C201.952 841.862 66.9475 844.272 -148.396 744.114C-462.691 597.926 -651.563 497.502 -745.433 415.105L-741.157 410.233C-648.122 491.897 -460.181 591.945 -145.662 738.237C68.2388 837.724 201.724 835.355 335.897 832.974C369.654 832.374 403.455 831.775 438.591 832.796ZM1220.23 1150.94C828.689 871.628 623.258 825.705 448.374 819.488C412.857 818.226 378.669 818.595 344.487 818.964L344.485 818.964C210.687 820.408 76.9776 821.852 -136.055 725.446C-451.817 582.549 -640.267 485.261 -737.256 403.947L-741.354 408.835C-643.565 490.819 -454.246 588.451 -138.684 731.257C75.7206 828.284 210.881 826.812 344.86 825.352C378.937 824.981 412.938 824.611 448.147 825.862C621.443 832.022 825.688 877.321 1216.53 1156.13L1220.23 1150.94ZM458.14 806.215C632.757 813.564 837.058 859.853 1224.78 1132.69L1221.17 1137.82C834.132 865.475 630.973 819.777 457.876 812.492C422.255 810.993 387.839 811.126 353.308 811.259L353.305 811.259C219.73 811.776 84.433 812.299 -128.98 718.382C-445.813 578.966 -635.591 484.11 -737.293 402.543L-733.363 397.643C-632.427 478.595 -443.466 573.136 -126.45 712.632C85.6584 805.975 219.57 805.469 352.972 804.965L352.976 804.965L352.98 804.965L352.983 804.965L352.987 804.965L352.991 804.965L352.994 804.965L352.998 804.965L353.002 804.965L353.005 804.966L353.009 804.966L353.013 804.966L353.016 804.966L353.02 804.966L353.024 804.966L353.027 804.966L353.031 804.966L353.035 804.966L353.038 804.966C387.653 804.835 422.234 804.704 458.14 806.215ZM1229.32 1114.44C845.426 848.061 642.25 801.408 467.899 792.934C431.517 791.165 396.457 791.054 361.32 790.943C228.35 790.522 94.2647 790.097 -116.84 699.83C-435.135 563.731 -624.582 471.948 -729.463 391.352L-733.227 396.251C-627.613 477.41 -437.396 569.483 -119.269 705.51C93.0726 796.306 228.477 796.724 361.612 797.135C396.644 797.243 431.52 797.351 467.599 799.104C640.499 807.508 842.577 853.604 1225.8 1119.51L1229.32 1114.44ZM477.626 779.662C651.719 789.26 853.787 836.272 1233.87 1096.19L1230.44 1101.21C851.015 841.735 650 795.249 477.291 785.727C440.714 783.711 405.341 783.356 369.765 783C237.103 781.672 101.626 780.315 -109.556 692.631C-429.002 560.005 -619.64 470.674 -729.161 389.948L-725.558 385.058C-616.739 465.267 -426.827 554.332 -107.227 687.021C102.785 774.22 237.007 775.574 369.513 776.911L369.514 776.911L369.515 776.911L369.516 776.911L369.517 776.911L369.518 776.911L369.52 776.911L369.521 776.911L369.522 776.911C405.198 777.271 440.751 777.63 477.626 779.662ZM1238.41 1077.91C862.157 824.467 661.201 777.113 487.364 766.403C449.948 764.097 413.854 763.486 377.584 762.872C245.575 760.635 111.241 758.36 -97.6236 674.233C-418.539 544.972 -608.899 458.663 -721.651 378.796L-725.102 383.668C-611.675 464.012 -420.627 550.567 -99.854 679.771C110.114 764.341 245.64 766.628 377.798 768.858C413.964 769.468 449.879 770.074 486.997 772.361C659.515 782.99 859.462 829.85 1235.08 1082.86L1238.41 1077.91ZM497.09 753.159C670.674 764.989 870.526 812.701 1242.96 1059.71L1239.71 1064.61C867.903 818.01 669.018 770.764 496.691 759.019C458.973 756.448 422.463 755.582 385.645 754.708C254.039 751.583 118.504 748.366 -90.1454 666.902C-412.269 541.132 -603.725 457.284 -721.046 377.375L-717.74 372.521C-601.068 451.987 -410.265 535.609 -88.0091 661.43C119.602 742.489 254.003 745.687 385.466 748.816L385.472 748.816C422.391 749.695 459.078 750.568 497.09 753.159ZM1247.5 1041.44C878.889 800.9 680.119 752.855 506.779 739.914C468.129 737.028 430.808 735.886 393.195 734.735L393.194 734.735L393.193 734.735L393.191 734.735L393.19 734.735L393.189 734.735L393.188 734.735L393.186 734.734L393.185 734.734L393.183 734.734L393.181 734.734L393.179 734.734L393.177 734.734L393.175 734.734L393.174 734.734L393.172 734.733L393.17 734.733L393.168 734.733C262.284 730.726 127.859 726.611 -78.3935 648.604C-402.032 526.227 -593.198 445.34 -713.825 366.218L-716.989 371.042C-595.737 450.575 -403.948 531.671 -80.4346 654.001C126.792 732.376 262.291 736.517 393.312 740.521L393.313 740.521L393.314 740.522L393.315 740.522L393.316 740.522L393.318 740.522L393.319 740.522L393.32 740.522L393.321 740.522L393.322 740.522L393.323 740.522L393.324 740.522L393.325 740.522L393.326 740.522L393.327 740.522L393.328 740.522L393.33 740.523L393.331 740.523C430.844 741.669 467.991 742.804 506.349 745.668C678.496 758.52 876.341 806.127 1244.35 1046.27L1247.5 1041.44ZM516.472 726.694C689.574 740.737 887.263 789.113 1252.06 1023.19L1249 1027.96C884.79 794.258 687.983 746.293 516.014 732.341C476.927 729.17 439.06 727.758 400.757 726.33C270.378 721.469 134.961 716.421 -70.7351 641.159C-395.608 522.291 -587.776 443.902 -712.938 364.767L-709.911 359.978C-585.351 438.731 -393.778 516.927 -68.7883 635.838C135.998 710.767 270.399 715.784 400.646 720.645L400.648 720.646L400.651 720.646L400.653 720.646L400.655 720.646L400.657 720.646L400.659 720.646L400.661 720.646L400.663 720.647L400.665 720.647L400.667 720.647L400.669 720.647L400.671 720.647L400.672 720.647C439.067 722.08 477.102 723.5 516.472 726.694ZM1256.6 1004.94C895.631 777.319 699.017 728.61 526.152 713.46C485.976 709.939 447.146 708.229 407.879 706.5L407.873 706.5C278.328 700.796 144.012 694.882 -59.1725 623.036C-385.564 507.608 -577.517 432.086 -705.982 353.697L-708.883 358.452C-579.834 437.197 -387.309 512.898 -61.0294 628.287C143.004 700.433 278.281 706.384 407.954 712.089L407.955 712.089L407.956 712.089L407.956 712.089L407.957 712.089L407.957 712.089L407.958 712.089L407.958 712.089L407.959 712.089L407.959 712.089L407.96 712.09L407.96 712.09L407.961 712.09L407.962 712.09L407.962 712.09L407.963 712.09L407.963 712.09L407.964 712.09L407.964 712.09L407.965 712.09L407.965 712.09L407.966 712.09L407.967 712.09L407.967 712.09L407.968 712.09L407.968 712.09C447.132 713.813 485.784 715.513 525.666 719.008C697.456 734.064 893.228 782.389 1253.62 1009.65L1256.6 1004.94ZM535.798 700.273C708.436 716.515 903.993 765.533 1261.13 986.688L1258.26 991.335C901.664 770.519 706.907 721.861 535.287 705.715C494.565 701.883 455.084 699.884 415.007 697.856L415.004 697.856L415 697.856L414.997 697.855L414.994 697.855L414.991 697.855L414.987 697.855L414.984 697.855L414.981 697.854L414.977 697.854L414.974 697.854L414.971 697.854L414.968 697.853L414.964 697.853L414.961 697.853L414.958 697.853L414.954 697.853L414.951 697.852L414.948 697.852L414.944 697.852L414.941 697.852L414.938 697.851L414.935 697.851L414.931 697.851L414.928 697.851L414.925 697.85L414.921 697.85C286 691.324 150.922 684.486 -51.323 615.417C-379.026 503.514 -571.859 430.49 -704.837 352.159L-702.063 347.449C-569.65 425.447 -377.367 498.306 -49.5566 610.245C151.901 679.045 286.073 685.841 414.869 692.365L414.87 692.365L414.871 692.365L414.872 692.365L414.872 692.365L414.873 692.365L414.874 692.365L414.874 692.365L414.875 692.365L414.876 692.365L414.877 692.365L414.877 692.366L414.878 692.366L414.879 692.366L414.88 692.366L414.88 692.366L414.881 692.366L414.882 692.366L414.883 692.366L414.883 692.366L414.884 692.366L414.885 692.366L414.885 692.366L414.886 692.366L414.887 692.366L414.888 692.366L414.888 692.366C455.088 694.402 494.764 696.412 535.798 700.273ZM1265.68 968.44C912.365 753.744 717.875 704.418 545.468 687.082C503.461 682.858 462.83 680.533 421.575 678.172C293.61 670.85 159.65 663.184 -39.9475 597.448C-369.178 489.018 -561.79 418.817 -698.14 341.19L-700.793 345.85C-563.894 423.788 -370.753 494.144 -41.6247 602.541C158.699 668.516 293.513 676.227 421.599 683.554L421.601 683.554L421.603 683.554L421.604 683.554L421.606 683.554L421.607 683.554L421.609 683.555L421.611 683.555L421.612 683.555L421.614 683.555L421.616 683.555L421.617 683.555L421.619 683.555L421.621 683.555L421.622 683.555L421.624 683.556L421.626 683.556L421.627 683.556L421.629 683.556L421.631 683.556L421.632 683.556L421.634 683.556L421.635 683.556L421.637 683.556L421.639 683.557L421.64 683.557L421.642 683.557L421.644 683.557C462.784 685.91 503.231 688.223 544.932 692.417C716.378 709.656 910.107 758.646 1262.9 973.023L1265.68 968.44ZM555.116 673.899C727.299 692.322 920.737 741.951 1270.23 950.188L1267.53 954.712C918.548 746.776 725.832 697.461 554.556 679.134C511.764 674.556 470.247 671.911 427.92 669.215L427.916 669.215C300.75 661.115 166.289 652.55 -31.922 589.673C-362.499 484.802 -555.957 417.087 -696.753 339.535L-694.213 334.922C-553.951 412.18 -361.006 479.751 -30.3299 584.654C167.214 647.32 300.871 655.835 427.916 663.929L427.92 663.93C470.345 666.633 512.033 669.289 555.116 673.899ZM1274.77 931.94C929.106 730.175 736.713 680.252 564.749 660.741C520.478 655.717 477.627 652.711 433.906 649.643L433.904 649.643L433.903 649.643L433.901 649.643L433.899 649.643L433.898 649.643L433.896 649.643L433.894 649.643L433.893 649.643L433.891 649.642L433.89 649.642L433.888 649.642L433.886 649.642L433.885 649.642L433.883 649.642L433.881 649.642L433.88 649.642L433.878 649.642L433.876 649.641L433.875 649.641L433.873 649.641L433.871 649.641L433.87 649.641L433.868 649.641L433.866 649.641L433.865 649.641L433.863 649.64L433.862 649.64L433.86 649.64L433.858 649.64C307.83 640.799 174.578 631.451 -20.7125 571.858C-352.852 470.502 -546.08 405.538 -690.287 328.666L-692.715 333.221C-547.988 410.37 -354.263 475.469 -22.219 576.795C173.679 636.574 307.686 645.973 433.834 654.821C477.474 657.882 520.172 660.877 564.167 665.869C735.278 685.284 926.988 734.916 1272.17 936.397L1274.77 931.94ZM574.332 647.581C746.079 668.17 937.431 718.376 1279.27 913.688L1276.76 918.079C935.384 723.031 744.675 673.095 573.73 652.603C528.39 647.168 484.373 643.802 439.259 640.353C314.241 630.795 180.801 620.593 -12.563 563.912C-346.081 466.13 -540.075 403.654 -688.717 326.903L-686.396 322.409C-538.262 398.898 -344.752 461.25 -11.1403 559.059C181.674 615.579 314.406 625.727 439.304 635.276L439.305 635.276L439.305 635.276L439.306 635.276L439.306 635.276L439.307 635.276L439.307 635.276L439.308 635.276L439.308 635.277L439.309 635.277L439.31 635.277L439.31 635.277L439.311 635.277L439.311 635.277L439.312 635.277L439.312 635.277L439.313 635.277L439.313 635.277L439.314 635.277L439.314 635.277L439.315 635.277L439.316 635.277L439.316 635.277L439.317 635.277L439.317 635.277L439.318 635.277L439.318 635.277L439.319 635.277L439.319 635.277L439.32 635.277L439.32 635.277C484.525 638.734 528.703 642.111 574.332 647.581ZM1283.86 895.44C945.845 706.581 755.525 656.098 583.988 634.438C536.828 628.483 491.158 624.709 444.274 620.834C320.644 610.617 188.575 599.702 -1.48766 546.27C-336.622 452.058 -530.363 392.263 -682.431 316.156L-684.651 320.593C-532.086 396.949 -337.874 456.86 -2.83039 551.047C187.725 604.617 320.457 615.587 444.209 625.815L444.213 625.816C491.001 629.683 536.506 633.443 583.366 639.361C754.15 660.926 943.864 711.157 1281.44 899.771L1283.86 895.44ZM593.599 621.308C764.927 644.034 954.22 694.786 1288.41 877.193L1286.08 881.457C952.307 699.276 763.584 648.756 592.96 626.123C544.367 619.677 497.17 615.491 448.461 611.17L448.458 611.17L448.451 611.169C326.135 600.319 194.29 588.624 6.87869 538.188C-329.643 447.615 -524.129 390.263 -680.61 314.283L-678.488 309.913C-522.495 385.657 -328.47 442.9 8.141 533.498C195.117 583.817 326.341 595.455 448.532 606.292L448.536 606.292C497.339 610.621 544.701 614.821 593.599 621.308ZM1292.95 858.945C962.588 683.011 774.319 632.001 603.198 608.204C552.322 601.13 503.038 596.464 452.035 591.635L452.034 591.635L452.033 591.635L452.032 591.635C331.464 580.221 201.288 567.897 17.7564 520.689C-320.356 433.711 -514.634 379.029 -674.552 303.649L-676.578 307.949C-516.182 383.554 -321.452 438.338 16.5722 525.293C200.48 572.598 331.24 584.979 451.937 596.408L451.939 596.408C502.853 601.229 551.976 605.881 602.543 612.913C773.007 636.617 960.743 687.414 1290.71 863.14L1292.95 858.945ZM612.791 595.102C783.71 619.957 970.961 671.217 1297.5 840.688L1295.35 844.822C969.18 675.54 782.426 624.477 612.12 599.711C559.277 592.026 507.934 586.868 454.45 581.496L454.449 581.495L454.448 581.495C335.611 569.558 206.204 556.558 26.2727 512.417C-313.281 429.119 -508.241 376.816 -672.546 301.598L-670.608 297.363C-506.774 372.365 -312.257 424.574 27.3825 507.893C206.997 551.957 335.855 564.898 454.555 576.818L454.558 576.819C508.127 582.198 559.627 587.371 612.791 595.102ZM1302.05 822.456C979.335 659.44 793.103 607.928 622.387 582.011C566.534 573.531 512.434 567.797 455.814 561.797L455.813 561.796C339.296 549.447 212.107 535.967 37.0072 495.101C-304.176 415.454 -498.893 365.735 -666.67 291.15L-668.52 295.311C-500.279 370.101 -305.128 419.908 35.9724 499.535C211.325 540.46 339.035 554.001 455.699 566.37L455.701 566.37C512.24 572.364 566.186 578.084 621.703 586.513C791.85 612.344 977.621 663.675 1299.99 826.52L1302.05 822.456ZM455.548 546.551C690.186 572.677 877.444 593.527 1306.59 804.21L1304.63 808.204C876.16 597.853 689.862 577.128 455.618 551.068L455.617 551.068C341.517 538.375 216.041 524.416 45.6604 486.66C-296.98 410.723 -492.336 363.385 -664.487 288.989L-662.722 284.905C-491.028 359.103 -296.098 406.361 46.6231 482.316C216.267 519.909 341.504 533.853 455.548 546.551ZM1311.13 785.96C880.103 580.613 693.798 558.95 453.41 530.998L453.409 530.998C342.376 518.087 219.804 503.834 56.2497 469.52C-288.028 397.291 -483.169 352.474 -658.778 278.649L-660.465 282.662C-484.404 356.677 -288.842 401.568 55.3557 473.78C219.504 508.219 342.282 522.489 453.368 535.4L453.368 535.4L453.371 535.4C693.426 563.3 878.883 584.855 1309.26 789.89L1311.13 785.96ZM448.702 515.048C696.325 544.96 881.487 567.327 1315.68 767.715L1313.9 771.573C880.328 571.472 695.908 549.2 448.561 519.328C341.122 506.353 221.811 491.944 65.0525 460.905C-280.705 392.437 -476.445 349.961 -656.44 276.338L-654.832 272.405C-475.283 345.846 -279.956 388.254 65.878 456.737C222.172 487.684 341.311 502.075 448.701 515.048L448.702 515.048ZM1320.22 749.47C881.183 553.545 697.411 530.614 440.481 498.554L440.48 498.554L440.479 498.554C337.585 485.715 222.957 471.411 75.5019 443.946C-271.9 379.243 -467.417 339.216 -650.874 266.162L-652.408 270.014C-468.51 343.243 -272.585 383.332 74.7428 448.021C222.545 475.551 337.311 489.87 440.246 502.714C696.951 534.743 880.078 557.592 1318.53 753.256L1320.22 749.47ZM427.338 481.312L427.338 481.312C696.64 515.792 878.567 539.085 1324.78 731.222L1323.17 734.941C877.511 543.039 696.139 519.817 427.02 485.36C329.805 472.913 221.14 459 84.4302 435.141C-264.469 374.25 -460.57 336.528 -648.403 263.69L-646.939 259.915C-459.543 332.583 -263.844 370.249 85.1264 431.152C221.593 454.969 330.155 468.869 427.338 481.312ZM1329.31 712.978C872.72 523.693 693.43 500.339 407.088 463.04C317.412 451.359 217.237 438.31 94.7554 418.369C-255.793 361.293 -451.671 325.954 -642.994 253.706L-644.387 257.397C-452.633 329.808 -256.359 365.198 94.1215 422.263C216.756 442.229 317.002 455.288 406.699 466.972C692.895 504.253 871.711 527.546 1327.8 716.622L1329.31 712.978ZM376.108 443.284C687.029 484.03 862.277 506.997 1333.86 694.735L1332.44 698.303C861.313 510.747 686.466 487.833 375.667 447.102C296.304 436.701 208.077 425.138 103.789 409.376C-248.275 356.165 -444.713 323.094 -640.39 250.993L-639.062 247.389C-443.813 319.332 -247.766 352.357 104.363 405.578C208.567 421.328 296.754 432.885 376.104 443.283L376.106 443.284L376.108 443.284ZM1338.41 676.488C845.022 488.399 676.502 466.537 328.009 421.329C263.831 413.004 193.55 403.886 114.012 392.793C-239.692 343.454 -435.922 312.701 -635.088 241.179L-636.354 244.704C-436.764 316.378 -240.147 347.172 113.494 396.503C193.067 407.6 263.366 416.72 327.548 425.046C675.919 470.239 844.102 492.056 1337.08 679.987L1338.41 676.488ZM708.45 464.911C877.461 500.103 1054.71 553.361 1342.95 658.246L1341.71 661.667C1053.53 556.809 876.473 503.617 707.708 468.475C568.922 439.576 435.733 422.88 250.909 399.711C210.942 394.701 168.56 389.388 123.186 383.584C-232.036 338.168 -428.82 309.624 -632.337 238.342L-631.133 234.906C-428.036 306.041 -231.632 334.549 123.648 379.972C168.992 385.772 211.355 391.083 251.312 396.092L251.313 396.092C436.146 419.261 569.509 435.979 708.45 464.911ZM1347.5 640.004C778.545 443.108 642.535 426.413 133.282 367.218C-223.575 325.739 -420.159 299.448 -627.18 228.7L-628.323 232.047C-420.887 302.937 -223.93 329.259 132.874 370.732C641.938 429.904 777.686 446.554 1346.35 643.347L1347.5 640.004ZM142.909 354.432C651.062 407.605 790.802 437.79 1352.05 621.759L1350.98 625.029C789.932 441.126 650.432 410.999 142.551 357.855C-215.829 320.352 -412.95 296.219 -624.313 225.714L-623.224 222.45C-412.272 292.818 -215.52 316.925 142.909 354.432ZM1356.6 603.533C803.01 432.468 659.591 388.843 152.545 341.646C-207.49 308.135 -404.393 286.172 -619.262 216.212L-620.295 219.385C-405.02 289.478 -207.754 311.462 152.236 344.969C658.948 392.134 802.116 435.684 1355.62 606.721L1356.6 603.533ZM1186.91 534.439L1186.98 534.459L1187.03 534.473C1240.54 550.151 1298.19 567.043 1361.15 585.279L1360.25 588.384C1297.25 570.135 1239.56 553.234 1186.03 537.549L1186 537.54C775.638 417.307 609.133 368.522 161.922 332.082C-199.609 302.61 -397.091 282.782 -616.283 213.054L-615.303 209.973C-396.513 279.574 -199.386 299.384 162.184 328.859C609.731 365.327 776.507 414.192 1186.91 534.439ZM1365.7 567.036C1279.79 543.857 1203.73 522.862 1134.51 503.755C770.053 403.154 595.296 354.916 171.849 316.077C123.278 311.62 77.6606 307.582 34.5424 303.766L34.5336 303.765C-244.162 279.098 -418.467 263.67 -611.345 203.731L-612.275 206.727C-419.056 266.772 -244.384 282.231 34.2714 306.892C77.3935 310.708 123.006 314.745 171.562 319.201C594.721 358.014 769.234 406.184 1133.64 506.771L1133.66 506.775C1202.88 525.881 1278.95 546.88 1364.88 570.064L1365.7 567.036ZM1037.2 461.977L1037.2 461.977C1132.78 487.588 1240.25 516.385 1370.25 548.805L1369.51 551.747C1239.41 519.302 1131.89 490.492 1036.29 464.877C741.886 385.992 560.594 337.415 181.242 306.314C130.031 302.116 82.0954 298.367 36.8955 294.832L36.8079 294.826L36.8064 294.825C-239.187 273.242 -413.193 259.634 -608.253 200.397L-607.372 197.495C-412.65 256.63 -239.007 270.211 37.0157 291.799C82.2438 295.336 130.221 299.088 181.49 303.291C561.131 334.416 742.702 383.068 1037.2 461.977ZM964.779 425.356L964.778 425.356C716.97 357.013 534.295 306.634 191.097 290.504C-175.133 273.29 -372.856 259.689 -603.427 191.257L-604.26 194.065C-373.304 262.611 -175.244 276.216 190.959 293.429C533.826 309.544 716.099 359.815 963.732 428.112L963.737 428.113L963.743 428.115C1078.85 459.862 1208.09 495.505 1374.14 533.422L1374.79 530.567C1209.01 492.712 1079.88 457.099 964.798 425.361L964.795 425.36L964.793 425.36L964.791 425.359L964.789 425.359L964.787 425.358L964.786 425.358L964.784 425.357L964.782 425.357L964.78 425.356L964.779 425.356ZM935.988 402.541C1060.1 436.797 1197.73 474.787 1379.35 512.326L1378.77 515.1C1197.07 477.541 1059.28 439.512 935.143 405.248C883.2 390.91 833.645 377.233 784.259 364.524C616.841 321.443 451.199 289.45 200.632 280.55C-167.105 267.49 -365.379 255.897 -600.253 187.729L-599.464 185.008C-364.97 253.066 -167.025 264.658 200.732 277.719C451.539 286.627 617.387 318.658 784.965 361.781C834.423 374.508 884.016 388.196 935.981 402.539L935.988 402.541ZM1383.9 494.091C1191.36 458.586 1048.11 418.799 917.103 382.411L917.088 382.407C875.399 370.828 834.949 359.593 794.543 348.949C627.149 304.855 460.65 270.958 210.344 264.932C-158.942 256.017 -357.109 246.448 -595.535 178.77L-596.28 181.395C-357.481 249.179 -158.991 258.746 210.278 267.66C460.321 273.679 626.604 307.534 793.848 351.588C834.208 362.22 874.632 373.448 916.307 385.023C1047.33 421.417 1190.73 461.246 1383.41 496.774L1383.9 494.091ZM904.83 364.015C1041.3 402.302 1188.33 443.555 1388.46 475.855L1388.04 478.446C1187.75 446.12 1040.55 404.821 904.075 366.529L904.048 366.522C870.069 356.988 836.754 347.641 803.449 338.666C636.384 293.642 469.475 257.927 219.987 254.78C-150.781 250.103 -349.527 242.457 -592.244 175.065L-591.542 172.535C-349.191 239.826 -150.759 247.478 220.02 252.156C469.793 255.306 636.929 291.07 804.132 336.131C837.481 345.119 870.827 354.475 904.83 364.015ZM1393 457.62C1187.72 429.35 1038.09 386.835 897.195 346.803L897.193 346.803L897.192 346.802L897.191 346.802C869.141 338.832 841.437 330.961 813.709 323.319C646.693 277.294 478.911 239.663 229.659 239.37C-142.63 238.928 -341.302 233.202 -587.577 166.292L-588.238 168.725C-341.604 235.732 -142.626 241.449 229.657 241.891C478.606 242.183 646.15 279.759 813.039 325.75C840.738 333.383 868.42 341.248 896.455 349.214L896.475 349.22C1037.38 389.254 1187.19 431.822 1392.66 460.117L1393 457.62ZM892.943 330.436C1037.48 372.1 1188.89 415.747 1397.56 439.383L1397.29 441.793C1188.41 418.132 1036.8 374.428 892.254 332.761L892.225 332.753C868.925 326.036 845.808 319.373 822.665 312.854C655.96 265.903 487.781 226.468 239.331 229.013C-134.42 232.838 -333.684 229.012 -584.236 162.396L-583.613 160.053C-333.412 226.575 -134.447 230.413 239.306 226.588C488.075 224.04 656.502 263.536 823.322 310.52C846.474 317.041 869.594 323.705 892.893 330.421L892.943 330.436ZM1402.12 421.15C1191.39 402.597 1038.75 357.904 891.14 314.683L891.133 314.681L891.127 314.679C871.678 308.985 852.317 303.315 832.921 297.735C666.293 249.794 497.223 208.43 248.955 213.803C-126.288 221.921 -325.514 219.952 -579.648 153.816L-580.233 156.062C-325.756 222.287 -126.241 224.241 249.006 216.123C496.941 210.757 665.756 252.055 832.279 299.965C851.67 305.544 871.031 311.213 890.483 316.909C1038.1 360.132 1190.95 404.888 1401.92 423.462L1402.12 421.15ZM891.278 299.408C1041.48 344.118 1194.91 389.789 1406.66 402.919L1406.53 405.131C1194.51 391.985 1040.85 346.245 890.651 301.535C874.387 296.693 858.164 291.864 841.912 287.09C675.583 238.228 506.133 195.074 258.659 203.254C-118.083 215.692 -317.849 215.589 -576.234 149.75L-575.686 147.602C-317.635 213.356 -118.149 213.476 258.586 201.039C506.402 192.847 676.114 236.073 842.537 284.963C858.792 289.738 875.016 294.568 891.278 299.408ZM1411.23 384.664C1199.25 377.225 1045.32 330.614 892.883 284.456C879.319 280.349 865.767 276.245 852.187 272.173C685.97 222.332 515.622 177.235 268.28 188.218C-109.845 205.003 -309.699 206.691 -571.676 141.324L-572.189 143.382C-309.887 208.83 -109.763 207.122 268.374 190.337C515.365 179.369 685.446 224.388 851.578 274.204C865.129 278.268 878.654 282.363 892.193 286.463L892.239 286.477L892.285 286.491C1044.72 332.649 1198.89 379.334 1411.16 386.783L1411.23 384.664ZM895.664 269.84C1050.03 317.403 1204.23 364.912 1415.8 366.454L1415.78 368.471C1203.91 366.926 1049.46 319.338 895.096 271.776C883.814 268.299 872.532 264.823 861.229 261.365C695.287 210.601 524.56 163.719 278.012 177.466C-101.545 198.624 -302.006 202.15 -568.222 137.06L-567.743 135.101C-301.842 200.114 -101.642 196.61 277.899 175.452C524.805 161.686 695.803 208.65 861.818 259.437C873.106 262.89 884.37 266.36 895.632 269.83L895.634 269.83L895.635 269.831L895.636 269.831L895.638 269.832L895.639 269.832L895.64 269.833L895.641 269.833L895.643 269.834L895.664 269.84ZM1420.36 348.226C1209.71 352.746 1055.44 304.371 899.399 255.437C890.099 252.521 880.793 249.603 871.468 246.693C705.664 194.965 534.027 146.137 287.544 162.675C-93.3914 188.235 -293.938 193.466 -563.759 128.854L-564.205 130.714C-294.08 195.398 -93.2823 190.145 287.672 164.583C533.796 148.07 705.159 196.811 870.898 248.519C880.132 251.4 889.35 254.29 898.561 257.179L898.665 257.212L898.687 257.219L898.737 257.234L898.786 257.25L898.863 257.274C1054.9 306.205 1209.43 354.665 1420.4 350.139L1420.36 348.226ZM903.935 241.211C1061.45 291.492 1215.64 340.714 1424.92 329.993L1425.01 331.808C1215.39 342.545 1060.92 293.234 903.431 242.957L903.43 242.956C895.822 240.528 888.208 238.097 880.579 235.67C715.042 183.015 543.035 132.41 297.341 151.698C-84.9918 181.717 -286.165 188.676 -560.222 124.396L-559.808 122.628C-286.043 186.839 -85.1114 179.905 297.199 149.887C543.255 130.57 715.537 181.266 881.13 233.939C888.744 236.361 896.343 238.787 903.935 241.211ZM1429.49 311.766C1221.88 328.794 1067.88 278.755 909.06 227.154L908.452 226.956L907.519 226.653C901.95 224.844 896.375 223.032 890.791 221.222C725.412 167.617 552.493 115.056 306.853 137.102C-76.8133 171.538 -278.15 180.216 -555.842 116.393L-556.225 118.062C-278.253 181.95 -76.6856 173.246 307.006 138.808C552.287 116.794 724.932 169.262 890.263 222.852C896.38 224.834 902.487 226.819 908.587 228.801C1067.38 280.396 1221.67 330.529 1429.63 313.472L1429.49 311.766ZM914.779 213.228C1074.73 266.129 1228.43 316.964 1434.06 293.539L1434.24 295.137C1228.26 318.603 1074.26 267.669 914.34 214.777C909.557 213.195 904.769 211.611 899.974 210.028C734.861 155.503 561.578 101.175 316.666 125.924C-68.3956 164.829 -270.329 175.231 -552.224 111.72L-551.871 110.151C-270.244 173.602 -68.5295 163.226 316.504 124.324C561.771 99.5383 735.325 153.962 900.478 208.501L903.715 209.57L907.633 210.865L910.936 211.957L913.061 212.66L914.779 213.228ZM1438.63 275.315C1235.26 305.216 1081.93 253.6 920.959 199.415C917.369 198.206 913.775 196.997 910.176 195.786C745.236 140.314 571.03 84.0225 326.16 111.536C-60.1477 154.944 -262.349 166.976 -547.902 103.913L-548.228 105.39C-262.418 168.509 -60.009 156.45 326.329 113.039C570.849 85.5647 744.786 141.759 909.694 197.22L913.638 198.547L917.182 199.739L919.483 200.514L920.552 200.874C1081.48 255.048 1235.12 306.765 1438.85 276.811L1438.63 275.315ZM927.514 185.696C1089.37 241.147 1242.26 293.525 1443.21 257.089L1443.46 258.474C1242.15 294.976 1088.96 242.494 927.141 187.057C924.566 186.175 921.99 185.293 919.411 184.41C754.729 128.018 580.158 69.963 335.993 100.156C-51.6297 148.08 -254.505 161.783 -544.229 99.055L-543.931 97.6784C-254.45 160.354 -51.7705 146.679 335.82 98.7579C580.326 68.523 755.159 126.676 919.868 183.077L924.412 184.634L927.514 185.696ZM1447.79 238.863C1249.45 281.887 1097.07 228.763 934.428 172.058L929.573 170.366C765.098 113.035 589.635 53.0184 345.474 85.9733C-43.37 138.436 -246.55 153.739 -539.96 91.4445L-540.231 92.7205C-246.593 155.063 -43.2287 139.733 345.649 87.266C589.479 54.3557 764.688 114.274 929.143 171.598L934.088 173.322C1096.69 230.009 1249.37 283.24 1448.06 240.138L1447.79 238.863ZM941.64 158.509C1105 216.45 1256.82 270.297 1452.37 220.634L1452.67 221.805C1256.76 271.559 1104.64 217.604 941.332 159.682L938.911 158.823C774.681 100.575 598.82 38.7908 355.31 74.3803C-34.8076 131.412 -238.675 148.335 -536.235 86.3826L-535.989 85.1995C-238.643 147.107 -34.9482 130.211 355.135 73.1847C598.963 37.5487 775.071 99.4315 939.314 157.684L941.64 158.509ZM1456.98 202.41C1264.35 258.743 1113.15 204.188 949.172 145.021L949.088 144.99C785.084 85.8136 608.342 22.0697 364.831 60.4091C-26.4448 122.01 -230.71 140.494 -531.977 78.9683L-532.198 80.0503C-230.732 141.617 -26.3074 123.106 365.003 61.5C608.212 23.2081 784.718 86.8558 948.713 146.029L948.897 146.096C1112.82 205.241 1264.31 259.904 1457.29 203.47L1456.98 202.41ZM-528.016 72.7278C-222.818 133.839 -17.9993 113.791 374.479 47.5899C616.713 6.75908 793.627 71.6912 956.837 131.594L958.792 132.311C1122.55 192.414 1272.65 246.972 1461.54 184.183L1461.85 185.132C1272.6 248.044 1122.19 193.345 958.448 133.25L956.534 132.548C793.319 72.6439 616.618 7.78961 374.645 48.5763C-17.8668 114.783 -222.832 134.856 -528.212 73.7086L-528.016 72.7278ZM384.119 34.8335C-9.5235 105.652 -214.941 127.246 -524.066 66.495L-524.241 67.3822C-214.948 128.166 -9.39669 106.548 384.279 35.7234C625.111 -7.59933 802.045 58.4368 964.536 119.082L968.245 120.466C1131.74 181.48 1281.02 236.163 1466.45 166.799L1466.13 165.952C1281.05 235.184 1132.08 180.641 968.562 119.619L964.813 118.22C802.329 57.577 625.196 -8.53335 384.119 34.8335ZM273.691 39.3983L273.759 39.3887C311.81 33.8443 351.698 28.0324 393.784 22.0555C632.888 -35.6906 811.532 33.6514 975.684 98.435L979.476 99.9317C1142.16 164.146 1290.87 222.841 1470.72 147.726L1471.03 148.464C1290.87 223.705 1141.9 164.901 979.277 100.714L975.39 99.1794C811.239 34.3961 632.801 -34.8522 393.953 22.8379L393.935 22.8424L393.916 22.8451C351.769 28.8306 311.826 34.6506 273.722 40.2028C-49.2649 87.2651 -240.077 115.068 -520.222 61.0493L-520.07 60.2635C-240.065 114.256 -49.3852 86.4726 273.615 39.4093L273.691 39.3983Z" fill="#9B9DBA"/>
</svg>