<svg
          viewBox="0 0 1440 314"
          fill="none"
          xmlns="http://www.w3.org/2000/svg"
        >
          <path
            d="M1912.53 298.88C1699.32 336.757 1537.28 285.328 1368.65 231.806L1368.63 231.799C1363.61 230.208 1358.6 228.616 1353.57 227.024C1179.45 171.858 996.582 117.253 742.13 158.754C342.699 223.892 133.059 246.343 -162.687 186.754L-163.005 188.331C133.043 247.981 342.928 225.485 742.389 160.342C996.446 118.905 1179.01 173.405 1353.09 228.557C1358.14 230.159 1363.19 231.762 1368.23 233.363C1536.84 286.875 1699.21 338.411 1912.81 300.464L1912.53 298.88Z"
            fill="#9B9DBA"
          />
          <path
            d="M1374.54 215.363C1544.29 270.332 1705.98 322.69 1916.57 277.374L1916.88 278.852C1705.89 324.254 1543.87 271.785 1374.16 216.829C1370.35 215.594 1366.53 214.358 1362.71 213.122C1188.81 156.867 1005.49 100.224 751.949 144.819C351.335 215.286 141.02 239.739 -159.089 180.747L-158.798 179.263C141.023 238.198 351.106 213.791 751.687 143.329C1005.62 98.6656 1189.24 155.417 1363.17 211.683C1366.97 212.91 1370.76 214.137 1374.54 215.363Z"
            fill="#9B9DBA"
          />
          <path
            d="M1920.62 255.865C1712.8 308.681 1551.56 255.411 1380.83 199.011C1378.14 198.124 1375.46 197.236 1372.77 196.348C1199.04 138.987 1014.69 80.0958 761.245 127.916C359.504 203.709 148.987 230.058 -154.909 171.777L-155.175 173.16C148.996 231.494 359.731 205.1 761.506 129.3C1014.57 81.5513 1198.62 140.333 1372.33 197.686C1375.05 198.584 1377.76 199.482 1380.48 200.379C1551.16 256.764 1712.75 310.148 1920.97 257.23L1920.62 255.865Z"
            fill="#9B9DBA"
          />
          <path
            d="M1387.49 182.734C1559.09 240.557 1719.83 294.724 1924.67 234.355L1925.04 235.606C1719.81 296.092 1558.72 241.808 1387.18 184.005L1381.96 182.246C1208.46 123.794 1023.67 62.8706 771.055 113.774C368.151 194.937 156.97 223.256 -151.259 165.572L-151.02 164.29C156.953 221.926 367.929 193.652 770.797 112.495C1023.78 61.5182 1208.85 122.551 1382.37 181.01L1387.49 182.734Z"
            fill="#9B9DBA"
          />
          <path
            d="M1928.73 212.843C1727.05 280.815 1566.86 225.777 1394.47 166.547L1392.02 165.705C1218.71 106.16 1032.88 42.9824 780.357 97.0705C376.377 183.616 164.927 213.775 -147.129 156.792L-147.347 157.981C164.952 215.008 376.593 184.805 780.61 98.252C1032.78 44.2395 1218.33 107.307 1391.63 166.848L1394.19 167.727C1566.51 226.935 1727.04 282.092 1929.12 213.988L1928.73 212.843Z"
            fill="#9B9DBA"
          />
          <path
            d="M1401.79 150.414C1574.86 211.042 1734.44 266.939 1932.82 191.333L1933.22 192.365C1734.45 268.114 1574.54 212.099 1401.53 151.495L1401.34 151.426C1228.24 90.7922 1041.95 25.5836 790.198 82.734C385.118 174.686 172.959 206.77 -143.39 150.393L-143.197 149.306C172.929 205.643 384.91 173.6 789.953 81.6571C1042.04 24.4307 1228.6 89.7472 1401.7 150.384L1401.79 150.414Z"
            fill="#9B9DBA"
          />
          <path
            d="M799.501 66.1953C393.387 163.569 180.889 197.463 -139.314 141.812L-139.485 142.798C180.924 198.485 393.584 164.55 799.735 67.1681C1050.11 7.16997 1236.65 73.7771 1408.96 135.304L1410.97 136.024C1583.84 197.745 1742.62 253.859 1937.25 170.742L1936.86 169.822C1742.63 252.769 1584.2 196.812 1411.31 135.082L1409.25 134.345C1236.94 72.8208 1050.16 6.12777 799.501 66.1953Z"
            fill="#9B9DBA"
          />
          <path
            d="M-135.447 134.33C188.832 189.359 401.893 153.63 809.039 50.8093C1058.4 -12.1578 1245.45 55.8988 1417.03 118.324L1420.99 119.765C1593.66 182.58 1750.91 238.576 1940.93 148.308L1941.31 149.125C1750.92 239.573 1593.32 183.42 1420.68 120.614L1416.76 119.19C1245.18 56.7616 1058.35 -11.2128 809.261 51.686C402.079 154.515 188.87 190.283 -135.599 135.221L-135.447 134.33Z"
            fill="#9B9DBA"
          />
          <path
            d="M694.241 61.7863L694.182 61.7989L694.149 61.806C359.634 133.286 162.163 175.482 -131.529 126.844L-131.66 127.634C162.189 176.297 359.807 134.069 694.306 62.5911L694.31 62.5903L694.367 62.5781C733.811 54.1495 775.158 45.3143 818.791 36.1735L818.812 36.1691L818.832 36.1626C1065.29 -43.3976 1253.81 28.2468 1427.28 95.4182L1431.39 97.0095C1603.25 163.563 1760.7 224.54 1945.37 127.504L1944.99 126.796C1760.65 223.661 1603.51 162.807 1431.58 96.2234L1427.57 94.6719C1254.1 27.5011 1065.34 -44.2494 818.606 35.3946C775.001 44.5297 733.681 53.3589 694.263 61.7817L694.241 61.7863Z"
            fill="#9B9DBA"
          />
        </svg> 