      <svg
        viewBox="0 0 1440 711"
        fill="#fff"
        xmlns="http://www.w3.org/2000/svg"
      >
        <path
          fill-rule="evenodd"
          clip-rule="evenodd"
          d="M784.306 -1101.82C671.875 -852.553 575.095 -700.212 487.835 -604.42C453.235 -566.437 420.142 -537.355 388.186 -514.652C420.94 -536.66 454.893 -565.069 490.385 -602.553C578.315 -695.419 675.776 -844.081 787.696 -1089.35L794.881 -1086.07C682.783 -840.412 584.892 -690.877 496.121 -597.123C407.238 -503.251 327.588 -465.397 252.305 -442.916C225.233 -434.832 198.664 -428.721 172.568 -422.72L172.566 -422.72L172.565 -422.719C162.527 -420.411 152.558 -418.118 142.657 -415.735C106.921 -407.135 71.847 -397.316 36.6572 -381.243C-33.569 -349.168 -104.782 -291.944 -181.912 -168.688C-267.41 -32.062 -333.478 82.7249 -377.968 175.039C-409.648 240.773 -430.23 294.807 -439.221 337.067C-428.686 294.174 -407.098 240.761 -375.359 177.076C-329.588 85.239 -262.413 -28.5113 -175.833 -163.809C-97.4013 -286.376 -24.8271 -344.412 47.0875 -377.43C82.9716 -393.905 118.568 -404.093 154.371 -413.001C164.287 -415.468 174.203 -417.834 184.143 -420.205L184.144 -420.205C210.187 -426.418 236.396 -432.671 263.211 -440.893C337.015 -463.525 414.966 -500.974 502.332 -592.965C589.806 -685.069 686.804 -831.943 798.384 -1073.6L805.468 -1070.33C693.71 -828.287 596.286 -680.563 507.99 -587.592C419.587 -494.509 340.421 -456.408 265.498 -433.434C238.429 -425.134 211.856 -418.794 185.731 -412.561L185.725 -412.56C175.838 -410.201 166.016 -407.858 156.255 -405.43C120.607 -396.56 85.5651 -386.51 50.343 -370.339C-19.955 -338.063 -91.4677 -281.173 -169.261 -159.603C-255.785 -24.393 -322.788 89.0866 -368.376 180.556C-402.045 248.113 -423.874 303.364 -433.38 346.348C-422.262 302.697 -399.389 248.058 -365.644 182.555C-318.777 91.5802 -250.666 -20.8524 -163.049 -154.739C-83.9617 -275.597 -11.1182 -333.243 60.7941 -366.432C96.6806 -382.995 132.219 -393.412 167.926 -402.588C177.674 -405.093 187.419 -407.502 197.185 -409.917L197.194 -409.919L197.202 -409.921L197.21 -409.923L197.219 -409.925L197.22 -409.925L197.223 -409.926C223.308 -416.375 249.543 -422.86 276.368 -431.303C349.852 -454.43 427.359 -492.142 514.276 -583.377C601.295 -674.719 697.833 -819.804 809.076 -1057.85L816.051 -1054.59C704.63 -816.164 607.672 -670.252 519.849 -578.067C431.924 -485.773 353.243 -447.426 278.679 -423.959C251.605 -415.438 225.018 -408.866 198.855 -402.398C189.126 -399.993 179.457 -397.603 169.842 -395.132C134.282 -385.994 99.2736 -375.713 64.0201 -359.442C-6.34729 -326.966 -78.1565 -270.409 -156.608 -150.524C-244.169 -16.7203 -312.114 95.4549 -358.8 186.08C-394.576 255.526 -417.71 312.025 -427.743 355.758C-416.029 311.321 -391.811 255.423 -355.942 188.033C-307.978 97.9198 -238.925 -13.1974 -150.27 -145.675L-147.286 -143.678L-150.27 -145.675C-70.5358 -264.811 2.57285 -322.061 74.4827 -355.419C110.371 -372.067 145.852 -382.713 181.464 -392.157C191.049 -394.699 200.63 -397.151 210.229 -399.607L210.23 -399.608L210.231 -399.608L210.232 -399.608L210.233 -399.609L210.234 -399.609L210.235 -399.609L210.235 -399.609L210.236 -399.609L210.236 -399.61L210.237 -399.61C236.381 -406.3 262.658 -413.025 289.512 -421.696C362.678 -445.321 439.743 -483.3 526.212 -573.782C612.779 -664.367 708.857 -807.666 819.758 -1042.1L826.623 -1038.85C715.544 -804.043 619.053 -659.94 531.702 -568.535C444.253 -477.028 366.052 -438.43 291.846 -414.469C264.75 -405.72 238.136 -398.909 211.92 -392.2L211.918 -392.2C202.364 -389.755 192.863 -387.323 183.41 -384.817C147.938 -375.409 112.962 -364.898 77.6785 -348.53C7.24344 -315.856 -64.8582 -259.64 -143.958 -141.451C-232.561 -9.0531 -301.451 101.82 -349.238 191.602C-387.142 262.813 -411.61 320.472 -422.222 364.935C-409.855 319.724 -384.267 262.648 -346.249 193.479C-297.195 104.231 -227.212 -5.56068 -137.509 -136.629L-134.415 -134.512L-137.509 -136.629C-57.1408 -254.047 16.2285 -310.904 88.1368 -344.431C124.028 -361.165 159.452 -372.038 194.97 -381.749C204.361 -384.316 213.746 -386.8 223.146 -389.287L223.162 -389.291L223.165 -389.292L223.168 -389.293L223.181 -389.297L223.183 -389.297L223.195 -389.3C249.409 -396.237 275.739 -403.204 302.631 -412.107C375.483 -436.228 452.113 -474.469 538.139 -564.194C624.26 -654.017 719.883 -795.528 830.445 -1026.35L837.208 -1023.11C726.468 -791.919 630.438 -649.626 543.552 -559.005C456.572 -468.286 378.844 -429.442 304.988 -404.989C277.86 -396.008 251.207 -388.955 224.927 -382.001C215.554 -379.521 206.23 -377.054 196.948 -374.516C161.561 -364.841 126.619 -354.099 91.3053 -337.635C20.8051 -304.765 -51.5838 -248.89 -131.322 -132.394C-220.972 -1.40134 -290.798 108.158 -339.678 197.09C-379.999 270.451 -405.908 329.498 -417.046 374.818C-404.063 328.736 -376.99 270.284 -336.544 198.998C-286.396 110.613 -215.47 2.13012 -124.702 -127.538C-43.7073 -243.249 29.9161 -299.723 101.819 -333.425C137.71 -350.248 173.076 -361.351 208.499 -371.332C217.708 -373.926 226.911 -376.443 236.125 -378.962L236.129 -378.963L236.133 -378.964L236.138 -378.966L236.142 -378.967L236.146 -378.968L236.15 -378.969L236.155 -378.97C262.444 -386.159 288.832 -393.374 315.768 -402.516C388.305 -427.136 464.499 -465.642 550.083 -554.611C635.757 -643.673 730.926 -783.395 841.15 -1010.6L847.802 -1007.37C737.402 -779.803 641.832 -639.323 555.412 -549.485C468.903 -459.553 391.648 -420.462 318.145 -395.515C290.979 -386.295 264.281 -378.994 237.931 -371.79L237.93 -371.789C228.747 -369.279 219.607 -366.779 210.504 -364.214C175.205 -354.269 140.298 -343.294 104.957 -326.729C34.3959 -293.656 -38.2753 -238.114 -118.644 -123.298C-209.362 6.29865 -280.134 114.561 -330.113 202.647C-372.893 278.046 -400.277 338.393 -412 384.54C-398.353 337.568 -369.768 277.803 -326.855 204.492C-275.621 116.966 -203.761 9.7987 -111.934 -118.466C-30.3206 -232.457 43.5538 -288.539 115.451 -322.411C151.343 -339.32 186.652 -350.651 221.98 -360.899C230.995 -363.515 240.002 -366.057 249.018 -368.602L249.019 -368.602C275.402 -376.049 301.864 -383.518 328.862 -392.907C401.087 -418.024 476.849 -456.795 561.994 -545.01C647.226 -633.313 741.944 -771.249 851.83 -994.844L858.372 -991.628C748.31 -767.674 653.198 -629.003 567.24 -539.947C481.197 -450.802 404.411 -411.462 331.257 -386.021C304.034 -376.555 277.273 -369.001 250.834 -361.539C241.858 -359.005 232.919 -356.482 224.011 -353.898C188.799 -343.683 153.926 -332.478 118.558 -315.816C47.9375 -282.546 -25.0131 -227.346 -106.006 -114.222C-197.785 13.9745 -269.496 120.933 -320.563 208.174C-365.651 285.2 -394.488 346.598 -406.936 393.536C-392.483 345.752 -362.406 284.927 -317.156 209.974C-264.837 123.313 -192.046 17.4649 -99.1487 -109.398C-16.9311 -221.677 57.1876 -277.374 129.078 -311.419C164.969 -328.415 200.222 -339.975 235.455 -350.49C244.257 -353.118 253.049 -355.677 261.848 -358.239C288.334 -365.95 314.882 -373.678 341.952 -383.32C413.866 -408.932 489.199 -447.965 573.908 -535.421C658.698 -622.962 752.966 -759.108 862.511 -979.09L868.951 -975.883C759.23 -755.548 664.574 -618.688 579.075 -530.416C493.495 -442.06 417.175 -402.474 344.366 -376.542C317.078 -366.824 290.246 -359.012 263.71 -351.287L263.708 -351.287L263.706 -351.286C254.945 -348.735 246.215 -346.194 237.513 -343.597C202.387 -333.113 167.55 -321.677 132.157 -304.917C61.4815 -271.448 -11.7411 -216.588 -93.3443 -105.147C-186.195 21.6509 -258.841 127.3 -310.997 213.692C-358.544 292.45 -388.907 354.957 -402.118 402.756C-386.849 354.089 -355.22 292.156 -307.492 215.473C-254.091 129.675 -180.362 25.1424 -86.3813 -100.324C-3.56231 -210.889 70.8001 -266.2 142.686 -300.417C178.577 -317.501 213.773 -329.289 248.914 -340.073C257.487 -342.703 266.049 -345.272 274.615 -347.843C301.222 -355.826 327.871 -363.822 355.03 -373.725C426.637 -399.836 501.545 -439.132 585.821 -525.832C670.175 -612.612 763.997 -746.969 873.203 -963.337L879.532 -960.143C770.151 -743.427 675.948 -608.378 590.905 -520.89C505.785 -433.322 429.926 -393.488 357.459 -367.064C330.088 -357.084 303.165 -349.006 276.513 -341.009L276.51 -341.008C267.979 -338.449 259.476 -335.897 250.994 -333.294C215.954 -322.541 181.151 -310.873 145.733 -294.015C75.0006 -260.347 1.50532 -205.828 -80.7067 -96.0735C-174.642 29.3325 -248.23 133.677 -301.473 219.22C-351.604 299.764 -383.544 363.403 -397.532 412.126C-381.391 362.504 -348.146 299.434 -297.814 220.967C-243.332 136.032 -168.671 32.8182 -73.5989 -91.2489C9.80959 -200.099 84.4089 -255.025 156.287 -289.414C192.177 -306.585 227.317 -318.601 262.364 -329.653C270.686 -332.277 278.996 -334.845 287.308 -337.414L287.312 -337.415L287.316 -337.416L287.319 -337.417L287.323 -337.418L287.326 -337.419L287.33 -337.42C314.073 -345.684 340.837 -353.955 368.1 -364.129C439.4 -390.737 513.886 -430.297 597.732 -516.24C681.651 -602.259 775.028 -734.827 883.895 -947.585L890.114 -944.402C781.072 -731.304 687.321 -598.067 602.732 -511.361C518.07 -424.581 442.668 -384.5 370.543 -357.584C343.074 -347.333 316.047 -338.981 289.265 -330.706L289.262 -330.705C280.975 -328.144 272.711 -325.591 264.465 -322.99C229.511 -311.968 194.743 -300.068 159.302 -283.112C88.5175 -249.246 14.756 -195.068 -68.0536 -86.9997C-163.082 37.0106 -237.607 140.046 -291.933 224.739C-344.583 306.818 -378.111 371.444 -393.022 421.103C-375.891 370.528 -341.025 306.471 -288.15 226.465C-232.589 142.394 -156.994 40.4966 -60.8263 -82.1728C23.1635 -189.308 97.9944 -243.849 169.862 -278.41C205.75 -295.669 240.832 -307.912 275.785 -319.231C283.854 -321.844 291.91 -324.406 299.966 -326.968L299.967 -326.968C326.861 -335.521 353.757 -344.074 381.139 -354.528C452.132 -381.633 526.196 -421.455 609.615 -506.642C693.103 -591.9 786.041 -722.682 894.576 -931.831L900.692 -928.657C791.983 -719.174 698.677 -587.744 614.538 -501.821C530.329 -415.827 455.383 -375.498 383.597 -348.091C356.013 -337.56 328.866 -328.927 301.936 -320.364L301.923 -320.36C293.901 -317.808 285.898 -315.264 277.908 -312.676C243.04 -301.385 208.31 -289.255 172.848 -272.201C102.017 -238.138 27.9955 -184.304 -55.4039 -77.9218C-151.529 44.6941 -226.992 146.422 -282.402 230.264C-337.846 314.157 -373.065 379.926 -388.889 430.664L-395.466 428.613C-395.181 427.699 -394.89 426.781 -394.593 425.858L-401.144 424.014C-400.869 423.037 -400.587 422.053 -400.297 421.064L-406.838 419.427C-406.576 418.38 -406.305 417.327 -406.026 416.266L-412.534 414.839C-412.29 413.725 -412.035 412.603 -411.771 411.473L-418.219 410.267C-417.997 409.077 -417.762 407.876 -417.515 406.666L-423.92 405.674C-423.727 404.422 -423.519 403.158 -423.297 401.882L-429.606 401.114C-429.539 400.56 -429.468 400.003 -429.395 399.443C-429.295 398.676 -429.19 397.903 -429.079 397.127L-435.275 396.581C-435.152 395.192 -435.012 393.786 -434.853 392.364L-440.953 392.034C-440.874 390.578 -440.775 389.103 -440.655 387.609L-446.628 387.494C-446.599 385.974 -446.546 384.433 -446.47 382.869L-452.301 382.964C-452.327 381.379 -452.326 379.769 -452.3 378.134L-457.968 378.43C-459.221 354.404 -453.32 325.096 -441.578 290.443C-429.818 255.74 -412.093 215.377 -389.432 169.149C-354.477 97.8382 -307.629 12.278 -252.525 -88.3605L-252.459 -88.4808C-236.16 -118.249 -219.138 -149.336 -201.489 -181.764L-201.391 -181.942L-201.277 -182.11C-117.88 -304.019 -42.7249 -360.736 30.298 -392.605C66.734 -408.507 102.517 -418.167 138.247 -426.693C146.473 -428.656 154.688 -430.557 162.905 -432.459L162.906 -432.459L162.907 -432.459C190.462 -438.836 218.048 -445.219 246.216 -453.97C319.067 -476.604 395.578 -515.025 481.919 -609.809C568.374 -704.717 664.743 -856.204 777.011 -1105.11L784.306 -1101.82ZM-272.443 -35.2842C-263.731 -51.2302 -254.77 -67.5965 -245.576 -84.3878L-245.57 -84.398C-229.268 -114.173 -212.233 -145.284 -194.557 -177.76C-147.018 -247.223 -102.34 -295.117 -59.3813 -329.201C-101.299 -293.657 -144.056 -244.073 -188.607 -172.878C-219.028 -124.266 -247.007 -78.3904 -272.443 -35.2842ZM911.25 -912.905C802.894 -707.048 710.044 -577.435 626.357 -492.298C542.605 -407.095 468.111 -366.52 396.66 -338.622C368.945 -327.8 341.661 -318.877 314.566 -310.016L314.565 -310.016L314.564 -310.015L314.563 -310.015L314.563 -310.015L314.562 -310.015L314.562 -310.015L314.561 -310.014L314.561 -310.014L314.56 -310.014L314.559 -310.013L314.559 -310.013L314.558 -310.013L314.557 -310.013L314.556 -310.013C306.808 -307.479 299.075 -304.95 291.352 -302.383C256.568 -290.823 221.874 -278.46 186.39 -261.308C115.509 -227.047 41.2282 -173.554 -42.752 -68.856C-139.988 52.3682 -216.391 152.791 -272.879 235.785C-329.396 318.823 -365.841 384.221 -383.323 435.426L-389.745 433.234C-371.96 381.142 -335.094 315.134 -278.488 231.967C-221.853 148.755 -145.322 48.1722 -48.0454 -73.1022C36.5152 -178.524 111.576 -232.683 183.437 -267.418C219.323 -284.764 254.35 -297.236 289.212 -308.823C297.004 -311.413 304.783 -313.957 312.56 -316.501L312.564 -316.502C339.629 -325.353 366.673 -334.198 394.192 -344.943C464.882 -372.545 538.529 -412.629 621.518 -497.055C704.572 -581.549 797.062 -710.537 905.245 -916.066L911.25 -912.905ZM409.692 -329.142C552.188 -386.025 705.761 -492.601 921.855 -897.177L915.961 -900.325C700.309 -496.577 547.747 -391.447 407.214 -335.347C379.535 -324.298 352.321 -315.151 325.062 -305.988L325.045 -305.983C317.572 -303.47 310.095 -300.957 302.604 -298.403C267.834 -286.549 232.863 -273.849 196.979 -256.414C125.13 -221.506 49.8497 -167.731 -35.2649 -64.0247C-133.661 55.8557 -211.13 155.124 -268.841 237.468C-326.525 319.775 -364.596 385.347 -384.056 437.812L-377.791 440.136C-358.634 388.489 -320.962 323.479 -263.369 241.303C-205.802 159.165 -128.458 60.0488 -30.0998 -59.7855C54.445 -162.797 128.975 -215.945 199.9 -250.404C235.403 -267.654 270.061 -280.248 304.761 -292.079C312.197 -294.614 319.64 -297.116 327.096 -299.622L327.101 -299.624C354.383 -308.794 381.824 -318.017 409.692 -329.142ZM932.44 -881.436C717.022 -484.099 564.547 -377.533 422.726 -319.673C394.612 -308.203 367.001 -298.668 339.465 -289.16L339.464 -289.159C228.531 -250.853 118.84 -212.975 -17.4515 -50.7163C-216.541 186.311 -330.519 340.498 -372.244 444.875L-378.36 442.43C-336.168 336.886 -221.416 181.875 -22.4946 -54.9522C115.039 -218.69 226.464 -257.147 337.626 -295.512C365.05 -304.977 392.458 -314.437 420.238 -325.771C560.181 -382.864 711.673 -488.05 926.65 -884.575L932.44 -881.436ZM435.736 -310.202C576.89 -369.038 728.28 -475.596 943.014 -865.692L937.336 -868.818C723.039 -479.516 572.602 -374.273 433.242 -316.185C405.266 -304.523 377.655 -294.742 350.001 -284.944L349.994 -284.942C239.487 -245.792 128.283 -206.395 -9.71326 -45.8722C-210.914 188.181 -327.144 340.703 -372.668 447.044L-366.709 449.595C-321.651 344.342 -206.153 192.586 -4.79795 -41.6467C132.003 -200.779 241.556 -239.61 351.846 -278.701C379.614 -288.544 407.428 -298.402 435.736 -310.202ZM953.595 -849.953C739.549 -467.08 589.233 -360.532 448.737 -300.726C420.214 -288.585 392.175 -278.392 364.152 -268.205L364.151 -268.204L364.15 -268.204L364.149 -268.204L364.148 -268.203L364.147 -268.203L364.147 -268.203L364.146 -268.202L364.145 -268.202L364.144 -268.201L364.143 -268.201L364.142 -268.201L364.142 -268.2L364.141 -268.2L364.14 -268.199L364.139 -268.199L364.138 -268.199L364.138 -268.198C254.506 -228.343 145.109 -188.573 7.85004 -32.5912C-195.799 198.837 -312.753 348.162 -361.166 454.305L-366.969 451.659C-318.092 344.499 -200.446 194.463 3.06195 -36.8046C141.469 -194.09 252.438 -234.414 362.274 -274.327L362.277 -274.327L362.279 -274.328L362.282 -274.329L362.284 -274.33L362.286 -274.331L362.289 -274.332L362.291 -274.333L362.294 -274.334L362.296 -274.335L362.298 -274.336L362.301 -274.337L362.303 -274.338L362.306 -274.339L362.308 -274.34L362.31 -274.34L362.313 -274.341L362.315 -274.342C390.219 -284.482 418.05 -294.595 446.239 -306.595C585.023 -365.671 734.416 -470.967 948.028 -853.065L953.595 -849.953ZM461.711 -291.276C601.551 -352.06 750.806 -458.596 964.18 -834.211L958.718 -837.314C745.774 -462.455 597.414 -357.112 459.207 -297.037C430.76 -284.673 402.665 -274.204 374.467 -263.696C265.317 -223.024 154.602 -181.768 15.837 -27.7163C-189.986 200.761 -309.052 348.331 -361.278 456.302L-355.622 459.038C-303.856 352.017 -185.449 205.111 20.5045 -23.512C158.169 -176.342 267.386 -217.056 376.342 -257.672C404.651 -268.225 432.943 -278.772 461.711 -291.276ZM974.754 -818.468C762.068 -450.096 613.871 -343.573 474.682 -281.817C445.641 -268.932 417.069 -258.018 388.445 -247.084L388.442 -247.083C280.185 -205.731 171.169 -164.088 33.1587 -14.446C-175.119 211.381 -294.963 355.851 -350.08 463.754L-355.581 460.943C-300.01 352.15 -179.539 207.061 28.6173 -18.6343C167.68 -169.417 278.119 -211.588 386.558 -252.995C415.075 -263.884 443.452 -274.719 472.176 -287.464C609.811 -348.531 757.143 -453.922 969.403 -821.557L974.754 -818.468ZM487.622 -272.356C626.168 -335.085 773.323 -441.597 985.332 -802.735L980.094 -805.81C768.505 -445.387 622.186 -339.949 485.117 -277.89C456.086 -264.745 427.395 -253.525 398.53 -242.236C290.822 -200.112 180.687 -157.04 41.4017 -9.54405C-169.112 213.365 -290.959 356.007 -349.881 465.596L-344.531 468.472C-286.058 359.718 -164.809 217.654 45.8176 -5.37381C184.1 -151.808 292.885 -194.366 400.419 -236.435C429.394 -247.77 458.277 -259.07 487.622 -272.356ZM995.927 -786.965C784.591 -433.087 638.475 -326.603 500.568 -262.912C470.886 -249.204 441.658 -237.5 412.299 -225.745C305.508 -182.984 196.97 -139.524 58.4604 3.68009C-154.531 223.895 -277.185 363.512 -338.994 473.159L-344.195 470.227C-281.943 359.796 -158.716 219.635 54.1693 -0.470338C193.633 -144.661 303.449 -188.62 410.405 -231.434C439.656 -243.143 468.693 -254.767 498.065 -268.332C634.569 -331.375 779.88 -436.841 990.802 -790.026L995.927 -786.965ZM513.497 -253.476C650.767 -318.138 795.846 -424.611 1006.49 -771.274L1001.47 -774.324C791.234 -428.333 646.932 -322.825 510.994 -258.79C481.241 -244.775 451.816 -232.723 422.133 -220.565C315.965 -177.082 206.501 -132.248 66.9467 8.61244C-148.335 225.91 -272.914 363.653 -338.506 474.873L-333.447 477.857C-268.291 367.377 -144.262 230.145 71.1194 12.7464C209.768 -127.2 318.021 -171.549 424.032 -214.979L424.036 -214.981L424.036 -214.981L424.037 -214.981L424.038 -214.982L424.038 -214.982L424.039 -214.982L424.04 -214.983L424.04 -214.983L424.041 -214.983L424.042 -214.984L424.042 -214.984L424.043 -214.984L424.044 -214.984L424.044 -214.985L424.045 -214.985L424.046 -214.985L424.046 -214.986L424.047 -214.986L424.048 -214.986L424.048 -214.987L424.049 -214.987L424.05 -214.987C453.834 -227.189 483.442 -239.319 513.497 -253.476ZM1017.07 -755.513C807.107 -416.101 663.04 -309.656 526.397 -244.029C495.921 -229.392 465.887 -216.809 435.627 -204.132C330.419 -160.056 222.484 -114.837 83.7877 21.8338C-134.019 236.425 -259.376 371.203 -327.887 482.58L-332.801 479.557C-263.86 367.481 -137.973 232.221 79.7382 17.7239C219.291 -119.791 328.37 -165.479 433.728 -209.608C463.881 -222.238 493.729 -234.739 523.899 -249.23C659.282 -314.251 802.602 -419.785 1012.16 -758.548L1017.07 -755.513ZM539.288 -234.606C675.312 -301.191 818.371 -407.609 1027.66 -739.777L1022.86 -742.797C813.97 -411.253 671.629 -305.697 536.797 -239.695C506.153 -224.695 475.826 -211.713 445.141 -198.578C340.631 -153.843 231.968 -107.33 92.4949 26.7829C-127.629 238.449 -254.846 371.283 -327.126 484.189L-322.354 487.244C-250.498 375 -123.794 242.621 96.4219 30.8669C235.088 -102.47 342.671 -148.53 447.038 -193.212L447.04 -193.213L447.042 -193.214L447.045 -193.215L447.047 -193.216L447.049 -193.217L447.051 -193.218L447.053 -193.219L447.055 -193.22L447.057 -193.221L447.059 -193.222L447.06 -193.222L447.062 -193.223L447.064 -193.224L447.065 -193.225L447.067 -193.226L447.069 -193.226L447.07 -193.227L447.072 -193.228L447.074 -193.229L447.075 -193.229L447.077 -193.23L447.078 -193.231L447.08 -193.232L447.082 -193.233C477.858 -206.408 508.356 -219.464 539.288 -234.606ZM1038.23 -724.033C829.635 -399.108 687.581 -292.715 552.176 -225.167C520.701 -209.465 489.656 -195.888 458.27 -182.161C354.793 -136.904 247.609 -90.0269 109.082 39.9304C-113.59 248.846 -241.612 378.834 -316.79 491.94L-321.429 488.857C-245.832 375.121 -117.312 244.701 105.271 35.8683C244.557 -94.8004 352.758 -142.116 456.374 -187.426C487.654 -201.104 518.516 -214.6 549.689 -230.151C683.968 -297.137 825.333 -402.717 1033.55 -727.042L1038.23 -724.033ZM565.018 -215.761C699.818 -284.261 840.891 -390.612 1048.81 -708.292L1044.23 -711.285C836.694 -394.18 696.279 -288.594 562.542 -220.634C530.792 -204.499 499.347 -190.46 467.419 -176.205C364.726 -130.355 257.029 -82.27 118.047 44.9513C-107.011 250.951 -236.79 378.951 -315.748 493.507L-311.248 496.609C-232.703 382.652 -103.406 255.061 121.737 48.9829C260.01 -77.5893 366.75 -125.252 469.309 -171.048L469.311 -171.049L469.312 -171.05L469.314 -171.051L469.316 -171.051L469.317 -171.052L469.319 -171.053L469.321 -171.054L469.322 -171.055L469.324 -171.055L469.326 -171.056L469.327 -171.057L469.329 -171.058L469.331 -171.058L469.332 -171.059L469.334 -171.06L469.336 -171.061L469.337 -171.062L469.339 -171.062L469.341 -171.063L469.342 -171.064L469.344 -171.065L469.346 -171.065L469.347 -171.066L469.349 -171.067L469.35 -171.068L469.352 -171.069C501.371 -185.366 532.982 -199.481 565.018 -215.761ZM1059.39 -692.554C852.154 -382.117 712.071 -275.811 577.881 -206.358C545.179 -189.433 512.898 -174.723 480.131 -159.791C378.552 -113.502 272.305 -65.0864 134.389 58.0438C-93.2362 261.265 -223.803 386.464 -305.698 501.287L-310.063 498.173C-227.76 382.779 -96.7236 257.191 130.818 54.0442C269.393 -69.6747 376.539 -118.495 478.249 -164.84L478.25 -164.84L478.25 -164.84L478.251 -164.841L478.252 -164.841L478.253 -164.841L478.254 -164.842L478.255 -164.842L478.255 -164.843L478.256 -164.843L478.257 -164.843L478.258 -164.844L478.259 -164.844L478.26 -164.845L478.26 -164.845L478.261 -164.845L478.262 -164.846L478.263 -164.846L478.264 -164.847L478.264 -164.847L478.265 -164.847L478.266 -164.848L478.267 -164.848L478.268 -164.849L478.269 -164.849L478.269 -164.849L478.27 -164.85L478.271 -164.85C510.926 -179.729 543.021 -194.353 575.416 -211.12C708.608 -280.055 848.061 -385.643 1054.93 -695.53L1059.39 -692.554ZM590.723 -196.956C724.314 -267.359 863.422 -373.619 1069.97 -676.813L1065.62 -679.778C859.426 -377.107 720.919 -271.521 588.268 -201.615C555.132 -184.152 522.291 -168.889 488.801 -153.324C388.134 -106.537 281.605 -57.0264 143.59 63.1266C-86.4623 263.41 -218.753 386.616 -304.379 502.847L-300.14 505.971C-214.917 390.287 -83.0867 267.453 147.047 67.0981C284.452 -52.5233 390.137 -101.645 490.677 -148.376C524.27 -163.989 557.288 -179.336 590.723 -196.956ZM1080.55 -661.075C874.679 -365.137 736.537 -258.927 603.542 -187.574C569.296 -169.199 535.462 -153.166 500.952 -136.812L500.95 -136.811L500.949 -136.81L500.948 -136.81L500.946 -136.809L500.945 -136.809L500.944 -136.808L500.942 -136.807L500.941 -136.807L500.94 -136.806L500.938 -136.805L500.937 -136.805L500.936 -136.804L500.934 -136.804L500.933 -136.803L500.932 -136.802L500.93 -136.802L500.929 -136.801L500.928 -136.8L500.926 -136.8L500.925 -136.799L500.924 -136.799L500.922 -136.798L500.921 -136.797L500.92 -136.797L500.919 -136.796L500.917 -136.795L500.916 -136.795L500.915 -136.794L500.913 -136.794C401.484 -89.6756 296.436 -39.8947 159.705 76.1546C-72.9589 273.631 -206.003 394.106 -294.589 510.643L-298.698 507.52C-209.713 390.458 -76.2188 269.627 156.365 72.2193C293.656 -44.3057 399.494 -94.459 499.049 -141.635C533.471 -157.946 567.142 -173.902 601.102 -192.122C733.215 -263.002 870.787 -368.58 1076.31 -664.022L1080.55 -661.075ZM616.322 -178.174C748.727 -250.468 885.911 -356.619 1091.09 -645.319L1086.97 -648.249C882.121 -360.017 745.478 -254.457 613.899 -182.613C579.018 -163.567 544.421 -146.862 508.952 -129.737L508.951 -129.736L508.95 -129.736L508.949 -129.736L508.949 -129.735L508.948 -129.735L508.947 -129.734L508.946 -129.734L508.945 -129.734L508.944 -129.733L508.944 -129.733L508.943 -129.732L508.942 -129.732L508.941 -129.732L508.94 -129.731L508.939 -129.731L508.939 -129.731L508.938 -129.73L508.937 -129.73L508.936 -129.729L508.935 -129.729L508.934 -129.729L508.934 -129.728L508.933 -129.728L508.932 -129.727L508.931 -129.727L508.93 -129.727L508.929 -129.726L508.929 -129.726L508.928 -129.725L508.924 -129.724C410.558 -82.2293 305.491 -31.4994 169.105 81.3306C-66.0169 275.865 -200.719 394.316 -293.046 512.21L-289.064 515.328C-197.132 397.938 -62.8723 279.828 172.329 85.2275C308.204 -27.18 412.533 -77.5539 510.773 -124.988L510.774 -124.988C546.352 -142.167 581.132 -158.96 616.322 -178.174ZM1101.7 -629.595C897.212 -348.132 760.976 -242.045 629.154 -168.812C592.909 -148.676 557.072 -131.056 520.294 -112.972L520.293 -112.972L520.292 -112.972L520.292 -112.971L520.291 -112.971L520.29 -112.971L520.29 -112.97L520.289 -112.97L520.288 -112.97L520.288 -112.97L520.287 -112.969L520.286 -112.969L520.286 -112.969L520.285 -112.968L520.284 -112.968L520.284 -112.968L520.283 -112.967L520.282 -112.967L520.282 -112.967L520.281 -112.966L520.28 -112.966L520.28 -112.966L520.279 -112.965L520.278 -112.965L520.278 -112.965L520.277 -112.965L520.276 -112.964L520.276 -112.964L520.275 -112.964L520.274 -112.963L520.274 -112.963L520.273 -112.963C423.318 -65.2922 319.814 -14.4015 185.013 94.266C-52.7868 285.958 -188.197 401.742 -283.482 519.985L-287.346 516.872C-191.669 398.142 -55.8226 282.033 181.899 90.4032C317.161 -18.6356 421.356 -69.8669 518.437 -117.6L518.439 -117.601C555.126 -135.64 590.797 -153.179 626.744 -173.149C757.795 -245.953 893.518 -351.489 1097.69 -632.511L1101.7 -629.595ZM641.944 -159.447C773.187 -233.613 908.48 -339.633 1112.28 -613.858L1108.38 -616.755C904.887 -342.942 770.078 -237.436 639.554 -163.676C602.392 -142.675 565.499 -124.214 527.416 -105.158L527.413 -105.157C431.737 -57.2811 328.545 -5.64433 194.671 99.4771C-45.6178 288.17 -182.652 401.96 -281.664 521.543L-277.922 524.641C-179.3 405.528 -42.695 292.051 197.671 103.298C331.135 -1.50238 433.683 -52.8141 529.23 -100.623C567.411 -119.727 604.473 -138.272 641.944 -159.447ZM1122.86 -598.118C919.736 -331.151 785.379 -225.21 654.714 -150.105C615.852 -127.768 577.399 -108.195 537.614 -87.9439L537.612 -87.9433C443.607 -40.0935 342.166 11.5408 210.332 112.365C-32.6226 298.184 -170.399 409.335 -272.359 529.316L-275.981 526.238C-173.635 405.801 -35.4332 294.349 207.445 108.589C339.635 7.49191 441.679 -44.453 535.817 -92.3738L535.817 -92.374L535.818 -92.3743L535.818 -92.3745L535.819 -92.3747L535.819 -92.375L535.82 -92.3752L535.82 -92.3754L535.821 -92.3757L535.821 -92.3759L535.822 -92.3761L535.822 -92.3764L535.823 -92.3766L535.823 -92.3768L535.824 -92.3771L535.824 -92.3775L535.825 -92.3778L535.826 -92.3782L535.827 -92.3788C575.516 -112.582 613.8 -132.071 652.345 -154.226C782.342 -228.947 916.245 -334.412 1119.07 -600.996L1122.86 -598.118ZM667.478 -140.761C797.572 -216.794 931.004 -322.652 1133.44 -582.373L1129.77 -585.236C927.606 -325.87 794.601 -220.453 665.128 -144.782C624.97 -121.311 585.063 -100.662 543.482 -79.1469C451.052 -31.3206 350.349 20.7864 220.216 117.683C-25.2882 300.481 -164.612 409.674 -270.293 530.95L-266.782 534.01C-161.486 413.176 -22.5824 304.273 222.997 121.419C352.828 24.7474 452.966 -27.0614 545.256 -74.8107C586.926 -96.3697 626.996 -117.101 667.478 -140.761ZM1144.01 -566.649C942.265 -314.17 809.763 -208.393 680.241 -131.428C637.847 -106.236 595.869 -84.177 551.947 -61.0958L551.946 -61.0953C461.599 -13.6176 363.022 38.1847 235.66 130.469C-12.5624 310.352 -152.567 416.981 -261.236 538.638L-264.632 535.605C-155.58 413.519 -15.1598 306.611 232.989 126.782L234.324 128.626L232.989 126.782C360.593 34.3214 459.704 -17.7687 550.2 -65.3314L550.201 -65.3319C594.041 -88.3729 635.858 -110.351 677.915 -135.342C806.863 -211.966 938.967 -317.337 1140.46 -569.492L1144.01 -566.649ZM692.974 -122.126C821.937 -200.012 953.53 -305.685 1154.59 -550.914L1151.15 -553.735C950.331 -308.801 819.107 -203.501 690.673 -125.935C646.277 -99.1217 602.235 -75.6334 555.707 -50.8193L555.706 -50.8191L555.706 -50.8189L555.705 -50.8186L555.705 -50.8184L555.704 -50.8182L555.704 -50.8179L555.702 -50.8168L555.699 -50.8154L555.696 -50.8137L555.692 -50.8117C534.842 -39.6922 513.493 -28.3063 491.389 -16.2358C419.993 22.7524 340.893 68.7971 245.752 135.878C-5.04369 312.717 -146.562 417.37 -258.952 540.29L-255.668 543.292C-143.66 420.79 -2.55308 316.405 248.316 139.515C343.278 72.5598 422.223 26.604 493.522 -12.3307C515.541 -24.3549 536.847 -35.7178 557.678 -46.8275L557.682 -46.8294L557.683 -46.8299C604.265 -71.673 648.473 -95.2504 692.974 -122.126ZM1165.17 -535.173C891.005 -209.546 747.138 -131.759 561.598 -31.439C475.922 14.8848 381.361 66.013 260.982 148.566C7.43996 322.438 -134.759 424.597 -250.1 547.956L-253.28 544.983C-137.558 421.216 5.05024 318.798 258.52 144.976C379.471 62.0302 474.244 10.7982 559.975 -35.5467L559.977 -35.5473C745.189 -135.67 888.208 -212.982 1161.84 -537.976L1165.17 -535.173ZM563.783 -15.022C754.478 -119.406 897.136 -197.495 1175.75 -519.438L1172.53 -522.219C894.435 -200.868 752.521 -123.194 562.099 -18.9701C479.367 26.3116 387.479 76.605 271.288 154.071C15.1341 324.859 -128.53 425.064 -247.608 549.674L-244.536 552.609C-125.837 428.397 17.4206 328.441 273.645 157.607C389.387 80.4401 481.1 30.2374 563.783 -15.022ZM1186.32 -503.703C902.081 -184.461 760.781 -106.277 563.311 2.98652C484.243 46.736 396.171 95.4683 286.311 166.653C27.3838 334.422 -116.927 432.202 -238.959 557.256L-241.926 554.361C-119.516 428.919 25.1986 330.898 284.057 163.174C394.254 91.771 482.465 42.964 561.573 -0.806414C758.818 -109.942 899.472 -187.766 1183.23 -506.46L1186.32 -503.703ZM559.1 23.2164C765.742 -92.1279 905.391 -170.077 1196.91 -487.967L1193.92 -490.704C902.866 -173.315 763.775 -95.677 557.315 19.5653L557.314 19.5656C482.723 61.2012 399.338 107.745 296.817 172.277C35.2449 336.919 -110.505 432.772 -236.272 559.057L-233.403 561.915C-108.014 436.009 37.335 340.388 298.974 175.704C401.258 111.321 484.54 64.8346 559.1 23.2164ZM1207.48 -472.23C1009.86 -263.225 882.744 -158.149 756.535 -75.7102C693.451 -34.5047 630.615 1.03136 559.378 41.0431C556.119 42.8739 552.842 44.7141 549.546 46.5646C480.808 85.1623 404.034 128.273 311.639 184.742C47.271 346.32 -99.1012 439.812 -227.85 566.534L-230.618 563.722C-101.492 436.63 45.278 342.914 309.582 181.376C402.039 124.868 478.869 81.7266 547.604 43.1301C550.903 41.2778 554.184 39.4358 557.446 37.6033C628.692 -2.41386 691.419 -37.8898 754.377 -79.0133C880.251 -161.233 1007.13 -266.082 1204.61 -474.941L1207.48 -472.23ZM769.218 -66.4654C894.89 -149.804 1021.13 -254.737 1218.06 -456.498L1215.31 -459.181C1018.5 -257.538 892.466 -152.805 767.095 -69.6666C692.669 -20.3121 618.523 21.4095 529.91 71.2718L529.9 71.277L529.887 71.2844C469.097 105.491 401.498 143.528 322.329 190.49C55.2816 348.899 -92.4973 440.488 -224.938 568.497L-222.269 571.259C-90.2037 443.613 57.1793 352.24 324.289 193.794C403.262 146.948 470.809 108.938 531.605 74.727L531.606 74.7263C620.349 24.7886 694.707 -17.0545 769.218 -66.4654ZM1228.64 -440.763C1032.41 -246.255 907.052 -141.475 781.918 -57.2418C695.739 0.768478 609.656 49.037 500.659 110.153L500.643 110.162L500.625 110.172C451.444 137.749 397.596 167.943 336.97 202.827C67.1135 358.114 -81.2751 447.411 -216.694 575.869L-219.271 573.151C-83.4774 444.338 65.3047 354.834 335.102 199.581C395.854 164.624 449.766 134.395 498.978 106.801C607.891 45.7321 693.779 -2.4264 779.826 -60.3486C904.691 -144.4 1029.86 -249.003 1226 -443.422L1228.64 -440.763ZM794.586 -48.0193C919.178 -133.143 1043.67 -237.761 1239.21 -425.029L1236.69 -427.659C1041.21 -240.45 916.886 -135.987 792.532 -51.0257C690.262 18.8464 587.96 75.5399 445.97 154.228L445.938 154.246L445.885 154.275C415.203 171.278 382.669 189.308 347.882 208.72C75.3199 360.784 -74.4469 448.227 -213.591 577.881L-211.109 580.545C-72.3384 451.239 77.0381 363.994 349.656 211.899C384.438 192.49 416.976 174.459 447.667 157.451L447.684 157.441C589.685 78.7481 692.164 21.957 794.586 -48.0193ZM1249.79 -409.298C1054.93 -229.272 931.312 -124.821 807.253 -38.8167C683.203 47.1821 558.752 114.711 362.314 220.908C86.9232 369.787 -63.4357 455.006 -205.552 585.158L-207.94 582.55C-65.4526 452.057 85.2934 366.647 360.632 217.797C557.109 111.578 681.378 44.143 805.238 -41.7235C929.089 -127.584 1052.57 -231.9 1247.39 -411.896L1249.79 -409.298ZM819.928 -29.63C943.458 -116.517 1066.22 -220.793 1260.37 -393.565L1258.08 -396.136C1063.93 -223.364 941.302 -119.207 817.948 -32.4446C694.604 54.3114 570.501 123.701 373.383 226.899C95.2623 372.509 -56.4418 455.913 -202.277 587.254L-199.974 589.811C-54.51 458.804 96.8099 375.582 374.979 229.948C572.117 126.739 696.389 57.2632 819.928 -29.63ZM1270.94 -377.849C883.951 -46.7085 783.407 38.4524 387.653 238.986C106.668 381.363 -45.5832 462.619 -194.396 594.451L-196.609 591.953C-47.4274 459.795 105.204 378.364 386.144 236.009C781.552 35.6511 881.862 -49.3135 1268.77 -380.385L1270.94 -377.849ZM1158.59 -260.706C1196.34 -291.928 1237.02 -325.567 1281.51 -362.106L1279.46 -364.604C1234.95 -328.057 1194.27 -294.414 1156.52 -263.191C867.198 -23.9072 749.831 73.1594 398.905 245.12C115.187 384.162 -38.4343 463.634 -190.948 596.656L-188.823 599.092C-36.6756 466.39 116.569 387.084 400.328 248.023C751.604 75.8911 869.223 -21.3851 1158.59 -260.706ZM1127.42 -215.755L1127.42 -215.752C868.114 -9.03103 743.753 90.113 413.031 257.043C375.134 276.175 339.484 294.004 305.787 310.856L305.687 310.906C87.7012 419.923 -48.584 488.081 -183.246 603.737L-185.29 601.357C-50.3143 485.432 86.3521 417.086 304.296 308.093L304.299 308.092C338.027 291.225 373.701 273.384 411.618 254.243C742.04 87.4636 866.172 -11.4965 1125.43 -218.182L1125.43 -218.186C1174.68 -257.449 1228.81 -300.6 1290.15 -348.841L1292.09 -346.375C1230.78 -298.155 1176.66 -255.015 1127.42 -215.755ZM1063.81 -146.558C1132.1 -200.043 1208.89 -260.182 1302.67 -330.656L1300.85 -333.08C1206.99 -262.547 1130.17 -202.383 1061.87 -148.893L1061.86 -148.885L1061.86 -148.883L1061.85 -148.878L1061.85 -148.877L1061.84 -148.867L1061.83 -148.861L1061.83 -148.86C851.481 15.8835 721.979 117.31 424.374 263.356C384.182 283.079 346.492 301.371 310.953 318.619L310.923 318.634L310.922 318.635C93.9845 423.92 -42.8364 490.323 -179.618 606.056L-177.659 608.371C-41.1887 492.901 95.2523 426.681 312.217 321.378L312.27 321.353C347.805 304.106 385.501 285.81 425.71 266.078C723.615 119.886 853.382 18.2518 1063.81 -146.555L1063.81 -146.557L1063.81 -146.558L1063.81 -146.558ZM1018.58 -89.8827L1018.58 -89.8823C842.226 50.6329 712.197 154.24 438.352 275.131C146.174 404.116 -9.90008 477.779 -172.095 613.016L-173.971 610.766C-11.4186 475.232 145.017 401.425 437.169 272.452C710.662 151.716 840.312 48.4075 1016.49 -91.9792L1016.5 -91.9813C1098.41 -157.25 1190.38 -230.534 1311.54 -317.309L1313.24 -314.928C1192.34 -228.338 1100.47 -155.132 1018.58 -89.8834L1018.58 -89.8827ZM1003.67 -59.5779C1091.97 -129.968 1189.88 -208.019 1323.82 -299.201L1322.23 -301.543C1188.19 -210.298 1090.15 -132.139 1001.82 -61.7263C964.869 -32.2671 929.616 -4.16406 894.14 22.9738C773.866 114.98 650.868 196.026 449.915 281.559C154.948 407.107 -2.42179 479.09 -168.311 615.476L-166.512 617.664C-0.976545 481.569 156.036 409.723 451.025 284.166C652.235 198.523 775.437 117.345 895.861 25.2239C931.391 -1.9551 966.665 -30.0752 1003.62 -59.5372L1003.64 -59.5505L1003.66 -59.5672L1003.67 -59.5779ZM995.857 -34.8607L995.855 -34.8588L995.851 -34.8557L995.85 -34.8549C966.213 -11.1384 937.456 11.8744 908.509 34.3193C788.602 127.295 665.572 210.428 463.679 293.211C165.882 415.347 7.92494 485.363 -160.961 622.314L-162.679 620.194C6.55533 482.961 164.864 412.815 462.644 290.686C664.252 208.02 787.07 125.03 906.837 32.1629C935.73 9.7595 964.452 -13.2246 994.064 -36.9211L994.088 -36.9409C1087.23 -111.473 1189.17 -193.053 1332.92 -285.773L1334.4 -283.479C1190.78 -190.844 1088.98 -109.379 995.858 -34.8616L995.857 -34.8607ZM992.779 -13.8053C1089.63 -91.7878 1193.97 -175.796 1344.98 -267.759L1343.62 -270C1192.45 -177.94 1087.96 -93.8081 991.089 -15.8153L991.081 -15.8086C966.962 3.61061 943.315 22.6492 919.539 41.335C800.282 135.058 677.656 219.985 475.421 299.784C174.82 418.397 15.5804 486.818 -156.997 624.89L-155.357 626.939C16.8764 489.142 175.772 420.844 476.384 302.226C678.928 222.305 801.776 137.223 921.161 43.3988C944.951 24.7023 968.6 5.66205 992.712 -13.7515L992.751 -13.7829L992.779 -13.8053ZM1355.56 -252.037C1198.82 -162.269 1092.84 -76.276 993.035 4.70719L993.017 4.72105C973.15 20.8413 953.528 36.7631 933.798 52.4764C814.93 147.147 692.259 234.182 489.06 311.26C185.621 426.366 25.8021 492.933 -149.776 631.582L-151.338 629.604C24.5778 490.687 184.733 424.007 488.166 308.903C691.035 231.95 813.477 145.082 932.227 50.5046C951.933 34.8108 971.538 18.9027 991.395 2.79108L991.417 2.77263L991.418 2.77179C1091.23 -78.2187 1197.38 -164.348 1354.3 -254.224L1355.56 -252.037ZM995.735 21.3846L995.736 21.3837C1097.9 -62.256 1204.91 -149.857 1366.14 -236.315L1364.99 -238.452C1203.54 -151.875 1096.35 -64.1246 994.183 19.5205L994.182 19.5213L994.181 19.5221L994.181 19.5229C977.705 33.011 961.36 46.3923 944.939 59.6447C826.7 155.067 704.442 243.876 500.913 318.011C194.673 429.562 33.5732 494.554 -145.685 634.31L-144.194 636.222C34.7315 496.726 195.502 431.841 501.743 320.289C705.621 246.027 828.116 157.04 946.461 61.5316C962.892 48.2712 979.242 34.8866 995.717 21.3989L995.735 21.3846ZM1000.2 36.7295L1000.2 36.7303L1000.16 36.7603C986.459 48.0904 972.815 59.37 959.109 70.5773C841.282 166.924 718.966 257.864 514.43 329.32C205.356 437.301 43.667 500.512 -138.613 640.858L-140.028 639.019C42.5766 498.423 204.587 435.111 513.665 327.129C717.835 255.801 839.909 165.049 957.64 68.7807C971.349 57.5705 985.001 46.2847 998.717 34.9455C1102.81 -51.1061 1210.61 -140.23 1375.69 -222.675L1376.72 -220.599C1211.9 -138.279 1104.29 -49.3186 1000.2 36.7295ZM1006.07 51.0295C1111.71 -37.2145 1219.59 -127.335 1387.29 -204.879L1386.36 -206.891C1218.38 -129.219 1110.29 -38.9212 1004.65 49.3234C993.214 58.8789 981.804 68.4102 970.35 77.8988C853.135 175.001 731.244 267.69 526.391 336.234C214.464 440.622 51.5526 502.272 -134.384 643.709L-133.042 645.473C52.5768 504.278 215.175 442.721 527.094 338.336C732.325 269.665 854.464 176.779 971.764 79.6059C983.221 70.1146 994.631 60.583 1006.07 51.0295ZM1397.89 -189.147C1227.86 -116.873 1119.93 -25.7188 1013.01 64.574C1003.5 72.6077 993.993 80.6345 984.454 88.6406C867.681 186.643 745.729 281.483 539.83 347.386C225.139 448.118 61.5583 508.092 -127.409 650.134L-128.683 648.439C60.5947 506.164 224.48 446.103 539.184 345.367C744.692 279.588 866.394 184.955 983.09 87.0161C992.631 79.0087 1002.14 70.9788 1011.66 62.9405C1118.57 -27.35 1226.73 -118.695 1397.06 -191.098L1397.89 -189.147ZM1020.78 77.4408C1128.75 -14.7667 1236.56 -106.843 1408.47 -173.454L1407.74 -175.335C1235.5 -108.596 1127.45 -16.3161 1019.5 75.8855L1019.45 75.9282L1019.41 75.9573L1019.4 75.9729L1019.39 75.9819L1019.37 75.9975L1019.35 76.013L1019.33 76.0286L1019.31 76.0441L1019.29 76.0597L1019.28 76.0752L1019.27 76.0842L1019.26 76.0931L1019.24 76.1021L1019.23 76.111C1011.43 82.7759 1003.63 89.4405 995.801 96.0946C879.616 194.866 758.09 291.445 551.895 354.48C234.385 451.548 69.5414 510.005 -123.062 653.149L-121.859 654.768C70.4424 511.848 234.991 453.471 552.485 356.408C759.077 293.252 880.856 196.458 997.107 97.631C1005.02 90.9068 1012.9 84.1735 1020.78 77.4408ZM1419.06 -157.746C1245.61 -97.1078 1138.07 -4.19721 1029.26 89.8141C1022.77 95.4155 1016.29 101.021 1009.78 106.623C894.058 206.268 772.46 305.009 565.167 365.433C244.878 458.793 79.3935 515.656 -116.257 659.407L-117.39 657.866C78.5532 513.9 244.322 456.963 564.632 363.597C771.522 303.29 892.867 204.769 1008.53 105.174C1015.05 99.563 1021.55 93.9483 1028.04 88.3366C1136.84 -5.66457 1244.63 -98.7903 1418.43 -159.551L1419.06 -157.746ZM1038.32 101.774C1147.82 6.04471 1254.98 -87.6349 1429.65 -142.031L1429.1 -143.766C1254.06 -89.253 1146.65 4.65339 1037.17 100.368C1031.88 104.993 1026.58 109.623 1021.27 114.252C906.127 214.676 784.961 315.143 577.375 372.714C254.26 462.319 87.5435 517.771 -111.758 662.568L-110.69 664.038C88.3283 519.446 254.77 464.063 577.86 374.465C785.853 316.781 907.273 216.087 1022.47 115.621C1027.76 111.004 1033.04 106.387 1038.32 101.774ZM1440.24 -126.326C1264.56 -78.3674 1157.86 16.0225 1047.79 113.394L1047.52 113.632C1043.4 117.28 1039.27 120.931 1035.14 124.584C920.472 225.857 799.236 328.499 590.553 383.491C264.692 469.36 97.2617 523.231 -105.107 668.671L-106.107 667.28C96.5344 521.645 264.228 467.711 590.117 381.835C798.393 326.95 919.378 224.538 1034 123.3C1038.25 119.552 1042.48 115.806 1046.71 112.064C1156.76 14.7131 1263.72 -79.9127 1439.79 -127.978L1440.24 -126.326ZM1057.7 124.708C1168.21 25.7672 1274.36 -69.2771 1450.83 -110.623L1450.46 -112.189C1273.59 -70.7483 1167.16 24.5397 1056.69 123.454L1056.4 123.715C1055 124.97 1053.59 126.226 1052.19 127.482C1050.38 129.102 1048.57 130.723 1046.76 132.345C932.66 234.395 811.856 338.75 602.848 390.954C274.159 473.059 105.527 525.511 -100.453 671.998L-99.5208 673.309C106.199 527.007 274.579 474.612 603.238 392.514C812.649 340.21 933.7 235.623 1047.83 133.544C1051.12 130.596 1054.41 127.65 1057.7 124.708ZM1461.42 -94.9205C1284.35 -60.3494 1178.8 35.3117 1067.95 135.773C1065.48 138.011 1063.01 140.251 1060.53 142.493C946.927 245.383 826.049 351.924 615.935 401.545C284.538 479.804 115.136 530.795 -93.9341 677.945L-94.8046 676.708C114.515 529.383 284.157 478.34 615.587 400.073C825.303 350.546 945.939 244.238 1059.51 141.372C1062.01 139.109 1064.51 136.848 1067 134.589C1177.82 34.16 1283.65 -61.7522 1461.13 -96.4049L1461.42 -94.9205ZM1078.46 146.635C1189.56 44.7102 1294.47 -51.528 1472.02 -79.2206L1471.8 -80.6121C1293.82 -52.8534 1188.64 43.6404 1077.58 145.527C1075.81 147.151 1074.04 148.776 1072.27 150.402C959.226 254.073 838.774 362.324 628.322 409.189C294.143 483.616 123.503 533.259 -89.1546 681.421L-88.3496 682.576C124.071 534.579 294.484 484.983 628.629 410.564C839.471 363.611 960.158 255.13 1073.22 151.44C1074.97 149.837 1076.71 148.235 1078.46 146.635ZM1482.63 -63.5221C1304.71 -42.8146 1200.51 53.9662 1089.24 157.311L1085.92 160.386C973.404 264.876 852.906 375.3 641.322 419.592C304.444 490.133 133.006 538.357 -82.763 687.208L-83.5037 686.134C132.489 537.129 304.14 488.864 641.055 418.316C852.26 374.103 972.531 263.906 1085.04 159.43L1088.43 156.279C1199.65 52.9781 1304.14 -44.0607 1482.47 -64.8177L1482.63 -63.5221ZM1100.22 167.81C1211.61 63.0835 1315.09 -34.2021 1493.23 -47.8213L1493.14 -49.0261C1314.57 -35.3744 1210.82 62.1711 1099.48 166.849L1097.82 168.411C985.843 273.685 865.744 385.835 653.788 427.435C314.142 494.081 141.482 541.005 -77.8554 690.85L-77.1738 691.848C141.953 542.146 314.412 495.259 654.021 428.621C866.343 386.949 986.661 274.575 1098.65 169.292L1100.22 167.81ZM1503.86 -32.1338C1325.58 -25.673 1222.88 72.0875 1111.44 178.155L1111.4 178.2C999.958 284.277 879.825 398.593 666.745 437.628C324.439 500.34 150.914 545.912 -71.5556 696.464L-72.1744 695.55C150.491 544.864 324.202 499.261 666.546 436.541C879.276 397.57 999.202 283.472 1110.64 177.4L1110.77 177.271C1222.15 71.2566 1325.12 -26.7614 1503.82 -33.2375L1503.86 -32.1338ZM-65.9724 701.104C159.862 549.728 334.429 505.453 679.449 446.689C892.422 410.388 1012.24 294.907 1122.76 188.395L1124.09 187.115C1234.99 80.2399 1336.79 -17.1803 1514.45 -16.4275L1514.46 -17.4277C1336.35 -18.1826 1234.27 79.54 1123.4 186.395L1122.11 187.638C1011.58 294.157 891.949 409.453 679.281 445.703C334.223 504.473 159.485 548.776 -66.5294 700.273L-65.9724 701.104ZM692.119 455.694C344.409 510.482 168.768 553.491 -60.4057 705.74L-60.9061 704.987C168.434 552.628 344.231 509.595 691.978 454.801C904.675 421.283 1024.05 304.804 1133.71 197.813L1136.21 195.375C1246.54 87.7314 1347.69 -9.62471 1525.11 -1.63286L1525.07 -0.729523C1348.09 -8.70181 1247.19 88.3588 1136.84 196.022L1134.3 198.494C1024.66 305.478 905.101 422.131 692.119 455.694ZM600.288 485.44C633.444 478.916 668.203 472.076 704.822 464.712C921.616 445.256 1041.19 325.101 1150.63 213.716L1153.15 211.151C1261.63 100.743 1360.74 -0.136334 1535.69 14.9666L1535.75 14.1693C1360.43 -0.966188 1261.07 100.163 1152.66 210.51L1150.06 213.156C1040.61 324.542 921.22 444.495 704.729 463.917L704.707 463.919L704.686 463.923C668.058 471.288 633.29 478.13 600.123 484.657C318.986 539.979 152.877 572.666 -55.2385 709.692L-54.7983 710.361C153.18 573.425 319.135 540.767 600.288 485.44Z"
          fill="#fff"
        />
      </svg>